<svg id="adobe-illustrator_BN" data-name="adobe-illustrator BN" xmlns="http://www.w3.org/2000/svg" width="56.412" height="55.002" viewBox="0 0 56.412 55.002">
  <path id="Path_2854" data-name="Path 2854" d="M55.55,55.55h51.711v50.3H55.55Z" transform="translate(-53.2 -53.2)" fill="#a5a5a5"/>
  <path id="Path_2855" data-name="Path 2855" d="M2.35,2.35H54.062v50.3H2.35ZM0,55H56.412V0H0ZM36.95,19.6c0-.188.071-.282.282-.282h3.69c.188,0,.282.071.282.282V38.149c0,.188-.047.282-.282.282H37.279c-.235,0-.305-.118-.305-.305V19.6H36.95Zm-.259-5.336a2.4,2.4,0,1,1,4.8,0,2.247,2.247,0,0,1-2.445,2.4A2.21,2.21,0,0,1,36.691,14.267ZM26.114,27.336c-.658-2.609-2.209-8.3-2.8-11.047H23.27c-.494,2.75-1.739,7.4-2.727,11.047h5.571Zm-6.535,3.808L17.722,38.2c-.047.188-.118.235-.352.235H13.915c-.235,0-.282-.071-.235-.352l6.676-23.364a7.624,7.624,0,0,0,.235-1.951c0-.165.071-.235.188-.235h4.936c.165,0,.235.047.282.235l7.475,25.362c.047.188,0,.305-.188.305h-3.9c-.188,0-.305-.047-.352-.212L27.1,31.144H19.58Z" fill="#e9e9e9"/>
</svg>
