<svg xmlns="http://www.w3.org/2000/svg" width="24.854" height="14.5" viewBox="0 0 24.854 14.5">
  <g id="arrow-right" transform="translate(-4.5 -10.124)">
    <path id="Path_31" data-name="Path 31" d="M22.8,10.428a1.035,1.035,0,0,1,1.466,0l6.213,6.213a1.035,1.035,0,0,1,0,1.466L24.269,24.32A1.037,1.037,0,0,1,22.8,22.854l5.481-5.48L22.8,11.893a1.035,1.035,0,0,1,0-1.466Z" transform="translate(-1.432)" fill="#855df5" fill-rule="evenodd"/>
    <path id="Path_32" data-name="Path 32" d="M4.5,17.91a1.035,1.035,0,0,1,1.035-1.035H27.281a1.035,1.035,0,1,1,0,2.071H5.535A1.035,1.035,0,0,1,4.5,17.91Z" transform="translate(0 -0.537)" fill="#855df5" fill-rule="evenodd"/>
  </g>
</svg>
