<svg xmlns="http://www.w3.org/2000/svg" width="47.995" height="30.068" viewBox="0 0 47.995 30.068">
  <path id="behance_1_" data-name="behance (1)" d="M13.917,119.517a18.1,18.1,0,0,1,3.849.376,8.3,8.3,0,0,1,2.981,1.218,5.825,5.825,0,0,1,1.931,2.249,7.933,7.933,0,0,1,.675,3.467,6.453,6.453,0,0,1-1.013,3.722,7.423,7.423,0,0,1-3.009,2.438,7.1,7.1,0,0,1,4.058,2.747,9.122,9.122,0,0,1,.471,8.612,7.6,7.6,0,0,1-2.333,2.672,10.171,10.171,0,0,1-3.356,1.527,15.2,15.2,0,0,1-3.858.5H0V119.52H13.919l0,0Zm17.4,2.382h11.97v2.916H31.318V121.9h0Zm2.66,22.006a5.218,5.218,0,0,0,3.8,1.292,5.21,5.21,0,0,0,3.065-.9,3.777,3.777,0,0,0,1.566-1.892h5.172a9.792,9.792,0,0,1-3.814,5.512,11.128,11.128,0,0,1-6.187,1.668,12.326,12.326,0,0,1-4.556-.808,9.646,9.646,0,0,1-3.449-2.3,10.527,10.527,0,0,1-2.174-3.562,13.144,13.144,0,0,1-.767-4.555,12.529,12.529,0,0,1,.786-4.471,10.412,10.412,0,0,1,2.24-3.581,10.6,10.6,0,0,1,3.468-2.381,11.072,11.072,0,0,1,4.462-.873,10.107,10.107,0,0,1,4.751,1.059,9.574,9.574,0,0,1,3.337,2.831A11.5,11.5,0,0,1,47.549,135a15.311,15.311,0,0,1,.41,4.763H32.524a5.921,5.921,0,0,0,1.452,4.132Zm6.74-11.227a4.4,4.4,0,0,0-3.317-1.19,5.059,5.059,0,0,0-2.333.477,4.693,4.693,0,0,0-1.491,1.181,4.188,4.188,0,0,0-.785,1.507,7.045,7.045,0,0,0-.274,1.407H42.08a5.709,5.709,0,0,0-1.359-3.383l0,0Zm-27.647-1.239a4.7,4.7,0,0,0,2.857-.826,3.085,3.085,0,0,0,1.106-2.681,3.512,3.512,0,0,0-.366-1.7,2.71,2.71,0,0,0-1-1.031,3.972,3.972,0,0,0-1.432-.516,8.948,8.948,0,0,0-1.668-.149H6.493v6.9h6.58Zm.356,12.568a7.983,7.983,0,0,0,1.816-.19,4.3,4.3,0,0,0,1.527-.626,3.144,3.144,0,0,0,1.058-1.181,4.065,4.065,0,0,0,.384-1.911,3.874,3.874,0,0,0-1.283-3.263,5.459,5.459,0,0,0-3.391-.965H6.491V144h6.936v.012Z" transform="translate(0 -119.517)" fill-rule="evenodd"/>
</svg>
