<svg xmlns="http://www.w3.org/2000/svg" width="81.406" height="51" viewBox="0 0 81.406 51">
  <path id="behance_footer" data-name="behance footer" d="M23.6,119.517a30.691,30.691,0,0,1,6.529.637,14.079,14.079,0,0,1,5.057,2.066,9.879,9.879,0,0,1,3.275,3.815,13.455,13.455,0,0,1,1.145,5.88,10.946,10.946,0,0,1-1.719,6.313,12.59,12.59,0,0,1-5.1,4.136,12.049,12.049,0,0,1,6.884,4.659,15.473,15.473,0,0,1,.8,14.607,12.887,12.887,0,0,1-3.957,4.533,17.251,17.251,0,0,1-5.692,2.59,25.774,25.774,0,0,1-6.544.843H0V119.522l23.608,0,0-.006Zm29.515,4.04h20.3V128.5l-20.3,0v-4.944Zm4.512,37.326a8.851,8.851,0,0,0,6.442,2.192,8.836,8.836,0,0,0,5.2-1.528,6.407,6.407,0,0,0,2.656-3.209l8.772,0c-1.415,4.369-3.546,7.473-6.469,9.349a18.874,18.874,0,0,1-10.494,2.829,20.907,20.907,0,0,1-7.728-1.37,16.36,16.36,0,0,1-5.85-3.9,17.855,17.855,0,0,1-3.688-6.041,22.3,22.3,0,0,1-1.3-7.726A21.251,21.251,0,0,1,46.5,143.9a17.66,17.66,0,0,1,3.8-6.074,17.98,17.98,0,0,1,5.882-4.038,18.78,18.78,0,0,1,7.569-1.481,17.143,17.143,0,0,1,8.059,1.8,16.239,16.239,0,0,1,5.659,4.8,19.514,19.514,0,0,1,3.18,6.882,25.969,25.969,0,0,1,.7,8.078H55.166c0,2.844.956,5.566,2.462,7.009l0,.01ZM69.063,141.84a7.47,7.47,0,0,0-5.626-2.019,8.58,8.58,0,0,0-3.957.81,7.961,7.961,0,0,0-2.528,2,7.1,7.1,0,0,0-1.331,2.557,11.95,11.95,0,0,0-.464,2.386l16.218,0a9.683,9.683,0,0,0-2.3-5.737l-.006,0Zm-46.893-2.1a7.968,7.968,0,0,0,4.845-1.4c1.271-.921,1.876-2.447,1.876-4.548a5.957,5.957,0,0,0-.62-2.88,4.6,4.6,0,0,0-1.7-1.749,6.737,6.737,0,0,0-2.429-.876,15.176,15.176,0,0,0-2.829-.252h-10.3v11.7H22.173Zm.6,21.317a13.54,13.54,0,0,0,3.08-.322,7.287,7.287,0,0,0,2.59-1.062,5.332,5.332,0,0,0,1.8-2,6.894,6.894,0,0,0,.652-3.241c0-2.573-.733-4.42-2.177-5.535a9.26,9.26,0,0,0-5.751-1.638H11.009v13.78l11.765,0v.021Z" transform="translate(0 -119.517)" fill-rule="evenodd"/>
</svg>
