<svg xmlns="http://www.w3.org/2000/svg" xmlns:xlink="http://www.w3.org/1999/xlink" width="603.907" height="478.345" viewBox="0 0 603.907 478.345">
  <defs>
    <clipPath id="clip-path">
      <path id="Path_2451" data-name="Path 2451" d="M689.154,510.615l-451.34-12.933a41.723,41.723,0,0,1-40.36-37.583L175.668,244.845a41.818,41.818,0,0,1,40.968-46L719.012,191.9a41.844,41.844,0,0,1,42.1,46.957l-29.25,235.217a41.749,41.749,0,0,1-42.7,36.541Z" transform="translate(-175.458 -191.896)" fill="none"/>
    </clipPath>
    <clipPath id="clip-path-2">
      <path id="Path_2880" data-name="Path 2880" d="M378.082,307.181c2.17-4.861,5.519-8.427,10.9-8.6,16.135-1.955-.866,9.663,14.768,21.156.191.055,5.356,1.907,5.846,2.022,30.927,4.247,13.574-26.031,42.555-15.127,26.525,9.2,9.949,31.276,4.741,43.774s-10.849,23.869-11.8,28.209,2.517,24.824.694,28.99-21.178,11.37-45.828,9.982-34.892-9.374-35.673-12.325,2.344-28.556,3.819-37.322,2.517-28.035,2.691-30.813C372.353,319.246,375.825,312.216,378.082,307.181Z" transform="translate(-26.376 -25.091)" fill="#9e80fb"/>
    </clipPath>
  </defs>
  <g id="carouselimg-3" transform="translate(-163.9 -108.486)">
    <path id="Path_2430" data-name="Path 2430" d="M689.154,510.615l-451.34-12.933a41.723,41.723,0,0,1-40.36-37.583L175.668,244.845a41.818,41.818,0,0,1,40.968-46L719.012,191.9a41.844,41.844,0,0,1,42.1,46.957l-29.25,235.217a41.749,41.749,0,0,1-42.7,36.541Z" transform="translate(-1.46 -11.013)" fill="#f1eefc"/>
    <g id="Group_125" data-name="Group 125" transform="translate(173.997 180.882)" clip-path="url(#clip-path)">
      <path id="Path_2431" data-name="Path 2431" d="M286.057,569.117H-74.581A13.019,13.019,0,0,1-87.6,556.1V351.519A13.019,13.019,0,0,1-74.581,338.5H286.057a13.019,13.019,0,0,1,13.019,13.019V556.011A13.08,13.08,0,0,1,286.057,569.117Z" transform="translate(-140.724 -211.253)" fill="none" stroke="#fff" stroke-linecap="round" stroke-linejoin="round" stroke-width="1.8"/>
      <path id="Path_2432" data-name="Path 2432" d="M834.682,538.878H470.919A13.019,13.019,0,0,1,457.9,525.858V227.019A13.019,13.019,0,0,1,470.919,214H834.682A13.019,13.019,0,0,1,847.7,227.019V525.858a13.019,13.019,0,0,1-13.019,13.019Z" transform="translate(-212.751 -194.814)" fill="none" stroke="#fff" stroke-linecap="round" stroke-linejoin="round" stroke-width="1.8"/>
      <path id="Path_2433" data-name="Path 2433" d="M224.637,335.463h-17.62a3.75,3.75,0,0,1-3.732-3.3l-1.389-12.5a3.758,3.758,0,0,1,3.732-4.166h20.4a3.767,3.767,0,0,1,3.732,4.166l-1.389,12.5a3.75,3.75,0,0,1-3.732,3.3Z" transform="translate(-178.946 -208.216)" fill="none" stroke="#fff" stroke-linecap="round" stroke-linejoin="round" stroke-width="1.8"/>
      <path id="Path_2434" data-name="Path 2434" d="M214.232,313.369s-6.944-.694-8.332-10.068c0,0,6.249,1.823,8.246,6.249,0,0,.868-9.895,5.555-10.85,0,0,2.083,7.378-1.215,11.023,0,0,2.517-4.166,8.94-4.079a11.8,11.8,0,0,1-7.985,7.638" transform="translate(-179.477 -205.998)" fill="#d3c5fe"/>
      <path id="Path_2435" data-name="Path 2435" d="M327.336,383.473h-78.29a3.671,3.671,0,0,1-3.645-3.645V356.045a3.671,3.671,0,0,1,3.645-3.645h78.29a3.671,3.671,0,0,1,3.645,3.645v23.782A3.671,3.671,0,0,1,327.336,383.473Z" transform="translate(-184.693 -213.088)" fill="none" stroke="#fff" stroke-linecap="round" stroke-linejoin="round" stroke-width="1.8"/>
      <path id="Path_2436" data-name="Path 2436" d="M302.056,361.7H284a1.337,1.337,0,0,1-1.3-1.3h0a1.337,1.337,0,0,1,1.3-1.3h18.054a1.337,1.337,0,0,1,1.3,1.3h0a1.276,1.276,0,0,1-1.3,1.3Z" transform="translate(-189.618 -213.973)" fill="#d3c5fe"/>
      <path id="Path_2437" data-name="Path 2437" d="M327.336,429.273h-78.29a3.672,3.672,0,0,1-3.645-3.645V401.845a3.671,3.671,0,0,1,3.645-3.645h78.29a3.671,3.671,0,0,1,3.645,3.645v23.782a3.672,3.672,0,0,1-3.645,3.645Z" transform="translate(-184.693 -219.136)" fill="none" stroke="#fff" stroke-linecap="round" stroke-linejoin="round" stroke-width="1.8"/>
      <path id="Path_2438" data-name="Path 2438" d="M302.056,407.5H284a1.337,1.337,0,0,1-1.3-1.3h0a1.337,1.337,0,0,1,1.3-1.3h18.054a1.337,1.337,0,0,1,1.3,1.3h0a1.276,1.276,0,0,1-1.3,1.3Z" transform="translate(-189.618 -220.02)" fill="#d3c5fe"/>
      <path id="Path_2439" data-name="Path 2439" d="M790.436,461.673h-78.29a3.671,3.671,0,0,1-3.646-3.645V434.245a3.672,3.672,0,0,1,3.646-3.645h78.29a3.672,3.672,0,0,1,3.646,3.645v23.782a3.559,3.559,0,0,1-3.645,3.645Z" transform="translate(-245.84 -223.414)" fill="none" stroke="#fff" stroke-linecap="round" stroke-linejoin="round" stroke-width="1.8"/>
      <path id="Path_2440" data-name="Path 2440" d="M765.256,439.8H747.2a1.337,1.337,0,0,1-1.3-1.3h0a1.337,1.337,0,0,1,1.3-1.3h18.054a1.337,1.337,0,0,1,1.3,1.3h0a1.276,1.276,0,0,1-1.3,1.3Z" transform="translate(-250.778 -224.285)" fill="#d3c5fe"/>
      <path id="Path_2441" data-name="Path 2441" d="M674.635,461.673h-78.29a3.671,3.671,0,0,1-3.645-3.645V434.245a3.671,3.671,0,0,1,3.645-3.645h78.29a3.671,3.671,0,0,1,3.646,3.645v23.782a3.559,3.559,0,0,1-3.646,3.645Z" transform="translate(-230.55 -223.414)" fill="none" stroke="#fff" stroke-linecap="round" stroke-linejoin="round" stroke-width="1.8"/>
      <path id="Path_2442" data-name="Path 2442" d="M649.456,439.8H631.4a1.337,1.337,0,0,1-1.3-1.3h0a1.337,1.337,0,0,1,1.3-1.3h18.054a1.337,1.337,0,0,1,1.3,1.3h0a1.276,1.276,0,0,1-1.3,1.3Z" transform="translate(-235.488 -224.285)" fill="#d3c5fe"/>
      <path id="Path_2443" data-name="Path 2443" d="M212.336,383.473h-78.29a3.671,3.671,0,0,1-3.645-3.645V356.045a3.671,3.671,0,0,1,3.645-3.645h78.29a3.672,3.672,0,0,1,3.645,3.645v23.782a3.671,3.671,0,0,1-3.645,3.645Z" transform="translate(-169.508 -213.088)" fill="none" stroke="#fff" stroke-linecap="round" stroke-linejoin="round" stroke-width="1.8"/>
      <path id="Path_2444" data-name="Path 2444" d="M187.056,361.7H169a1.337,1.337,0,0,1-1.3-1.3h0a1.337,1.337,0,0,1,1.3-1.3h18.054a1.337,1.337,0,0,1,1.3,1.3h0a1.276,1.276,0,0,1-1.3,1.3Z" transform="translate(-174.433 -213.973)" fill="#d3c5fe"/>
      <path id="Path_2445" data-name="Path 2445" d="M212.336,429.273h-78.29a3.672,3.672,0,0,1-3.645-3.645V401.845a3.671,3.671,0,0,1,3.645-3.645h78.29a3.671,3.671,0,0,1,3.645,3.645v23.782a3.671,3.671,0,0,1-3.645,3.645Z" transform="translate(-169.508 -219.136)" fill="none" stroke="#fff" stroke-linecap="round" stroke-linejoin="round" stroke-width="1.8"/>
      <path id="Path_2446" data-name="Path 2446" d="M187.056,407.5H169a1.337,1.337,0,0,1-1.3-1.3h0a1.337,1.337,0,0,1,1.3-1.3h18.054a1.337,1.337,0,0,1,1.3,1.3h0a1.276,1.276,0,0,1-1.3,1.3Z" transform="translate(-174.433 -220.02)" fill="#d3c5fe"/>
      <path id="Path_2447" data-name="Path 2447" d="M873.615,307.162H478.693a4.036,4.036,0,0,1-3.993-3.993V233.993A4.036,4.036,0,0,1,478.693,230H873.615a4.036,4.036,0,0,1,3.993,3.993v69.176a4.036,4.036,0,0,1-3.993,3.993Z" transform="translate(-214.969 -196.927)" fill="none" stroke="#fff" stroke-linecap="round" stroke-linejoin="round" stroke-width="1.8"/>
      <path id="Path_2448" data-name="Path 2448" d="M873.615,406.062H478.693a4.036,4.036,0,0,1-3.993-3.993V332.893a4.036,4.036,0,0,1,3.993-3.993H873.615a4.036,4.036,0,0,1,3.993,3.993v69.177a4.036,4.036,0,0,1-3.993,3.993Z" transform="translate(-214.969 -209.985)" fill="none" stroke="#fff" stroke-linecap="round" stroke-linejoin="round" stroke-width="1.8"/>
      <rect id="Rectangle_227" data-name="Rectangle 227" width="8.593" height="43.658" transform="translate(286.29 66.576)" fill="none" stroke="#fff" stroke-linecap="round" stroke-linejoin="round" stroke-width="1.8"/>
      <rect id="Rectangle_228" data-name="Rectangle 228" width="8.94" height="31.767" transform="translate(294.796 78.468)" fill="none" stroke="#fff" stroke-linecap="round" stroke-linejoin="round" stroke-width="1.8"/>
      <rect id="Rectangle_229" data-name="Rectangle 229" width="8.593" height="43.658" transform="translate(545.29 152.331)" fill="none" stroke="#fff" stroke-linecap="round" stroke-linejoin="round" stroke-width="1.8"/>
      <rect id="Rectangle_230" data-name="Rectangle 230" width="8.94" height="31.767" transform="translate(553.796 164.222)" fill="none" stroke="#fff" stroke-linecap="round" stroke-linejoin="round" stroke-width="1.8"/>
      <rect id="Rectangle_231" data-name="Rectangle 231" width="8.593" height="43.658" transform="translate(527.757 152.331)" fill="none" stroke="#fff" stroke-linecap="round" stroke-linejoin="round" stroke-width="1.8"/>
      <rect id="Rectangle_232" data-name="Rectangle 232" width="43.658" height="8.593" transform="translate(506.5 192.959) rotate(-72.48)" fill="none" stroke="#fff" stroke-linecap="round" stroke-linejoin="round" stroke-width="1.8"/>
      <rect id="Rectangle_233" data-name="Rectangle 233" width="8.94" height="31.767" transform="translate(536.35 164.222)" fill="none" stroke="#fff" stroke-linecap="round" stroke-linejoin="round" stroke-width="1.8"/>
      <rect id="Rectangle_234" data-name="Rectangle 234" width="8.593" height="43.658" transform="translate(429.33 66.576)" fill="none" stroke="#fff" stroke-linecap="round" stroke-linejoin="round" stroke-width="1.8"/>
      <rect id="Rectangle_235" data-name="Rectangle 235" width="8.94" height="31.767" transform="translate(437.923 78.468)" fill="none" stroke="#fff" stroke-linecap="round" stroke-linejoin="round" stroke-width="1.8"/>
      <rect id="Rectangle_236" data-name="Rectangle 236" width="8.593" height="43.658" transform="translate(344.531 66.576)" fill="none" stroke="#fff" stroke-linecap="round" stroke-linejoin="round" stroke-width="1.8"/>
      <rect id="Rectangle_237" data-name="Rectangle 237" width="43.658" height="8.593" transform="translate(323.303 107.144) rotate(-72.48)" fill="none" stroke="#fff" stroke-linecap="round" stroke-linejoin="round" stroke-width="1.8"/>
      <rect id="Rectangle_238" data-name="Rectangle 238" width="8.94" height="31.767" transform="translate(353.037 78.468)" fill="none" stroke="#fff" stroke-linecap="round" stroke-linejoin="round" stroke-width="1.8"/>
      <path id="Path_2449" data-name="Path 2449" d="M810.931,272.895l.955-12.933a1.432,1.432,0,0,0-1.475-1.562h-7.464a1.484,1.484,0,0,0-1.476,1.562l.955,12.933s-7.812,5.034-7.725,9.2c.087,3.211,2,18.574,2.864,25.344a3.75,3.75,0,0,0,3.732,3.3h10.763a3.75,3.75,0,0,0,3.732-3.3c.868-6.77,2.777-22.133,2.864-25.344C818.742,277.929,810.931,272.895,810.931,272.895Z" transform="translate(-257.221 -200.677)" fill="#d3c5fe"/>
      <path id="Path_2450" data-name="Path 2450" d="M771.131,272.895l.955-12.933a1.432,1.432,0,0,0-1.476-1.562h-7.464a1.484,1.484,0,0,0-1.476,1.562l.955,12.933s-7.812,5.034-7.725,9.2c.087,3.211,2,18.574,2.864,25.344a3.75,3.75,0,0,0,3.732,3.3h10.763a3.75,3.75,0,0,0,3.732-3.3c.868-6.77,2.777-22.133,2.864-25.344C778.942,277.929,771.131,272.895,771.131,272.895Z" transform="translate(-251.966 -200.677)" fill="#d3c5fe"/>
      <line id="Line_387" data-name="Line 387" x2="829.597" transform="translate(-1.005 278.012)" fill="none" stroke="#fff" stroke-linecap="round" stroke-linejoin="round" stroke-width="1.8"/>
    </g>
    <path id="Path_2452" data-name="Path 2452" d="M272.822,426.1,261.8,580.25a2.283,2.283,0,0,0,2.257,2.43h0a2.2,2.2,0,0,0,2.257-2.083l13.28-154.5Z" transform="translate(-12.86 -41.937)" fill="#b0d7c0"/>
    <path id="Path_2453" data-name="Path 2453" d="M787.57,426.1l11.023,154.15a2.283,2.283,0,0,1-2.257,2.43h0a2.2,2.2,0,0,1-2.257-2.083L780.8,426.1Z" transform="translate(-81.389 -41.937)" fill="#d3c5fe"/>
    <path id="Path_2454" data-name="Path 2454" d="M383.306,205.852s7.725,15.71,13.28,29.858,6.51,27.254,1.128,30.031c-7.551,3.906-15.97,4.166-25.692-14.235S369.592,191.53,383.306,205.852Z" transform="translate(-26.826 -12.467)" fill="#22272e"/>
    <path id="Path_2455" data-name="Path 2455" d="M334.354,535.476c.087,1.042-3.038,18.661-2.864,19.963s-13.28,4.687-19.789-1.128c0,0,.955-23,.955-26.473S333.746,525.754,334.354,535.476Z" transform="translate(-19.449 -55.143)" fill="#f4c2c9"/>
    <path id="Path_2456" data-name="Path 2456" d="M331.471,555.964a50.7,50.7,0,0,0,3.645,10.5c2.17,3.993,14.148,15.189,12.846,19.008s-12.325,4.166-20.831,3.819-12.325-3.3-15.71-9.374-1.128-10.155-.694-21.959c0,0,.26-2,.781-2.344,0,0,1.736,3.038,3.732,3.3s3.993-4.6,8.853-5.121,5.468,4.34,5.989,4.34S331.3,557.353,331.471,555.964Z" transform="translate(-19.17 -58.793)" fill="#9e80fb"/>
    <path id="Path_2457" data-name="Path 2457" d="M341.259,577.68s-6.076-2.6-17.359,1.649" transform="translate(-21.06 -61.848)" fill="none" stroke="#22272e" stroke-linecap="round" stroke-linejoin="round" stroke-width="1.8"/>
    <path id="Path_2458" data-name="Path 2458" d="M338.759,572.18s-6.076-2.6-17.359,1.649" transform="translate(-20.73 -61.121)" fill="none" stroke="#22272e" stroke-linecap="round" stroke-linejoin="round" stroke-width="1.8"/>
    <path id="Path_2459" data-name="Path 2459" d="M384.354,531.976c.087,1.042-3.038,18.661-2.864,19.963s-13.28,4.687-19.79-1.128c0,0,.955-23,.955-26.473S383.833,522.254,384.354,531.976Z" transform="translate(-26.051 -54.681)" fill="#f4c2c9"/>
    <path id="Path_2460" data-name="Path 2460" d="M381.571,552.364a50.7,50.7,0,0,0,3.645,10.5c2.17,3.993,14.148,15.189,12.846,19.008s-12.325,4.166-20.831,3.819-12.325-3.3-15.71-9.374-1.128-10.155-.694-21.959c0,0,.26-2,.781-2.344,0,0,1.736,3.038,3.732,3.3s3.993-4.6,8.853-5.121,5.468,4.34,5.989,4.34S381.4,553.84,381.571,552.364Z" transform="translate(-25.786 -58.317)" fill="#9e80fb"/>
    <path id="Path_2461" data-name="Path 2461" d="M391.259,574.18s-6.076-2.6-17.359,1.649" transform="translate(-27.662 -61.386)" fill="none" stroke="#22272e" stroke-linecap="round" stroke-linejoin="round" stroke-width="1.8"/>
    <path id="Path_2462" data-name="Path 2462" d="M388.859,568.68s-6.076-2.6-17.359,1.649" transform="translate(-27.345 -60.659)" fill="none" stroke="#22272e" stroke-linecap="round" stroke-linejoin="round" stroke-width="1.8"/>
    <path id="Path_2463" data-name="Path 2463" d="M293.033,315.08s-2.6,15.189,4.861,50.863a362.262,362.262,0,0,1,5.381,39.839c3.038,33.85.434,68.4-1.128,82.022-2.257,19.529,7.725,23.261,18.488,24.129s14.755-4.079,15.276-9.548,6.944-78.377,9.374-94.868,2.691-39.058,1.91-42.357,8.593-2.6,4.687-43.4C348.062,280.8,296.158,304.231,293.033,315.08Z" transform="translate(-16.927 -25.092)" fill="#89b2fb"/>
    <path id="Path_2464" data-name="Path 2464" d="M373.177,319.639s13.019,55.723,14.582,73.082-1.649,102.506-1.562,107.627-4.6,9.721-16.231,9.982-16.318-7.464-16.231-11.631c.26-13.887.434-69.177-.434-77.683s-13.54-50.342-16.057-54.334-8.072-34.024,2.864-39.232S368.229,314.431,373.177,319.639Z" transform="translate(-22.339 -27.654)" fill="#89b2fb"/>
    <path id="Path_2465" data-name="Path 2465" d="M349.453,191.382s-22.22-.781-32.549-2.17-29.6-1.476-37.236,14.061,16.057,23.175,15.45,34.2-2.17,29.684-2.17,29.684-2.17,20.918-4.6,28.816,2.17,11.891,4.34,12.585,24.737,5.295,41.836,4.34,31.073-4.861,32.288-8.68-.781-15.016,0-26.733,3.038-32.2,3.038-40.013,3.819-27.6,0-35.76S356.831,191.642,349.453,191.382Z" transform="translate(-15.02 -10.583)" fill="#9e80fb"/>
    <path id="Path_2466" data-name="Path 2466" d="M325.723,181.189s-3.559.521-4.774,2.864A14.86,14.86,0,0,0,319.3,191c.087,2.777,4.253,10.416,16.318,11.8s16.4-4.513,16.925-6.77-.347-8.332-1.215-9.374-2.083-2.257-6.423-2.777C340.652,183.186,327.112,180.669,325.723,181.189Z" transform="translate(-20.453 -9.59)" fill="#212023"/>
    <path id="Path_2467" data-name="Path 2467" d="M346.8,239.555a59.655,59.655,0,0,0,5.381-6.51c1.823-2.777,4.253-5.815,6.249-6.944s6.163-1.91,7.291-2.517,2.43,1.562,0,3.559-1.389,7.812-4.774,10.936S348.015,243.113,346.8,239.555Z" transform="translate(-24.084 -15.184)" fill="#b28d93"/>
    <path id="Path_2468" data-name="Path 2468" d="M374.09,182.364l43.832-2.864a2.057,2.057,0,0,1,2.17,2.343l-10.763,66.139a3.316,3.316,0,0,1-2.864,2.778l-41.923,5.729a2.118,2.118,0,0,1-2.344-2.257l8.853-68.916a3.125,3.125,0,0,1,3.038-2.951Z" transform="translate(-26.116 -9.376)" fill="#3e3c43"/>
    <path id="Path_2469" data-name="Path 2469" d="M408.919,182.379l-16.578.868a1.024,1.024,0,0,1-1.042-1.128l.26-1.736a1.389,1.389,0,0,1,1.3-1.215l16.578-.868a1.024,1.024,0,0,1,1.042,1.128l-.26,1.736A1.476,1.476,0,0,1,408.919,182.379Z" transform="translate(-29.959 -9.218)" fill="#9e80fb"/>
    <path id="Path_2470" data-name="Path 2470" d="M295.9,252.46s5.468-21.959,6.857-30.379-3.906-17.793-12.065-19.876c-9.548-2.343-12.5,2.691-12.5,2.691s-3.819,6.683-7.638,27.688-5.989,40.534,7.638,45.308,41.575-10.763,50.515-17.446,12.238-9.461,13.974-9.895,8.593,1.389,12.238-2.691,6.77-7.291,7.117-7.291,9.027,1.3,10.5.174c1.649-1.3-.781-2.6-2.517-2.864a68.632,68.632,0,0,1-6.683-1.91s3.906-1.215,6.683-2.257,5.642-1.649,5.468-3.125-1.91-1.3-3.645-1.389a18.8,18.8,0,0,0-4.079.434s4.774-1.3,5.989-2.691.174-2.6-2.344-2.343a38.184,38.184,0,0,0-4.774.868s4.861-.434,4.513-2.6c-.26-1.476-4.6-.694-7.464-.347a84.787,84.787,0,0,0-9.634,1.823,31.525,31.525,0,0,0-5.295,1.736c-3.038,1.476-10.676,8.766-11.891,10.242s-16.491,3.906-28.99,6.683-19.789,5.034-23.609,8.593Z" transform="translate(-13.636 -12.292)" fill="#b28d93"/>
    <path id="Path_2471" data-name="Path 2471" d="M376.229,225.6a84.787,84.787,0,0,0-9.634,1.823,31.522,31.522,0,0,0-5.294,1.736" transform="translate(-25.998 -15.464)" fill="none" stroke="#896068" stroke-linecap="round" stroke-linejoin="round" stroke-width="1.8"/>
    <path id="Path_2472" data-name="Path 2472" d="M339.5,252.46c-2.17,1.562-5.468,4.166-10.676,7.985-8.94,6.6-36.888,22.133-50.515,17.446s-11.37-24.3-7.638-45.308S278.3,204.9,278.3,204.9s2.951-5.034,12.5-2.691c8.072,2,13.453,11.37,12.065,19.876-.868,5.295-3.385,16.057-5.121,23.261,3.038-.868,6.51-1.649,10.5-2.517,8.853-1.91,19.182-3.732,24.824-5.121a14.7,14.7,0,0,0,.955,9.374C336.023,251.592,339.5,252.46,339.5,252.46Z" transform="translate(-13.654 -12.292)" fill="#212023"/>
    <path id="Path_2473" data-name="Path 2473" d="M270.1,279.371s-.174-4.687,5.555-4.079,20.571,5.989,16.318,12.325" transform="translate(-13.956 -22.018)" fill="none" stroke="#494555" stroke-linecap="round" stroke-linejoin="round" stroke-width="1.8"/>
    <path id="Path_2474" data-name="Path 2474" d="M334.945,245a16.717,16.717,0,0,0,1.042,10.155,18,18,0,0,0,6.6,7.464" transform="translate(-22.471 -18.025)" fill="none" stroke="#494555" stroke-linecap="round" stroke-linejoin="round" stroke-width="1.8"/>
    <path id="Path_2475" data-name="Path 2475" d="M325.751,165.389s-.26,11.11-.955,18.054,12.238,9.808,18.488,8.593,7.2-3.125,7.2-3.125-.521-9.374,0-12.759S325.837,161.744,325.751,165.389Z" transform="translate(-21.175 -7.417)" fill="#b28d93"/>
    <path id="Path_2476" data-name="Path 2476" d="M352.072,187.627c-.087-1.389-.087-3.211-.087-5.034-5.295.26-9.982-4.6-13.8-8.593C337.143,182.332,344.347,187.714,352.072,187.627Z" transform="translate(-22.933 -8.65)" fill="#896068"/>
    <path id="Path_2477" data-name="Path 2477" d="M365.226,144.185s4.34-2.257,5.642-9.374-.26-17.706-5.121-18.922-1.476,13.714-4.774,16.491S365.226,140.279,365.226,144.185Z" transform="translate(-25.845 -0.968)" fill="#22272e"/>
    <path id="Path_2478" data-name="Path 2478" d="M359.91,132.916a54.306,54.306,0,0,1,.955,14.755c-.521,8.853,1.215,23.782-8.419,28.122s-22.393-.174-27.6-14.408S319.55,133,327.535,126.927,357.046,121.632,359.91,132.916Z" transform="translate(-20.703 -1.938)" fill="#b28d93"/>
    <path id="Path_2479" data-name="Path 2479" d="M324.716,148.077s2.951-.955,3.038-6.249,2.864-9.808,8.593-8.246,13.714,5.989,18.4,5.9c5.555-.174,7.291-6.163,7.725-13.54s-2-11.978-4.861-11.2-5.295,3.211-8.853-1.3c-4.861-6.076-9.2-5.9-12.672-3.038-6.076,5.121-4.687,7.812-10.242,5.642-3.211-1.3-5.468-.955-7.031,5.034s-.955,7.638-4.687,7.117-1.389,19.269,4.687,23.7C318.9,151.9,323.588,147.643,324.716,148.077Z" transform="translate(-19.533)" fill="#22272e"/>
    <path id="Path_2480" data-name="Path 2480" d="M360.776,155.8c.347.955.521,1.91.781,2.777s.521,1.823.781,2.517a4.6,4.6,0,0,1,.434,1.649,2.439,2.439,0,0,1-.521,1.736,3.316,3.316,0,0,1-2.951,1.128,4.722,4.722,0,0,0,1.91-1.736,2.37,2.37,0,0,0-.347-2.083,7.6,7.6,0,0,1-.608-3.038,16.115,16.115,0,0,1,.521-2.951Z" transform="translate(-25.734 -6.247)" fill="#22272e"/>
    <path id="Path_2481" data-name="Path 2481" d="M349.9,146.614a1.042,1.042,0,0,0,1.128-1.389c-.26-.781-.434-1.476-1.3-1.649a11.492,11.492,0,0,0-8.072,1.649c-2.344,1.736-.087,2.083,2.864,1.476A18.869,18.869,0,0,1,349.9,146.614Z" transform="translate(-23.276 -4.613)" fill="#22272e"/>
    <path id="Path_2483" data-name="Path 2483" d="M351.8,173.579a7.7,7.7,0,0,1-5.9-4.079" transform="translate(-23.965 -8.056)" fill="none" stroke="#22272e" stroke-linecap="round" stroke-linejoin="round" stroke-width="1.8"/>
    <path id="Path_2484" data-name="Path 2484" d="M347.988,160.118h0a1.458,1.458,0,0,0,1.562-1.389l.087-.868a1.458,1.458,0,0,0-1.389-1.562h0a1.458,1.458,0,0,0-1.562,1.389l-.087.868a1.415,1.415,0,0,0,1.389,1.562Z" transform="translate(-24.056 -6.313)" fill="#22272e"/>
    <path id="Path_2485" data-name="Path 2485" d="M362.789,160.418h0a1.458,1.458,0,0,0,1.562-1.389l.087-.868a1.458,1.458,0,0,0-1.389-1.562h0a1.458,1.458,0,0,0-1.562,1.389l-.087.868a1.588,1.588,0,0,0,1.389,1.562Z" transform="translate(-26.012 -6.352)" fill="#22272e"/>
    <path id="Path_2486" data-name="Path 2486" d="M324.882,153.883s-2.517-4.34-5.9-3.211-3.3,6.336-1.649,9.461a9.548,9.548,0,0,0,9.374,4.774" transform="translate(-20.046 -5.545)" fill="#b28d93"/>
    <path id="Path_2487" data-name="Path 2487" d="M319.269,157.6a2.474,2.474,0,0,1-.174-1.389,1.563,1.563,0,0,1,.347-.781A1.4,1.4,0,0,1,320.4,155a2.031,2.031,0,0,1,1.562.694,6.162,6.162,0,0,1,.868,1.215,14.886,14.886,0,0,1,.868,2.257,3.124,3.124,0,0,0,.434.781c.174.174.608.174,1.042.174a1.371,1.371,0,0,1-1.3.608,2.873,2.873,0,0,1-1.3-.868,18.881,18.881,0,0,1-1.215-2.17c-.347-.694-.694-1.215-1.042-1.3-.087,0-.174-.087-.26,0s-.174.087-.26.26A7.866,7.866,0,0,0,319.269,157.6Z" transform="translate(-20.421 -6.142)" fill="#22272e"/>
    <path id="Path_2488" data-name="Path 2488" d="M377.747,241.209a19.355,19.355,0,0,0-2.864-.521,6.786,6.786,0,0,0-2.083,0" transform="translate(-27.517 -17.445)" fill="none" stroke="#896068" stroke-linecap="round" stroke-linejoin="round" stroke-width="1.8"/>
    <path id="Path_2489" data-name="Path 2489" d="M381.634,233.8s-8.853,1.91-9.634,2.517" transform="translate(-27.411 -16.546)" fill="none" stroke="#896068" stroke-linecap="round" stroke-linejoin="round" stroke-width="1.8"/>
    <path id="Path_2490" data-name="Path 2490" d="M380.434,229s-6.076,1.3-6.423,1.389c-1.128.347-3.211.955-3.211.955" transform="translate(-27.253 -15.913)" fill="none" stroke="#896068" stroke-linecap="round" stroke-linejoin="round" stroke-width="1.8"/>
    <path id="Path_2491" data-name="Path 2491" d="M302.3,355.8s10.155-4.34,10.155-19.1" transform="translate(-18.208 -30.133)" fill="none" stroke="#22272e" stroke-linecap="round" stroke-linejoin="round" stroke-width="1.8"/>
    <path id="Path_2492" data-name="Path 2492" d="M189.333,497.887l-5.034,104.5a2.031,2.031,0,0,0,2.083,2.17h0a2.083,2.083,0,0,0,2.083-1.909l8.766-104.85h-7.9Z" transform="translate(-2.627 -51.405)" fill="#d3c5fe"/>
    <path id="Path_2493" data-name="Path 2493" d="M246,497.887l5.034,104.5a2.031,2.031,0,0,1-2.083,2.17h0a2.083,2.083,0,0,1-2.083-1.909L238.1,497.8H246Z" transform="translate(-9.731 -51.405)" fill="#d3c5fe"/>
    <path id="Path_2494" data-name="Path 2494" d="M227.9,474.134l-.087,104.589a2.074,2.074,0,0,1-2.17,2.083h0a2.222,2.222,0,0,1-2-2L220,473.7Z" transform="translate(-7.341 -48.222)" fill="#d3c5fe"/>
    <path id="Path_2495" data-name="Path 2495" d="M239.739,485.922a217.96,217.96,0,0,0-29.511-1.823,218.914,218.914,0,0,0-29.511,1.823H164.4v5.9c0,4.253,20.484,7.725,45.828,7.725s45.828-3.472,45.828-7.725v-5.9Z" transform="translate(0 -49.595)" fill="#212023" stroke="#212023" stroke-width="1"/>
    <ellipse id="Ellipse_357" data-name="Ellipse 357" cx="45.828" cy="7.725" rx="45.828" ry="7.725" transform="translate(164.4 428.602)" fill="#212023"/>
    <path id="Path_2496" data-name="Path 2496" d="M253.87,579.4s-1.128,8.332-2.691,10.849-4.166,8.766-4.079,10.242c.26,2.691,8.593,9.548,13.453,13.714s8.853,4.34,17.88,5.034,12.672-.694,12.672-3.472-1.823-4.079-5.815-8.68-10.242-11.11-12.325-14.842,2.083-9.374,3.993-12.846S257.862,569.6,253.87,579.4Z" transform="translate(-10.919 -61.488)" fill="#22272e"/>
    <path id="Path_2497" data-name="Path 2497" d="M277.658,579.4c-1.823,3.472-5.989,9.114-3.993,12.846.174.347.434.694.608,1.042a7.212,7.212,0,0,0-5.9-2.951c-4.166,0-6.423,4.861-9.634,2.517-2.083-1.562-4.774-3.3-6.336-4.253a58.218,58.218,0,0,0,2-9.287C258.563,569.592,279.567,575.929,277.658,579.4Z" transform="translate(-11.619 -61.485)" fill="#f4c2c9"/>
    <path id="Path_2498" data-name="Path 2498" d="M247.376,416.859s3.645,8.853,5.468,11.37,46.523,6.857,51.3,25-23.522,94.695-26.56,101.9-3.472,13.54-13.714,12.5-18.488-7.638-16.491-14.842,9.808-26.386,13.019-49.387,14.842-27.862-5.989-34.892S217,463.729,222.726,444.287,243.383,414.776,247.376,416.859Z" transform="translate(-7.55 -40.682)" fill="#9e80fb"/>
    <path id="Path_2499" data-name="Path 2499" d="M288.479,593.513s3.645,13.019,3.645,14.408-2.344,12.585-1.823,15.884,5.034,5.121,11.023,10.589c6.423,5.989,11.631,5.642,19.529,5.034,6.77-.521,15.8-3.819,16.752-6.51s-.087-4.6-5.468-7.464c-4.774-2.6-16.752-15.884-17.359-17.359s-4.253-20.831-4.427-22.654S286.309,588.566,288.479,593.513Z" transform="translate(-16.365 -62.926)" fill="#22272e"/>
    <path id="Path_2500" data-name="Path 2500" d="M314.17,606.255c-1.823-2.257-4.427-4.166-7.9-2.083-3.645,2.17-3.993,6.857-5.9,7.117s-2.083-2.43-4.6-3.211a9.322,9.322,0,0,1-4.079-2.43c-.955-4.079-3.211-12.238-3.211-12.238-2.17-4.947,21.7-9.982,21.786-8.072C310.438,586.986,313.042,601.047,314.17,606.255Z" transform="translate(-16.365 -62.908)" fill="#f4c2c9"/>
    <path id="Path_2501" data-name="Path 2501" d="M322.767,620.349s-4.513-1.736-13.367,2.691" transform="translate(-19.146 -67.541)" fill="none" stroke="#fff" stroke-linecap="round" stroke-linejoin="round" stroke-width="1.8"/>
    <path id="Path_2502" data-name="Path 2502" d="M329.637,626.749s-6.683-1.736-15.536,2.691" transform="translate(-19.766 -68.387)" fill="none" stroke="#fff" stroke-linecap="round" stroke-linejoin="round" stroke-width="1.8"/>
    <path id="Path_2503" data-name="Path 2503" d="M179.437,415.158s-4.166,10.936-6.683,17.793-5.729,20.918,1.476,32.288,21.091,13.367,43.4,16.144c22.046,2.691,26.82,4.427,26.82,4.427a395.205,395.205,0,0,0,13.193,44.526c8.159,22.046,11.2,34.892,11.544,38.017s2,6.162,7.464,7.464,19.7-1.823,20.657-8.159-5.208-25.692-9.2-51.383-5.815-47.217-13.367-57.2-37.322-11.023-37.322-13.887S193.932,408.215,179.437,415.158Z" transform="translate(-0.715 -40.37)" fill="#9e80fb"/>
    <path id="Path_2504" data-name="Path 2504" d="M295.767,520.273c-3.993-25.692-5.815-47.217-13.367-57.2s-35.847-12.759-37.322-13.887A31.351,31.351,0,0,0,228.5,444.5" transform="translate(-8.464 -44.367)" fill="none" stroke="#22272e" stroke-linecap="round" stroke-linejoin="round" stroke-width="1.8"/>
    <path id="Path_2505" data-name="Path 2505" d="M247.6,448.9s.694-4.513,0-6.6" transform="translate(-10.986 -44.076)" fill="none" stroke="#22272e" stroke-linecap="round" stroke-linejoin="round" stroke-width="1.8"/>
    <path id="Path_2506" data-name="Path 2506" d="M174.9,451.357s14.495-.26,17.706-16.057" transform="translate(-1.386 -43.152)" fill="none" stroke="#22272e" stroke-linecap="round" stroke-linejoin="round" stroke-width="1.8"/>
    <path id="Path_2507" data-name="Path 2507" d="M255.7,495.631a9.547,9.547,0,0,1,3.3-7.03" transform="translate(-12.055 -50.19)" fill="none" stroke="#22272e" stroke-linecap="round" stroke-linejoin="round" stroke-width="1.8"/>
    <path id="Path_2508" data-name="Path 2508" d="M287.6,610.418s-1.823-4.947-16.4-.955" transform="translate(-14.102 -65.943)" fill="none" stroke="#fff" stroke-linecap="round" stroke-linejoin="round" stroke-width="1.8"/>
    <path id="Path_2509" data-name="Path 2509" d="M279.719,601.6s-1.389-3.646-13.019,1.3" transform="translate(-13.508 -64.94)" fill="none" stroke="#fff" stroke-linecap="round" stroke-linejoin="round" stroke-width="1.8"/>
    <g id="img3-cuadroazul">
      <path id="Path_2510" data-name="Path 2510" d="M670.427,221.564,553.6,216.791c-2.517-.087-4.253-2.43-3.906-5.295l9.548-70.218a6.076,6.076,0,0,1,5.295-5.208L681.363,131.3a4.7,4.7,0,0,1,5.121,5.381l-9.548,79.245a6.345,6.345,0,0,1-6.51,5.642Z" transform="translate(-50.868 -3.009)" fill="#2159bc"/>
      <path id="Path_2511" data-name="Path 2511" d="M668.127,219.864,551.3,215.091c-2.517-.087-4.253-2.43-3.906-5.295l9.548-70.218a6.076,6.076,0,0,1,5.295-5.208L679.063,129.6a4.7,4.7,0,0,1,5.121,5.381l-9.548,79.245a6.406,6.406,0,0,1-6.51,5.642Z" transform="translate(-50.564 -2.784)" fill="#89b2fb"/>
      <line id="Line_389" data-name="Line 389" x2="30.899" transform="translate(524.777 171.773)" fill="none" stroke="#47608b" stroke-linecap="round" stroke-linejoin="round" stroke-width="1.8"/>
      <path id="Path_2512" data-name="Path 2512" d="M608.246,202.976l-16.665-.434a4.236,4.236,0,0,1-3.993-5.034l5.295-39.839a5.815,5.815,0,0,1,5.295-5.034l16.665-.434" transform="translate(-55.867 -5.772)" fill="none" stroke="#47608b" stroke-linecap="round" stroke-linejoin="round" stroke-width="1.8"/>
      <path id="Path_2513" data-name="Path 2513" d="M636.788,155.955l-19.355.347a1.736,1.736,0,0,1-1.736-2l.781-5.815a2.4,2.4,0,0,1,2.257-2.083l19.356-.608a1.779,1.779,0,0,1,1.823,2l-.781,5.9a2.5,2.5,0,0,1-2.344,2.257Z" transform="translate(-59.586 -4.927)" fill="#9e80fb"/>
      <path id="Path_2514" data-name="Path 2514" d="M674.963,185.789l-20.744-.087a1.84,1.84,0,0,1-1.823-2.17l.781-6.076a2.491,2.491,0,0,1,2.344-2.17l20.744-.087a1.857,1.857,0,0,1,1.909,2.17l-.781,6.163A2.448,2.448,0,0,1,674.963,185.789Z" transform="translate(-64.43 -8.809)" fill="#9e80fb"/>
      <path id="Path_2515" data-name="Path 2515" d="M629.288,215.5l-19.355-.521A1.788,1.788,0,0,1,608.2,212.9l.781-5.9a2.248,2.248,0,0,1,2.257-2l19.355.347a1.883,1.883,0,0,1,1.823,2.17l-.781,5.989a2.413,2.413,0,0,1-2.343,2Z" transform="translate(-58.595 -12.744)" fill="#9e80fb"/>
      <line id="Line_390" data-name="Line 390" x2="11.717" transform="translate(576.682 171.686)" fill="none" stroke="#47608b" stroke-linecap="round" stroke-linejoin="round" stroke-width="1.8"/>
      <path id="Path_2516" data-name="Path 2516" d="M633.088,185.655l-19.356-.087A1.788,1.788,0,0,1,612,183.485l.781-5.815a2.4,2.4,0,0,1,2.257-2.083l19.356-.087a1.849,1.849,0,0,1,1.823,2.083l-.781,5.989A2.491,2.491,0,0,1,633.088,185.655Z" transform="translate(-59.097 -8.848)" fill="#f5ea5c"/>
      <path id="Path_2517" data-name="Path 2517" d="M577.967,180.529c.434-3.211-1.649-5.729-4.6-5.729s-5.642,2.6-6.076,5.729,1.562,5.729,4.513,5.729a6.562,6.562,0,0,0,6.163-5.729Z" transform="translate(-53.189 -8.756)" fill="#9e80fb"/>
    </g>
    <path id="Path_2518" data-name="Path 2518" d="M662.528,478.442v5.9c0,3.819-19.182,6.944-42.964,6.944s-42.964-3.125-42.964-6.944v-5.9h20.224a248.774,248.774,0,0,1,45.481,0Z" transform="translate(-54.426 -48.711)" fill="#212023" stroke="#212023" stroke-width="1"/>
    <ellipse id="Ellipse_358" data-name="Ellipse 358" cx="42.964" cy="6.944" rx="42.964" ry="6.944" transform="translate(522.174 422.787)" fill="#212023"/>
    <path id="Path_2519" data-name="Path 2519" d="M625.8,556.745h0a1.962,1.962,0,0,1-2-2V486.7h4.079v68.048A2.04,2.04,0,0,1,625.8,556.745Z" transform="translate(-60.659 -49.939)" fill="#212023" stroke="#212023" stroke-width="1"/>
    <path id="Path_2520" data-name="Path 2520" d="M621.373,564.9s-23.609,1.736-31.073,17.446" transform="translate(-56.235 -60.264)" fill="none" stroke="#22272e" stroke-linecap="round" stroke-linejoin="round" stroke-width="4"/>
    <path id="Path_2521" data-name="Path 2521" d="M656.428,582.346c-7.551-15.71-31.073-17.446-31.073-17.446s-3.906,3.038-5.555,21" transform="translate(-60.131 -60.264)" fill="#212023" stroke="#212023" stroke-linecap="round" stroke-linejoin="round" stroke-width="4"/>
    <circle id="Ellipse_359" data-name="Ellipse 359" cx="6.336" cy="6.336" r="6.336" transform="translate(553.238 521.248)" fill="#9e80fb"/>
    <circle id="Ellipse_360" data-name="Ellipse 360" cx="6.336" cy="6.336" r="6.336" transform="translate(589.918 517.03)" fill="#9e80fb"/>
    <circle id="Ellipse_361" data-name="Ellipse 361" cx="6.336" cy="6.336" r="6.336" transform="translate(527.72 516.995)" fill="none" stroke="#22272e" stroke-linecap="round" stroke-linejoin="round" stroke-width="1.8"/>
    <path id="Path_2522" data-name="Path 2522" d="M640.243,403.818c4.166,9.982,11.544,26.039,11.457,44.092,0,21.873-26.473,30.813-29.163,34.284s-57.806,7.291-63.448-3.732-5.295-22.654,9.808-50.515c10.068-18.661,8.766-23.869,8.853-24.129,0,0,1.389,1.476,2-4.34S637.726,397.916,640.243,403.818Z" transform="translate(-51.671 -38.056)" fill="#22272e"/>
    <path id="Path_2523" data-name="Path 2523" d="M569.976,464.746c-5.381.868-14.408,3.732-15.363,18.054s10.5,69.871,10.676,79.679-.781,10.242-7.464,16.231-19.963,12.5-18.835,17.1,16.318,8.506,26.3,6.683,12.238-13.193,14.148-14.148,3.125-4.513,3.385-6.77,7.291-81.935,7.985-93.653C591.762,473.426,585.773,462.229,569.976,464.746Z" transform="translate(-49.452 -46.993)" fill="#f4c2c9"/>
    <path id="Path_2524" data-name="Path 2524" d="M583.53,591.6c-.347,3.819-.608,6.249-.608,6.683-.26,2.344-1.476,5.815-3.385,6.77s-4.079,12.325-14.148,14.148-25.258-2.083-26.3-6.683c-.868-3.559,7.03-8.332,13.714-13.106-.174.174-2.083,2.083,0,2.517s6.076-1.215,13.54,2.951,9.634-2.344,11.11-6.77C578.756,594.378,581.36,595.593,583.53,591.6Z" transform="translate(-49.465 -63.79)" fill="#22272e"/>
    <path id="Path_2525" data-name="Path 2525" d="M599.441,467.4c-6.51,4.34-9.114,9.634-10.329,29.6-1.649,27.428-4.6,70.565-5.989,75.165S580,578.85,578.349,583.45s-15.623,17.88-14.755,22.914,8.853,10.068,13.887,11.717,11.023,2.344,14.669,0,5.468-17.012,6.423-20.484a73.793,73.793,0,0,0,2.864-12.238c.868-6.162,7.2-33.937,9.895-41.923s14.755-46.783,15.1-61.972C626.608,466.276,608.989,461.155,599.441,467.4Z" transform="translate(-52.704 -47.047)" fill="#f4c2c9"/>
    <path id="Path_2526" data-name="Path 2526" d="M601.691,467.8c-6.51,4.34-9.114,9.634-10.329,29.6-1.649,27.428-4.6,70.565-5.989,75.165s-3.125,6.683-4.774,11.283" transform="translate(-54.955 -47.443)" fill="none" stroke="#e26e85" stroke-linecap="round" stroke-linejoin="round" stroke-width="1.8"/>
    <path id="Path_2527" data-name="Path 2527" d="M602.406,597.4a48.794,48.794,0,0,0-.955,5.468c-.781,6.076-1.91,8.68-2.864,12.238s-2.691,18.227-6.336,20.484-9.634,1.649-14.669,0-13.019-6.683-13.887-11.631c-.608-3.645,6.51-11.544,11.11-17.446-.26.347-3.559,5.295,2.344,9.634,5.121,3.819,14.669,6.163,17.1.434s3.732-11.11,4.861-12.846A19.557,19.557,0,0,0,602.406,597.4Z" transform="translate(-52.718 -64.556)" fill="#22272e"/>
    <ellipse id="Ellipse_362" data-name="Ellipse 362" cx="3.559" cy="4.774" rx="3.559" ry="4.774" transform="translate(522.18 554.701) rotate(-69.83)" fill="#fff"/>
    <path id="Path_2528" data-name="Path 2528" d="M564.736,604.883c-.26,1.823-2.517,2.951-4.947,2.6s-4.253-2.17-3.993-3.993,2.517-2.951,4.947-2.6S565,603.06,564.736,604.883Z" transform="translate(-51.676 -65.008)" fill="#fff"/>
    <path id="Path_2529" data-name="Path 2529" d="M577.6,321.3s-11.8.174-19.789,17.793-20.657,42.443-18.835,52.946,26.039,0,37.5-19.7S586.8,321.821,577.6,321.3Z" transform="translate(-49.435 -28.1)" fill="#9e80fb"/>
    <path id="Path_2530" data-name="Path 2530" d="M592.144,276.573s-5.989-.347-7.9-8.072,5.989-17.359,13.28-19.7,9.114,2.17,13.887,2.691,17.533-.868,22.654,10.5-3.385,22.133,3.125,30.639,11.978,24.3-7.2,31.073-41.228,1.476-48.085-10.763,6.336-19.442,8.332-25.778C592.4,280.913,593.359,279.35,592.144,276.573Z" transform="translate(-54.868 -18.438)" fill="#22272e"/>
    <path id="Path_2531" data-name="Path 2531" d="M610.372,316.1s-17.706-.174-27.341,3.472c-2.864,1.042-5.294,2.864-5.989,11.891-.608,8.159-1.042,8.072-3.3,12.065-3.559,6.423-5.034,13.8,1.823,25.778,4.427,7.812,3.038,22.48,2.344,29.858s.174,10.676,14.495,14.321,45.047,0,48.519-3.472,5.034-37.843,4.34-44.526,12.151-24.477,11.2-31.507S647.174,317.315,610.372,316.1Z" transform="translate(-53.654 -27.413)" fill="#89b2fb"/>
    <path id="Path_2532" data-name="Path 2532" d="M603.464,314.334s-7.985.347-10.589,3.038c-1.823,1.91-.347,3.125,1.823,4.774,1.476,1.128-3.732,4.079-1.042,7.464,2,2.517,6.51-.608,8.246,1.736,2,2.777,2.344,3.819,5.381,3.906,3.819.087,4.166-3.993,7.03-3.559,3.472.521,4.253,1.736,6.77,1.476,3.906-.434,3.993-4.34,3.472-6.683s.868-2.43,3.906-3.3,3.645-6.77-7.551-8.419S603.464,314.334,603.464,314.334Z" transform="translate(-56.467 -27.123)" fill="#fff"/>
    <path id="Path_2533" data-name="Path 2533" d="M624.532,296.232a92.573,92.573,0,0,0-1.649,18.14,13.2,13.2,0,0,1-13.453,8.506c-9.721-.521-7.464-8.332-7.464-8.332s2.344-8.68,2.43-10.936S622.1,293.888,624.532,296.232Z" transform="translate(-57.746 -24.73)" fill="#f4c2c9"/>
    <path id="Path_2534" data-name="Path 2534" d="M616.829,307.7c-4.166,2.777-9.027,4.427-13.627,4.079l-1.128,4.34s-.087.434-.174,1.128C608.67,317.074,614.746,314.036,616.829,307.7Z" transform="translate(-57.767 -26.304)" fill="#e26e85"/>
    <path id="Path_2535" data-name="Path 2535" d="M592.495,269.584a81.147,81.147,0,0,1-.955,14.408c-1.215,7.464.087,19.269,8.159,22.046,11.2,3.819,22.827-3.819,25.692-14.929s4.34-24.737-9.895-28.816S593.276,264.116,592.495,269.584Z" transform="translate(-56.347 -20.129)" fill="#f4c2c9"/>
    <path id="Path_2536" data-name="Path 2536" d="M592.153,272.437s-.608-2.691,1.91-3.211a36.04,36.04,0,0,0,7.2-2.691c1.649-.781,3.732-.521,5.381,3.125,3.646,7.812,8.246,19.529,17.793,16.231,0,0,3.646.781,4.687-5.295s.608-14.235-9.982-19.182-22.741-1.562-25,.955C590.677,266.275,592.153,272.437,592.153,272.437Z" transform="translate(-56.439 -19.858)" fill="#22272e"/>
    <path id="Path_2537" data-name="Path 2537" d="M624.7,290.908s3.906-5.381,7.551-2.257-1.389,11.023-6.423,10.763" transform="translate(-60.777 -23.66)" fill="#f4c2c9"/>
    <path id="Path_2538" data-name="Path 2538" d="M630.513,301.372c0-1.215-1.042-3.472-2.257-3.472S626,300.157,626,301.372a2.3,2.3,0,0,0,2.257,2.257,2.239,2.239,0,0,0,2.257-2.257Z" transform="translate(-60.949 -25.01)" fill="#ffe779"/>
    <path id="Path_2539" data-name="Path 2539" d="M631.266,292.736c-.347-.174-.608-.434-.868-.521a.5.5,0,0,0-.608,0c-.087,0-.087.087-.174.174s-.174.174-.174.26a5.536,5.536,0,0,0-.174.608c-.087.521,0,1.215-.174,2a1.736,1.736,0,0,1-.781,1.128,1.476,1.476,0,0,1-1.215,0c.347-.174.608-.347.694-.608a1.736,1.736,0,0,0,.087-.694,13.458,13.458,0,0,1-.087-2,2.084,2.084,0,0,1,.521-1.3l.521-.521a2.759,2.759,0,0,1,.781-.26,1.345,1.345,0,0,1,1.215.694A1.371,1.371,0,0,1,631.266,292.736Z" transform="translate(-61.094 -24.099)" fill="#22272e"/>
    <path id="Path_2540" data-name="Path 2540" d="M595.7,286.9a4.131,4.131,0,0,1,.174,2.517,4.922,4.922,0,0,1-1.128,2.344c-.174.26-.26.26-.26.521a2,2,0,0,0,.26.781,5.269,5.269,0,0,0,.608.868c.26.26.521.608.868.694a1.736,1.736,0,0,1-1.3-.087,4.922,4.922,0,0,1-1.128-.694,2.361,2.361,0,0,1-.694-1.389v-.434a3.751,3.751,0,0,1,.087-.434c.087-.174.087-.26.174-.434a1.2,1.2,0,0,1,.26-.347A13.8,13.8,0,0,0,595.7,286.9Z" transform="translate(-56.605 -23.558)" fill="#22272e"/>
    <path id="Path_2541" data-name="Path 2541" d="M600.6,300.862a7.811,7.811,0,0,0,5.555-1.562" transform="translate(-57.595 -25.195)" fill="none" stroke="#22272e" stroke-linecap="round" stroke-linejoin="round" stroke-width="1.8"/>
    <path id="Path_2542" data-name="Path 2542" d="M604.894,278.948a2.144,2.144,0,0,1,.347-1.649c.694-.868,2.951-.955,4.687.174s2.43,2.691,1.909,2.864c-.781.26-1.562-.781-3.385-.955S605.241,279.9,604.894,278.948Z" transform="translate(-58.157 -22.202)" fill="#22272e"/>
    <path id="Path_2543" data-name="Path 2543" d="M594.309,278.6a.677.677,0,0,0,.868-.608,2.854,2.854,0,0,0-.173-1.736c-.521-.781-1.91.087-2.344.694s-.26,1.649,0,1.649A4.964,4.964,0,0,1,594.309,278.6Z" transform="translate(-56.512 -22.111)" fill="#22272e"/>
    <path id="Path_2544" data-name="Path 2544" d="M606.728,288.224h0a1.189,1.189,0,0,0,1.3-1.128l.087-.694a1.189,1.189,0,0,0-1.128-1.3h0a1.189,1.189,0,0,0-1.3,1.128l-.087.694a1.189,1.189,0,0,0,1.128,1.3Z" transform="translate(-58.255 -23.319)" fill="#22272e"/>
    <path id="Path_2545" data-name="Path 2545" d="M593.828,287.224h0a1.189,1.189,0,0,0,1.3-1.128l.087-.694a1.189,1.189,0,0,0-1.128-1.3h0a1.189,1.189,0,0,0-1.3,1.128l-.087.694a1.311,1.311,0,0,0,1.128,1.3Z" transform="translate(-56.552 -23.187)" fill="#22272e"/>
    <path id="Path_2546" data-name="Path 2546" d="M456.2,443.387l5.034,117.7a2.2,2.2,0,0,1-2.083,2.43h0a2.257,2.257,0,0,1-2.083-2.17L448.3,443.3h7.9Z" transform="translate(-37.486 -44.208)" fill="#d3c5fe"/>
    <path id="Path_2547" data-name="Path 2547" d="M468.751,427.5l4.774,111.967a2.118,2.118,0,0,1-2,2.344h0a2.074,2.074,0,0,1-2-2L461.2,427.5Z" transform="translate(-39.189 -42.122)" fill="#d3c5fe"/>
    <path id="Path_2548" data-name="Path 2548" d="M364.091,443.5l-15.8,116.741a2.239,2.239,0,0,0,1.823,2.6h0a2.231,2.231,0,0,0,2.257-1.91L371.9,444.194Z" transform="translate(-24.277 -44.235)" fill="#b0d7c0"/>
    <path id="Path_2549" data-name="Path 2549" d="M476.651,299.468s5.121,2.344.694,22.914-12.585,47.825-11.457,78.637-19.1,43.572-52.164,41.228,18.835-95.736,18.835-95.736S469.794,291.048,476.651,299.468Z" transform="translate(-31.465 -25.102)" fill="#d3c5fe"/>
    <path id="Path_2550" data-name="Path 2550" d="M381.526,304.724c.868-3.819,2.691-9.982,9.548-12.5s78.9-1.3,79.852,7.638-17.88,50.6-17.793,80.46,5.381,54.595-29.771,59.542-72.822-2.343-69-14.321,15.45-28.035,19.008-60.931S378.315,319.479,381.526,304.724Z" transform="translate(-25.047 -24.109)" fill="#fff"/>
    <path id="Path_2551" data-name="Path 2551" d="M362.752,414.5S336.28,447.653,335.5,458.676s43.485,10.589,43.572,8.332,7.464-15.1,10.936-15.363c2.257-.174,5.729-.347,6.336,2.43.868,3.906,0,12.065,0,12.065l38.1,17.88,3.732-15.884S444.6,457.808,444.6,440.8s-4.947-42.1-4.947-42.1S367.092,406.338,362.752,414.5Z" transform="translate(-22.59 -38.32)" fill="#212023"/>
    <path id="Path_2552" data-name="Path 2552" d="M401.254,600.72a7.876,7.876,0,0,0-2.864,5.468c-.521,3.906-2.6,9.721-3.993,14.495s-5.468,14.061-3.385,15.623c2.951,2.344,10.763,3.993,19.789,4.774s13.367.26,14.755-2.344-1.562-17.533-2.083-23.175,0-11.544-1.042-13.54S405.42,595.339,401.254,600.72Z" transform="translate(-29.845 -64.664)" fill="#22272e"/>
    <path id="Path_2553" data-name="Path 2553" d="M364.138,594.906a22.661,22.661,0,0,0-2.083,5.121c-1.042,3.385-10.242,17.62-10.155,22.133s8.853,4.6,12.238,4.774c4.079.174,14.408-.608,17.793-2.951s3.472-10.416,3.732-13.019c.521-5.208.434-8.332-.781-16.144-.347-2.517-4.166-3.211-6.249-1.736S365.7,591.521,364.138,594.906Z" transform="translate(-24.757 -63.884)" fill="#22272e"/>
    <path id="Path_2554" data-name="Path 2554" d="M404.235,588.641s-1.562,11.37-1.736,12.759,2.344,4.427,9.634,5.989c6.249,1.389,9.982-.955,10.589-1.823s3.472-15.363,4.427-18.661S406.231,584.735,404.235,588.641Z" transform="translate(-31.437 -62.914)" fill="#f4c2c9"/>
    <path id="Path_2555" data-name="Path 2555" d="M363.6,585.146s2.344,7.985,2.344,9.027,3.993,3.211,9.548,3.038,10.242-3.211,10.242-4.687-1.649-15.623-1.649-15.623S364.121,581.153,363.6,585.146Z" transform="translate(-26.302 -61.849)" fill="#f4c2c9"/>
    <path id="Path_2556" data-name="Path 2556" d="M400.8,624.286a22.923,22.923,0,0,1,20.744,4.774" transform="translate(-31.214 -68.006)" fill="none" stroke="#fff" stroke-linecap="round" stroke-linejoin="round" stroke-width="1.8"/>
    <path id="Path_2557" data-name="Path 2557" d="M404,617.051s10.5-1.91,17.186,3.559" transform="translate(-31.637 -67.108)" fill="none" stroke="#fff" stroke-linecap="round" stroke-linejoin="round" stroke-width="1.8"/>
    <path id="Path_2558" data-name="Path 2558" d="M403,606.042a4.01,4.01,0,0,0,3.732,0c2-1.042,4.079-2.951,8.159-2.17,4.947.955,5.9,6.076,8.593,3.819,0,0,.087,3.472-6.683,3.819S403.087,607.17,403,606.042Z" transform="translate(-31.505 -65.386)" fill="#22272e"/>
    <path id="Path_2559" data-name="Path 2559" d="M365.794,596.36s.955,1.042,2.517-.434,1.389-3.125,5.642-3.732c2.777-.347,5.121,1.649,7.2,3.3s4.166-.608,4.6-2.517c0,0,1.389,4.947-.521,7.378-1.389,1.823-6.77.521-9.982.608s-10.155-1.476-10.155-1.476Z" transform="translate(-26.5 -63.863)" fill="#22272e"/>
    <path id="Path_2560" data-name="Path 2560" d="M359.1,611.426s8.159-5.034,19.355,1.736" transform="translate(-25.708 -66.17)" fill="none" stroke="#fff" stroke-linecap="round" stroke-linejoin="round" stroke-width="1.8"/>
    <path id="Path_2561" data-name="Path 2561" d="M363.6,605.426s7.117-5.034,16.925,1.736" transform="translate(-26.302 -65.378)" fill="none" stroke="#fff" stroke-linecap="round" stroke-linejoin="round" stroke-width="1.8"/>
    <path id="Path_2562" data-name="Path 2562" d="M414.566,456.375s-10.5,1.476-11.2,27.688-2.864,68.309-5.815,74.211-1.91,12.846,3.559,15.623,11.8,5.989,19.789,5.121,11.8-5.468,11.8-14.755,3.385-35.326,8.593-56.5,8.68-42.1-1.91-49.647S414.566,456.375,414.566,456.375Z" transform="translate(-30.572 -45.653)" fill="#212023"/>
    <path id="Path_2563" data-name="Path 2563" d="M344.24,453.64s-15.8,2-6.857,41.141,14.929,59.716,13.54,65.7,2.951,9.2,7.9,10.329,14.408.955,19.789-2.083,5.989-7.9,3.819-17.186-2.691-46.436-2.951-59.195,2.951-34.458-12.5-40.707S344.24,453.64,344.24,453.64Z" transform="translate(-22.479 -45.001)" fill="#212023"/>
    <ellipse id="Ellipse_363" data-name="Ellipse 363" cx="12.585" cy="12.412" rx="12.585" ry="12.412" transform="translate(319.071 409.681)" fill="none" stroke="#494555" stroke-linecap="round" stroke-linejoin="round" stroke-width="1.8"/>
    <ellipse id="Ellipse_364" data-name="Ellipse 364" cx="12.585" cy="12.412" rx="12.585" ry="12.412" transform="translate(381.303 419.228)" fill="none" stroke="#494555" stroke-linecap="round" stroke-linejoin="round" stroke-width="1.8"/>
    <path id="Path_2564" data-name="Path 2564" d="M454.522,263.054s5.121-1.649,6.77-5.381,1.476-15.016-1.562-18.574-11.544-2-16.925-3.559-9.114-5.034-19.1-3.125-19.182,10.85-19.616,15.71,2.43,6.857,1.389,9.982-2.43,6.163,2.43,10.936,2.951,7.9,6.6,7.9-2.951-11.11,1.736-20.657S451.918,252.291,454.522,263.054Z" transform="translate(-31.643 -16.29)" fill="#22272e"/>
    <path id="Path_2565" data-name="Path 2565" d="M343.9,333.692s-11.457,15.1-13.453,26.473,4.166,18.748,11.8,19.963,33.243-32.2,34.458-38.971S347.541,328.4,343.9,333.692Z" transform="translate(-21.874 -29.468)" fill="#f4c2c9"/>
    <path id="Path_2566" data-name="Path 2566" d="M381.894,299.988s-5.815-1.649-19.79,10.416c-11.717,10.068-21,19.7-21,19.7s24.65,22.393,28.035,28.209c0,0,15.189-17.533,16.491-35.239S384.064,299.294,381.894,299.988Z" transform="translate(-23.331 -25.276)" fill="#f3efff"/>
    <path id="Path_2567" data-name="Path 2567" d="M346,330.1s17.793,14.321,27.428,27.514" transform="translate(-23.978 -29.262)" fill="none" stroke="#22272e" stroke-linecap="round" stroke-linejoin="round" stroke-width="1.8"/>
    <path id="Path_2568" data-name="Path 2568" d="M378.082,307.181c2.17-4.861,6.51-8.419,11.891-8.593,5.208-.174,13.106-.087,24.563.694,24.65,1.736,43.658,8.766,48.693,12.412s-1.128,26.212-6.336,38.711-10.849,23.869-11.8,28.209,2.517,24.824.694,28.99-21.178,11.37-45.828,9.982-34.892-9.374-35.673-12.325,9.637-21.5,6.51-35.373-.174-29.985,0-32.762C372.353,319.246,375.825,312.216,378.082,307.181Z" transform="translate(-26.376 -25.091)" fill="#9e80fb"/>
    <path id="Path_2569" data-name="Path 2569" d="M498.786,354.553c-6.163-10.589-27.514,10.5-26.994,15.189,0,0,3.819,7.985,3.819,8.853s-3.819,22.827-6.423,35.152c-.781,3.819-3.125,8.072-5.989,12.151a133.579,133.579,0,0,0,20.657,5.989c9.2-16.057,19.79-40.621,21.439-46.7C508.334,373.822,504.949,365.142,498.786,354.553Z" transform="translate(-39.453 -32.103)" fill="#f4c2c9"/>
    <path id="Path_2570" data-name="Path 2570" d="M477.5,381.881a11.014,11.014,0,0,1,5.555-5.381" transform="translate(-41.341 -35.388)" fill="none" stroke="#e26e85" stroke-linecap="round" stroke-linejoin="round" stroke-width="1.8"/>
    <path id="Path_2571" data-name="Path 2571" d="M475.336,313.462s7.031,3.906,13.974,15.623,12.325,22.393,12.325,22.393l-30.552,15.97s-8.853-14.495-12.5-21-3.993-19.876,1.128-27.341C464.66,311.726,472.906,311.812,475.336,313.462Z" transform="translate(-38.483 -26.945)" fill="#f3efff"/>
    <path id="Path_2572" data-name="Path 2572" d="M470.1,368.057S487.893,356.34,501,352" transform="translate(-40.364 -32.153)" fill="none" stroke="#22272e" stroke-linecap="round" stroke-linejoin="round" stroke-width="1.8"/>
    <path id="Path_2573" data-name="Path 2573" d="M464.809,428.714s-12.238,1.215-15.016,2.777-6.944,11.023-6.6,11.891,2.951,0,2.951,0-.347,1.823,1.736,1.823,2.43-.868,2.43-.868a1.831,1.831,0,0,0,2.083,2.17c2.43-.174,7.464-4.513,7.464-4.513s-2.691,4.774-1.042,5.9,5.208-2.864,5.729-3.645,14.321,7.551,19.616-7.812C484.165,436.439,474.183,425.589,464.809,428.714Z" transform="translate(-36.809 -42.208)" fill="#f4c2c9"/>
    <path id="Path_2574" data-name="Path 2574" d="M407.767,298s-4.166.434-5.034,1.215-3.472,7.551,0,14.582,13.54,10.5,23.782,7.291S441.1,308.068,440.75,305.03s-2.17-3.993-5.9-4.947S407.767,298,407.767,298Z" transform="translate(-31.238 -25.023)" fill="#f3efff"/>
    <path id="Path_2575" data-name="Path 2575" d="M413.523,272.857a52.123,52.123,0,0,1-1.736,14.495,36.75,36.75,0,0,1-3.125,7.2,11.977,11.977,0,0,0-1.389,4.079c-.521,3.559-.26,9.721,6.249,12.672,10.416,4.687,21.352-3.906,22.827-10.763,0,0,.608-7.117,2.17-9.982S418.557,270.167,413.523,272.857Z" transform="translate(-32.046 -21.666)" fill="#f4c2c9"/>
    <path id="Path_2576" data-name="Path 2576" d="M437.518,304.631a11,11,0,0,0,.694-2,28.65,28.65,0,0,1,.434-3.211A26.82,26.82,0,0,1,421.2,288.4C421.721,296.906,429.012,303.416,437.518,304.631Z" transform="translate(-33.908 -23.756)" fill="#e26e85"/>
    <g id="Mask_Group_2" data-name="Mask Group 2" clip-path="url(#clip-path-2)">
      <g id="Group_140" data-name="Group 140" transform="translate(335.589 273.811)">
        <path id="Path_2874" data-name="Path 2874" d="M519.966,212.823s-16.264,23.657-11.127,52.05-5.208,45.829-5.208,45.829-5.536,8.556-3.376,13.614" transform="translate(-490.764 -212.873)" fill="none" stroke="#42307b" stroke-linecap="round" stroke-linejoin="round" stroke-width="1.8"/>
        <path id="Path_2876" data-name="Path 2876" d="M579.182,335.57s5.795-20.209,1.42-48.9,4.489-66.665,15.223-64.042" transform="translate(-508.546 -215.679)" fill="none" stroke="#42307b" stroke-linecap="round" stroke-linejoin="round" stroke-width="1.8"/>
        <path id="Path_2877" data-name="Path 2877" d="M540.2,297.106s1.072-19.982.706-37.867c-.146-6.722-1.071-38.235,4.6-48.658" transform="translate(-489.302 -187.253)" fill="none" stroke="#42307b" stroke-linecap="round" stroke-linejoin="round" stroke-width="1.8"/>
        <path id="Path_2878" data-name="Path 2878" d="M515.2,319.417s7.971-32.881,5.469-50.624c-.846-6-1.484-20.41-1.484-20.41s-.571-22.207,5.8-26.523" transform="translate(-489.847 -207.974)" fill="none" stroke="#42307b" stroke-linecap="round" stroke-linejoin="round" stroke-width="1.8"/>
      </g>
    </g>
    <path id="Path_2577" data-name="Path 2577" d="M338.381,379.163s4.253,4.774,23.175,0,43.311-17.967,46.957-19.269,5.034-.694,8.94-.694c9.287.174,13.106-.694,14.321-1.3,2.43-1.215,3.559-3.038,3.125-4.6s.868-2,1.128-3.385c.434-2.6-.521-2.951-.26-3.125s2.864-.955,3.385-1.649c1.3-2,.26-3.3.26-3.3a48.657,48.657,0,0,1,7.2-1.215c3.906-.347,6.249-1.736,5.121-3.125s-8.766-.955-13.714-.955-6.683.087-7.031-.087c-1.91-.608-5.642-1.736-7.464-1.562s-3.906,1.649-7.464,3.559A53.868,53.868,0,0,1,403.3,343.23c-3.993,1.042-30.813,3.125-47.391,6.249-2.344.434-4.513.868-6.336,1.389a30.381,30.381,0,0,0-5.295,1.823C335.256,357.551,327.358,370.31,338.381,379.163Z" transform="translate(-22.261 -29.893)" fill="#f4c2c9"/>
    <path id="Path_2578" data-name="Path 2578" d="M454.721,342.794s-2.257-.347-3.038-.521a13.015,13.015,0,0,0-2.083-.174" transform="translate(-37.658 -30.846)" fill="none" stroke="#e26e85" stroke-linecap="round" stroke-linejoin="round" stroke-width="1.8"/>
    <path id="Path_2579" data-name="Path 2579" d="M451.07,348.6s-1.562.434-2.17.694" transform="translate(-37.565 -31.704)" fill="none" stroke="#e26e85" stroke-linecap="round" stroke-linejoin="round" stroke-width="1.8"/>
    <path id="Path_2580" data-name="Path 2580" d="M450.044,355a25.163,25.163,0,0,1-2.344,1.215" transform="translate(-37.407 -32.549)" fill="none" stroke="#e26e85" stroke-linecap="round" stroke-linejoin="round" stroke-width="1.8"/>
    <path id="Path_2581" data-name="Path 2581" d="M418.165,361.086c-6.683-7.9-3.3-17.186-3.3-17.186l-7.464,1.389c-4.253,10.5,3.3,19.356,3.3,19.356Z" transform="translate(-31.914 -31.084)" fill="#22272e"/>
    <path id="Path_2582" data-name="Path 2582" d="M444.968,336.7s-4.687.087-5.468.434" transform="translate(-36.324 -30.133)" fill="none" stroke="#e26e85" stroke-linecap="round" stroke-linejoin="round" stroke-width="1.8"/>
    <path id="Path_2583" data-name="Path 2583" d="M357.631,351.7c-2.344.434-4.513.868-6.336,1.389A30.379,30.379,0,0,0,346,354.911" transform="translate(-23.978 -32.114)" fill="none" stroke="#e26e85" stroke-linecap="round" stroke-linejoin="round" stroke-width="1.8"/>
    <path id="Path_2584" data-name="Path 2584" d="M414.627,354.313a4.513,4.513,0,1,0-4.513,4.513A4.652,4.652,0,0,0,414.627,354.313Z" transform="translate(-31.848 -31.863)" fill="#fff"/>
    <path id="Path_2585" data-name="Path 2585" d="M456.925,249.524s1.909,5.729-.781,14.235-4.513,11.717-6.77,18.488-7.725,12.672-17.012,11.717c-9.721-1.042-17.359-9.895-17.793-20.918s-1.389-28.209,11.717-31.247C439.219,238.848,454.668,246.573,456.925,249.524Z" transform="translate(-33.005 -17.515)" fill="#f4c2c9"/>
    <path id="Path_2586" data-name="Path 2586" d="M452.945,272a16.353,16.353,0,0,0,.174,2.951c.087.434.174.955.26,1.389.087.26.087.434.174.694l.087.347.087.434a3.558,3.558,0,0,1,0,1.909,2.96,2.96,0,0,1-1.215,1.476,4.227,4.227,0,0,1-3.211.434,8.966,8.966,0,0,0,2.43-1.389,1.736,1.736,0,0,0,.434-2l-.087-.26-.087-.434c-.087-.26-.087-.521-.174-.781a10.505,10.505,0,0,1-.087-1.649A7.812,7.812,0,0,1,452.945,272Z" transform="translate(-37.618 -21.59)" fill="#22272e"/>
    <path id="Path_2587" data-name="Path 2587" d="M416.632,262.816s2.864-.694,4.687-8.246c0,0,.608-1.736,3.645.608s8.072,6.163,16.925,2,9.982-5.555,11.2-4.079c0,0,1.3,6.6,5.815,4.513s2.083-13.8-12.846-17.62-25.518-2.517-30.292,5.815S412.813,262.3,416.632,262.816Z" transform="translate(-32.812 -17.093)" fill="#22272e"/>
    <path id="Path_2588" data-name="Path 2588" d="M447.225,262.676a2.6,2.6,0,0,0,.347-2.951c-.955-1.476-7.465-2.517-9.027-1.215s2.344,1.476,4.166,2.344S446.7,263.284,447.225,262.676Z" transform="translate(-36.15 -19.731)" fill="#22272e"/>
    <path id="Path_2589" data-name="Path 2589" d="M457.894,267.48a2.534,2.534,0,0,1,1.3-1.389c.955-.434,2.951,1.562,2.6,2.864s-1.3-.174-2.17-.347C458.762,268.261,457.634,268,457.894,267.48Z" transform="translate(-38.748 -20.802)" fill="#22272e"/>
    <path id="Path_2590" data-name="Path 2590" d="M442.477,268.923a1.328,1.328,0,0,0-.868-1.736h0a1.328,1.328,0,0,0-1.736.868l-.174.434,2.517.955Z" transform="translate(-36.35 -20.944)" fill="#22272e"/>
    <path id="Path_2591" data-name="Path 2591" d="M457.477,274.525a1.372,1.372,0,1,0-2.6-.868l-.174.434,2.517.955Z" transform="translate(-38.331 -21.685)" fill="#22272e"/>
    <path id="Path_2592" data-name="Path 2592" d="M417.573,267.415s-1.476-5.9-5.815-5.815-6.336,11.891,3.645,13.714" transform="translate(-32.19 -20.217)" fill="#f4c2c9"/>
    <path id="Path_2593" data-name="Path 2593" d="M411.5,267.562a1.736,1.736,0,0,1,.434-1.215,1.1,1.1,0,0,1,.781-.347,2.075,2.075,0,0,1,.781.174c.087,0,.26.174.347.26s.174.26.26.347.087.26.174.347a.522.522,0,0,1,.087.347,5.342,5.342,0,0,1,.087,1.128v2a1.4,1.4,0,0,0,.26.781,1.892,1.892,0,0,0,.781.608,1.475,1.475,0,0,1-1.215,0,1.875,1.875,0,0,1-.955-1.042,5.607,5.607,0,0,1-.434-2.344c0-.694-.087-1.476-.087-1.476a.616.616,0,0,0-.521-.26A7.1,7.1,0,0,1,411.5,267.562Z" transform="translate(-32.627 -20.798)" fill="#22272e"/>
    <path id="Path_2594" data-name="Path 2594" d="M441.541,288.637a9.22,9.22,0,0,0,.868-1.476,1.371,1.371,0,0,0-.781-1.91,13.218,13.218,0,0,1-3.3-2c-2.691-2.17-3.906-.26-3.732,2.17C437.2,285.686,439.545,287.335,441.541,288.637Z" transform="translate(-35.674 -22.951)" fill="#22272e"/>
    <path id="Path_2595" data-name="Path 2595" d="M434.6,285.8c.174,2.083,1.3,4.6,3.559,4.947a3.472,3.472,0,0,0,3.385-1.649C439.547,287.8,437.2,286.147,434.6,285.8Z" transform="translate(-35.677 -23.412)" fill="#e86484"/>
    <path id="Path_2596" data-name="Path 2596" d="M232.959,451.4,220.2,629.332a2.647,2.647,0,0,0,2.6,2.777h0a2.6,2.6,0,0,0,2.6-2.344L240.77,451.487h-7.812Z" transform="translate(-7.367 -45.278)" fill="#d3c5fe"/>
    <path id="Path_2597" data-name="Path 2597" d="M827.012,451.4l12.759,177.932a2.647,2.647,0,0,1-2.6,2.777h0a2.6,2.6,0,0,1-2.6-2.344L819.2,451.487h7.812Z" transform="translate(-86.459 -45.278)" fill="#d3c5fe"/>
    <path id="Path_2598" data-name="Path 2598" d="M772.9,443.112H203.6L268.7,416.9H707.712Z" transform="translate(-5.176 -40.723)" fill="#fff"/>
    <rect id="Rectangle_239" data-name="Rectangle 239" width="569.383" height="6.51" transform="translate(198.424 402.39)" fill="#d3c5fe"/>
    <path id="Path_2599" data-name="Path 2599" d="M464.2,411.9h36.541a4.773,4.773,0,0,1,2.777.868L536.672,434.9a1.319,1.319,0,0,1-.694,2.43H483.119a3.828,3.828,0,0,1-3.125-1.562l-16.838-21.7a1.337,1.337,0,0,1,1.042-2.17Z" transform="translate(-39.409 -40.062)" fill="#89b2fb"/>
    <line id="Line_391" data-name="Line 391" x2="34.111" transform="translate(447.355 390.412)" fill="none" stroke="#9e80fb" stroke-linecap="round" stroke-linejoin="round" stroke-width="1.8"/>
    <path id="Path_2600" data-name="Path 2600" d="M516.093,424.929l-7.117-5.381a1.667,1.667,0,0,0-1.042-.347h-9.287c-.347,0-.434.347-.26.608l5.381,5.208a1.736,1.736,0,0,0,1.215.521H515.92C516.267,425.536,516.354,425.189,516.093,424.929Z" transform="translate(-44.088 -41.026)" fill="#22272e"/>
    <line id="Line_392" data-name="Line 392" x1="9.374" transform="translate(443.363 384.51)" fill="none" stroke="#9e80fb" stroke-linecap="round" stroke-linejoin="round" stroke-width="1.8"/>
    <line id="Line_393" data-name="Line 393" x1="8.419" transform="translate(441.28 380.951)" fill="none" stroke="#9e80fb" stroke-linecap="round" stroke-linejoin="round" stroke-width="1.8"/>
    <path id="Path_2601" data-name="Path 2601" d="M697.993,442.725l-10.416.781a7.119,7.119,0,0,1-2.691-.26l-47.564-13.019a2.526,2.526,0,0,1-1.823-2.43h0l80.894-2Z" transform="translate(-62.204 -41.898)" fill="#d3c5fe"/>
    <path id="Path_2602" data-name="Path 2602" d="M694.08,433.278l20.137-53.553a4.774,4.774,0,0,1,4.6-3.125l82.63,1.562a2.6,2.6,0,0,1,2.344,3.645l-19.1,46.783a4.956,4.956,0,0,1-4.166,3.038l-83.845,5.295a2.8,2.8,0,0,1-2.6-3.645Z" transform="translate(-69.921 -35.401)" fill="#212023"/>
    <path id="Path_2603" data-name="Path 2603" d="M689.314,443.723l-1.736.087a7.117,7.117,0,0,1-2.691-.26L637.323,430.53a2.6,2.6,0,0,1-1.823-2.43l52.165,12.5Z" transform="translate(-62.204 -42.201)" fill="#212023"/>
    <path id="Path_2604" data-name="Path 2604" d="M772.754,408.989a8.526,8.526,0,0,1-7.638,5.989c-3.3,0-5.208-2.691-4.253-5.989A8.526,8.526,0,0,1,768.5,403C771.8,403,773.708,405.691,772.754,408.989Z" transform="translate(-78.724 -38.887)" fill="#f5ea5c"/>
    <path id="Path_2605" data-name="Path 2605" d="M236.54,314.476s8.506-2.344,15.97,11.023,11.2,38.19,13.54,40.707,6.163,4.427,18.488,12.325,13.019,8.159,23.7,9.461,11.37,4.947,14.669,8.593,5.642,6.163,2.517,6.423-6.51-4.253-8.506-2.951a20.441,20.441,0,0,1-7.031,3.3c-3.645.868-2.517,2.344-5.9,2s-9.982-.174-7.9-2,0-2.257,0-2.257-36.715-4.947-48.606-14.582-15.016-41.575-17.359-52.164S233.589,314.476,236.54,314.476Z" transform="translate(-8.605 -27.178)" fill="#b28d93"/>
    <path id="Path_2606" data-name="Path 2606" d="M270.742,374.092a11.666,11.666,0,0,0-5.642.868" transform="translate(-13.296 -35.063)" fill="#642f37" stroke="#642f37" stroke-linecap="round" stroke-linejoin="round" stroke-width="1.8"/>
    <path id="Path_2607" data-name="Path 2607" d="M233.59,262.511s6.423-6.076,3.906-13.974-10.329-8.68-16.665-6.77-23.7-1.3-30.031,8.332-2.343,18.314-6.336,20.831-9.634,4.34-8.68,10.676,17.88,15.537,12.672,22.827-10.155,24.216,9.982,33.85,21.352-13.367,22.654-26.733-2.691-28.816,3.038-34.545C229.945,271.1,234.718,267.893,233.59,262.511Z" transform="translate(-1.489 -17.483)" fill="#22272e"/>
    <path id="Path_2608" data-name="Path 2608" d="M204.143,310.894s23,.521,26.994,2.344,5.815,7.985,7.03,12.672,10.329,10.329,11.978,20.657-7.2,22.307-7.638,24.216-.521,21.352.521,25.344,2.864,10.5,2.691,13.367S233.393,418,215.34,416.958s-36.975-10.155-37.583-12.151,5.381-11.37,3.732-30.986-11.023-40.707-4.166-52.338C184.18,310.026,200.671,310.807,204.143,310.894Z" transform="translate(-1.379 -26.72)" fill="#212023"/>
    <path id="Path_2609" data-name="Path 2609" d="M207.6,291.8s.955,10.068.781,16.491c0,0,2.517,5.381,10.416,6.944,9.548,2,11.457-3.472,10.155-5.815,0,0-2.257-8.332-2.517-14.061C226.261,289.8,208.034,291.015,207.6,291.8Z" transform="translate(-5.704 -24.114)" fill="#b28d93"/>
    <path id="Path_2610" data-name="Path 2610" d="M216.6,301.5c3.559,5.555,7.2,7.812,13.453,8.246-.347-1.215-.781-3.385-1.3-5.729C223.8,304.625,221.461,302.889,216.6,301.5Z" transform="translate(-6.892 -25.485)" fill="#896068"/>
    <path id="Path_2611" data-name="Path 2611" d="M203.8,310.87a42.592,42.592,0,0,1,10.068,10.416c4.947,7.117,11.283,12.412,15.71,11.891s6.51-6.336.781-20.918C230.36,312.259,216.472,310,203.8,310.87Z" transform="translate(-5.202 -26.696)" fill="#b28d93"/>
    <path id="Path_2612" data-name="Path 2612" d="M293.162,405.053l36.368-2.257c.434,0,.955-.955,1.128-.608a9.391,9.391,0,0,1,0,1.562,1.215,1.215,0,0,1-.26.781L302.97,432.654a5.321,5.321,0,0,1-4.34,1.562l-35.76-3.559a.868.868,0,0,1-.781-.521,16.592,16.592,0,0,1-1.389-2.777c0-.26,2-.26,2.257-.434l27.775-20.918a4.34,4.34,0,0,1,2.43-.955Z" transform="translate(-12.715 -38.77)" fill="#63737a"/>
    <path id="Path_2613" data-name="Path 2613" d="M292.688,402.662l36.888-1.562a1.068,1.068,0,0,1,.781,1.823l-28.382,27.948a5.208,5.208,0,0,1-4.427,1.476l-36.194-4.427a1.059,1.059,0,0,1-.521-1.91l29.25-22.48A4.462,4.462,0,0,1,292.688,402.662Z" transform="translate(-12.676 -38.636)" fill="#212023"/>
    <path id="Path_2614" data-name="Path 2614" d="M314.776,401s-.955.174-.955,2,.694,6.683-1.128,7.03-2.6-1.823-3.472-3.732-3.472-2-5.121-4.774" transform="translate(-18.446 -38.623)" fill="#ffe7ca"/>
    <path id="Path_2615" data-name="Path 2615" d="M234.468,254.381a50.42,50.42,0,0,1,2.777,14.235c.26,7.638,2.864,11.978,1.389,18.574s-6.683,11.717-13.106,11.978-15.8-5.468-20.918-12.325-6.683-21.178-3.645-28.122C203.829,251.864,226.57,244.66,234.468,254.381Z" transform="translate(-4.624 -18.64)" fill="#b28d93"/>
    <path id="Path_2616" data-name="Path 2616" d="M235.039,261.171a6.614,6.614,0,0,1-6.076-3.385s-5.642,13.019-14.755,13.887c-6.249.608-7.464-2.344-10.068,0s4.947,15.884,2.6,26.907-13.453,14.061-21.265,7.291c-9.808-8.593.868-10.242,2.864-22.393s0-21.352,6.423-28.382,12.759-11.37,22.914-10.416S232.088,247.2,235.039,261.171Z" transform="translate(-2.244 -17.966)" fill="#22272e"/>
    <path id="Path_2617" data-name="Path 2617" d="M211.175,273.487a34.782,34.782,0,0,0-.347,6.076c.26,1.476-2.691-1.649-5.381.347-1.476,1.128-2.864-5.989,0-8.159S209.873,271.4,211.175,273.487Z" transform="translate(-5.2 -21.428)" fill="#22272e"/>
    <path id="Path_2618" data-name="Path 2618" d="M209.166,280.621s-3.3-4.253-6.857-1.649,1.042,10.5,6.423,9.895" transform="translate(-4.84 -22.399)" fill="#b28d93"/>
    <path id="Path_2619" data-name="Path 2619" d="M294.353,428.4s4.947,4.079,6.857,5.468.694,2.6-1.389,2.6S290.881,431,294.353,428.4Z" transform="translate(-17.031 -42.241)" fill="#ffe7ca"/>
    <path id="Path_2620" data-name="Path 2620" d="M179.908,318.788a10.832,10.832,0,0,0-4.861,4.6,31.056,31.056,0,0,0-2.864,21.439c3.211,14.669,10.763,36.715,14.148,41.923S205.6,402.373,216.8,409.316s19.79,10.763,21.873,12.325,6.249,5.555,14.148,6.51,10.5-1.91,12.933-1.3,6.51,3.385,8.766,3.125,1.042-2,.174-2.864-5.989-5.468-5.989-5.468a66.836,66.836,0,0,1,7.638,3.993c3.819,2.257,5.642,2.344,6.683,2.257s2.257-.434,2.083-1.389a1.684,1.684,0,0,0,1.91-.174c.868-.781,1.128-1.476-.955-3.819s-7.378-8.506-9.982-11.2-5.642-2.951-12.065-2.6-15.45-1.042-15.71-.781-27.862-28.99-36.194-37.322c0,0-6.683-21.786-8.68-31.16C199.35,320.611,189.456,314.275,179.908,318.788Z" transform="translate(-0.926 -27.584)" fill="#b28d93"/>
    <path id="Path_2621" data-name="Path 2621" d="M300.314,441.417s0-1.042-2.6-2.864-6.683-5.729-7.985-6.683a17,17,0,0,0-3.125-2.17" transform="translate(-16.135 -42.413)" fill="#642f37" stroke="#642f37" stroke-linecap="round" stroke-linejoin="round" stroke-width="1.8"/>
    <path id="Path_2622" data-name="Path 2622" d="M283.051,437.372s-2-1.736-2.951-1.476" transform="translate(-15.277 -43.227)" fill="#642f37" stroke="#642f37" stroke-linecap="round" stroke-linejoin="round" stroke-width="1.8"/>
    <path id="Path_2623" data-name="Path 2623" d="M217.191,378.7a9.548,9.548,0,0,0-7.291,2.864" transform="translate(-6.008 -35.677)" fill="#642f37" stroke="#642f37" stroke-linecap="round" stroke-linejoin="round" stroke-width="1.8"/>
    <path id="Path_2624" data-name="Path 2624" d="M239.3,276.8c.608.781,1.128,1.562,1.649,2.257a4.548,4.548,0,0,0,.868.955l.434.434.26.174c.087.087.26.174.347.347a2.882,2.882,0,0,1,.608,1.823,3.046,3.046,0,0,1-.521,1.562,3.958,3.958,0,0,1-2.343,1.91,7.109,7.109,0,0,0,1.215-2.43,1.988,1.988,0,0,0-.174-1.91c0-.087-.087-.087-.174-.174a1.2,1.2,0,0,0-.347-.26,3.246,3.246,0,0,1-.521-.608,5.208,5.208,0,0,1-.781-1.3,8.793,8.793,0,0,1-.521-2.777Z" transform="translate(-9.89 -22.224)" fill="#22272e"/>
    <path id="Path_2625" data-name="Path 2625" d="M235.474,294.562A4.9,4.9,0,0,1,230.7,293" transform="translate(-8.754 -24.363)" fill="none" stroke="#22272e" stroke-linecap="round" stroke-linejoin="round" stroke-width="1.8"/>
    <path id="Path_2626" data-name="Path 2626" d="M229.117,280.853h0a1.345,1.345,0,0,0,1.128-1.649l-.174-.781a1.345,1.345,0,0,0-1.649-1.128h0a1.345,1.345,0,0,0-1.128,1.649l.174.781a1.536,1.536,0,0,0,1.649,1.128Z" transform="translate(-8.3 -22.284)" fill="#22272e"/>
    <path id="Path_2627" data-name="Path 2627" d="M241.317,278.853h0a1.345,1.345,0,0,0,1.128-1.649l-.174-.781a1.345,1.345,0,0,0-1.649-1.128h0a1.345,1.345,0,0,0-1.128,1.649l.174.781A1.458,1.458,0,0,0,241.317,278.853Z" transform="translate(-9.91 -22.02)" fill="#22272e"/>
    <path id="Path_2628" data-name="Path 2628" d="M227.292,270.438a1.215,1.215,0,0,0,1.3-1.389,3.784,3.784,0,0,0-.608-1.823c-.781-.868-3.819-.608-6.076,1.128s-3.211,3.993-2.083,4.079,2.777-1.389,4.6-1.823A6.415,6.415,0,0,1,227.292,270.438Z" transform="translate(-7.256 -20.896)" fill="#22272e"/>
    <path id="Path_2629" data-name="Path 2629" d="M241.435,269.106a.564.564,0,0,1-.868-.347c-.174-.694-.347-1.736-.087-2,.434-.521,1.736-.174,2,.608s.347,1.215.087,1.215A2.1,2.1,0,0,0,241.435,269.106Z" transform="translate(-10.028 -20.866)" fill="#22272e"/>
    <path id="Path_2630" data-name="Path 2630" d="M204.046,283.243a1.38,1.38,0,0,1-.087-1.736,1.736,1.736,0,0,1,.608-.521c.087,0,.174-.087.347-.087a1.475,1.475,0,0,1,.608.087,1.337,1.337,0,0,1,.608.608,5.831,5.831,0,0,1,.521,1.042c.26.608.347,1.215.521,1.649a1.4,1.4,0,0,0,.347.608,1.293,1.293,0,0,0,.868.26,1.441,1.441,0,0,1-1.042.434,1.484,1.484,0,0,1-1.128-.608,8.019,8.019,0,0,1-1.042-1.823,8.2,8.2,0,0,0-.26-.781c0-.087-.087-.174,0-.174h0a.477.477,0,0,0-.434.174A1.389,1.389,0,0,0,204.046,283.243Z" transform="translate(-5.188 -22.765)" fill="#22272e"/>
    <path id="Path_2631" data-name="Path 2631" d="M481.32,217.924H450.768l-3.125,2A1.545,1.545,0,0,1,445.3,218.7V197.093a3.984,3.984,0,0,1,3.993-3.993h31.941a3.984,3.984,0,0,1,3.993,3.993v16.838a3.906,3.906,0,0,1-3.906,3.993Z" transform="translate(-37.09 -11.172)" fill="#f5ea5c"/>
    <path id="Path_2632" data-name="Path 2632" d="M455.8,211.153l3.038-3.038a4.14,4.14,0,0,1,5.9,0,4.14,4.14,0,0,0,5.9,0l5.815-5.815" transform="translate(-38.476 -12.387)" fill="none" stroke="#22272e" stroke-linecap="round" stroke-linejoin="round" stroke-width="1.8"/>
    <path id="Path_2633" data-name="Path 2633" d="M480.291,203.732,481.332,200l-3.732,1.042Z" transform="translate(-41.355 -12.083)" fill="#22272e"/>
    <g id="img3-cuadronegro">
      <path id="Path_2634" data-name="Path 2634" d="M783.117,320.966l-80.026-9.374a3.706,3.706,0,0,1-3.211-4.687l18.488-84.539a5.3,5.3,0,0,1,4.427-3.906l83.5-8.766a2.951,2.951,0,0,1,3.385,3.559l-22.133,104.5a4.21,4.21,0,0,1-4.427,3.211Z" transform="translate(-70.686 -13.358)" fill="#212023"/>
      <path id="Path_2635" data-name="Path 2635" d="M779.3,320.847l-80.72-9.461a3.758,3.758,0,0,1-3.3-4.687l18.661-85.147a5.086,5.086,0,0,1,4.513-3.906l84.105-8.853a2.951,2.951,0,0,1,3.385,3.559l-22.393,105.37a3.975,3.975,0,0,1-4.253,3.125Z" transform="translate(-70.081 -13.239)" fill="#3e3c43"/>
      <path id="Path_2636" data-name="Path 2636" d="M752.99,241.514l-30.379,1.476A1.154,1.154,0,0,1,721.4,241.6l2.43-11.283a1.684,1.684,0,0,1,1.389-1.215l30.639-2.6a1.094,1.094,0,0,1,1.215,1.389l-2.691,12.5a1.606,1.606,0,0,1-1.389,1.128Z" transform="translate(-73.542 -15.58)" fill="#89b2fb"/>
      <path id="Path_2637" data-name="Path 2637" d="M711.35,313.108h0a1.05,1.05,0,0,1-.955-1.3l4.513-21.178a1.406,1.406,0,0,1,1.476-1.128h0a1.016,1.016,0,0,1,.955,1.3l-4.513,21.265a1.354,1.354,0,0,1-1.476,1.042Z" transform="translate(-72.088 -23.9)" fill="#f5ea5c"/>
      <path id="Path_2638" data-name="Path 2638" d="M723.892,312.425l5.381-25a1.406,1.406,0,0,1,1.476-1.128h.174a1.085,1.085,0,0,1,1.042,1.3l-5.381,25a1.493,1.493,0,0,1-1.562,1.128h-.174a.989.989,0,0,1-.955-1.3Z" transform="translate(-73.868 -23.478)" fill="#ffe779"/>
      <path id="Path_2639" data-name="Path 2639" d="M737.393,312.958l6.076-28.556a1.675,1.675,0,0,1,1.649-1.3h0a1.163,1.163,0,0,1,1.128,1.476l-6.076,28.556a1.736,1.736,0,0,1-1.736,1.3h0a1.154,1.154,0,0,1-1.042-1.476Z" transform="translate(-75.651 -23.056)" fill="#9e80fb"/>
      <path id="Path_2640" data-name="Path 2640" d="M785.4,252.174l2,4.253c-2.43,2.777-5.381,4.513-8.159,4.513-5.381,0-8.246-6.51-6.51-14.582s7.464-14.929,12.933-15.363c2.864-.26,5.034,1.215,6.336,3.819l-3.819,4.513a3.715,3.715,0,0,0-3.732-2.343c-3.3.26-6.77,4.34-7.9,9.287s.694,8.853,3.993,8.766a7.577,7.577,0,0,0,4.861-2.864Z" transform="translate(-80.255 -16.172)" fill="#9e80fb"/>
      <path id="Path_2641" data-name="Path 2641" d="M794.878,245.976a25.4,25.4,0,0,1-5.381,10.936l-2-4.253a14.374,14.374,0,0,0,3.211-6.51,10.017,10.017,0,0,0-.434-6.336L794.1,235.3C795.4,237.991,795.746,241.723,794.878,245.976Z" transform="translate(-82.273 -16.744)" fill="#ffe779"/>
      <path id="Path_2642" data-name="Path 2642" d="M760.623,302.382c-1.736,8.072,1.128,14.582,6.51,14.582,2.778,0,5.729-1.736,8.159-4.513l-2-4.253a7.464,7.464,0,0,1-4.861,2.777c-3.3.087-5.034-3.906-3.993-8.766a14.366,14.366,0,0,1,2.691-5.815L765.31,292.4a24.677,24.677,0,0,0-4.687,9.982Z" transform="translate(-78.658 -24.284)" fill="#9e80fb"/>
      <path id="Path_2643" data-name="Path 2643" d="M773.117,292.184a3.758,3.758,0,0,1,3.732,2.343l3.819-4.513a6.275,6.275,0,0,0-6.336-3.819c-2.951.26-5.9,2.344-8.332,5.381l1.823,3.993C769.385,293.66,771.208,292.271,773.117,292.184Z" transform="translate(-79.435 -23.461)" fill="#ffe779"/>
      <path id="Path_2644" data-name="Path 2644" d="M782.678,301.376a25.4,25.4,0,0,1-5.381,10.936l-2-4.253a14.373,14.373,0,0,0,3.211-6.51,10.016,10.016,0,0,0-.434-6.336L781.9,290.7A16.39,16.39,0,0,1,782.678,301.376Z" transform="translate(-80.663 -24.059)" fill="#f5ea5c"/>
      <line id="Line_394" data-name="Line 394" y1="0.781" x2="21.352" transform="translate(646.813 234.179)" fill="none" stroke="#63737a" stroke-linecap="round" stroke-linejoin="round" stroke-width="1.8"/>
      <line id="Line_395" data-name="Line 395" y1="0.347" x2="30.552" transform="translate(645.598 239.474)" fill="none" stroke="#63737a" stroke-linecap="round" stroke-linejoin="round" stroke-width="1.8"/>
      <line id="Line_396" data-name="Line 396" x2="30.899" transform="translate(644.643 244.855)" fill="none" stroke="#63737a" stroke-linecap="round" stroke-linejoin="round" stroke-width="1.8"/>
    </g>
    <path id="Path_2645" data-name="Path 2645" d="M809.428,218.315c.174-.694-.087-1.215-.608-1.215a1.606,1.606,0,0,0-1.128,1.389c-.174.694.087,1.215.608,1.215A1.606,1.606,0,0,0,809.428,218.315Z" transform="translate(-84.933 -14.341)" fill="#63737a"/>
    <path id="Path_2646" data-name="Path 2646" d="M815.216,217.815c.174-.694-.174-1.215-.608-1.215a1.832,1.832,0,0,0-1.215,1.389c-.174.694.174,1.215.608,1.215A1.58,1.58,0,0,0,815.216,217.815Z" transform="translate(-85.686 -14.275)" fill="#63737a"/>
    <path id="Path_2647" data-name="Path 2647" d="M433.628,437.018v.26a1.554,1.554,0,0,1-1.562,1.562h-73.6a1.554,1.554,0,0,1-1.562-1.562h0a2.465,2.465,0,0,1,.608-1.476l14.235-14.061a3.472,3.472,0,0,1,2.43-1.042h48.345a3.611,3.611,0,0,1,3.038,1.736l7.812,13.453a6.845,6.845,0,0,1,.26,1.128Z" transform="translate(-25.417 -41.224)" fill="#212023"/>
    <path id="Path_2648" data-name="Path 2648" d="M402.63,435.121c0,.26-.521.521-1.215.521s-1.215-.26-1.215-.521.521-.521,1.215-.521S402.63,434.86,402.63,435.121Z" transform="translate(-31.135 -43.06)" fill="#9e80fb"/>
    <path id="Path_2649" data-name="Path 2649" d="M739.9,524.251s-6.683-14.321,10.068-23.348,40.013-.087,37.93,3.038a102.824,102.824,0,0,1-11.023,14.321C771.58,524.077,756.391,533.1,739.9,524.251Z" transform="translate(-75.815 -51.296)" fill="#9e80fb"/>
    <path id="Path_2650" data-name="Path 2650" d="M784.2,504.136s-36.8-8.246-45.134,20.918-5.729,57.112-5.729,57.112" transform="translate(-75.072 -52.099)" fill="none" stroke="#22272e" stroke-linecap="round" stroke-linejoin="round" stroke-width="1.8"/>
    <path id="Path_2651" data-name="Path 2651" d="M701.9,566.2l5.989,70.565c0,2.691,10.936,4.774,24.477,4.774s24.477-2.17,24.477-4.774l5.989-70.565Z" transform="translate(-70.971 -60.436)" fill="#22272e"/>
    <ellipse id="Ellipse_365" data-name="Ellipse 365" cx="30.379" cy="4.6" rx="30.379" ry="4.6" transform="translate(631.016 501.164)" fill="#6dafa7"/>
    <path id="Path_2652" data-name="Path 2652" d="M725.174,549.136s-9.808-4.861-16.144,6.076-1.649,27.428,2.691,29.858,22.393-5.815,22.393-22.393C734.114,547.921,725.174,549.136,725.174,549.136Z" transform="translate(-71.504 -58.041)" fill="#9e80fb"/>
    <path id="Path_2653" data-name="Path 2653" d="M726.159,549.3s-9.808-.694-12.759,33.677" transform="translate(-72.489 -58.204)" fill="none" stroke="#22272e" stroke-linecap="round" stroke-linejoin="round" stroke-width="1.8"/>
    <path id="Path_2654" data-name="Path 2654" d="M711.969,524.8s-10.329-16.057-30.986-5.729-20.05,38.8-16.839,40.447S715.7,544.331,711.969,524.8Z" transform="translate(-65.763 -53.756)" fill="#9e80fb"/>
    <path id="Path_2655" data-name="Path 2655" d="M728.84,559.167s-6.423-22.567-16.4-33.677S671.468,527.139,666,553.959" transform="translate(-66.231 -54.531)" fill="none" stroke="#22272e" stroke-linecap="round" stroke-linejoin="round" stroke-width="1.8"/>
    <path id="Path_2656" data-name="Path 2656" d="M749.569,536.383s-8.766-3.038-12.759,7.812c-3.906,10.589.694,34.718,23.261,42.009a3.125,3.125,0,0,0,3.3-.955,37.5,37.5,0,0,0,8.593-24.3C771.876,543.327,762.155,530.568,749.569,536.383Z" transform="translate(-75.416 -56.311)" fill="#9e80fb"/>
    <path id="Path_2657" data-name="Path 2657" d="M751.7,536.6s18.227,8.94,11.544,46.523" transform="translate(-77.546 -56.528)" fill="none" stroke="#22272e" stroke-linecap="round" stroke-linejoin="round" stroke-width="1.8"/>
    <path id="Path_2658" data-name="Path 2658" d="M539,400.778s.347,10.936,16.144,11.978,46.349-2.43,52.338-4.079,5.642-11.284,1.823-13.974-26.733-3.906-38.451-5.642c-2.691-.434-5.815-.955-9.027-1.215a66.2,66.2,0,0,0-8.246-.347C545.683,387.845,539.087,390.883,539,400.778Z" transform="translate(-49.462 -36.839)" fill="#9e80fb"/>
    <path id="Path_2659" data-name="Path 2659" d="M538.8,399.033s0-2.257,3.385-1.649c7.378,1.389,13.627,17.272,6.076,15.276" transform="translate(-49.435 -38.132)" fill="none" stroke="#22272e" stroke-linecap="round" stroke-linejoin="round" stroke-width="1.8"/>
    <path id="Path_2660" data-name="Path 2660" d="M572.972,389.06c-2.691-.434-5.815-.955-9.027-1.215a66.2,66.2,0,0,0-8.246-.347" transform="translate(-51.667 -36.839)" fill="none" stroke="#22272e" stroke-linecap="round" stroke-linejoin="round" stroke-width="1.8"/>
    <path id="Path_2661" data-name="Path 2661" d="M655.254,330.824c2.864.955,4.947,3.211,8.593,14.235,4.774,14.408,10.849,44.96,7.725,53.206s-9.374,12.5-30.379,13.453-41.4-.694-44.092-.694-7.2-9.895-4.34-16.4c0,0,17.793-4.34,27.862-7.03s21.178-5.555,25.778-6.076c0,0-7.464-18.314-9.895-24.737s-.434-17.359,5.295-22.307S652.823,330.043,655.254,330.824Z" transform="translate(-56.439 -29.291)" fill="#9e80fb"/>
    <path id="Path_2662" data-name="Path 2662" d="M654.6,389.183s8.593-1.736,13.714,0" transform="translate(-64.725 -36.961)" fill="none" stroke="#22272e" stroke-linecap="round" stroke-linejoin="round" stroke-width="1.8"/>
    <path id="Path_2663" data-name="Path 2663" d="M682.5,402.529s-1.823-4.34-9.2.521c-5.815,3.819-7.551,15.276-1.215,14.582" transform="translate(-66.504 -38.59)" fill="none" stroke="#22272e" stroke-linecap="round" stroke-linejoin="round" stroke-width="1.8"/>
    <path id="Path_2664" data-name="Path 2664" d="M589.142,404.6s-4.6.434-9.287.434-11.023.781-12.5,1.476-16.4,15.623-16.057,17.62,3.125.694,5.555-.955,6.944-6.163,7.9-6.77a54.853,54.853,0,0,0-2.344,6.944c-1.128,4.166-2.257,8.332-1.128,9.027,1.476.868,2.864-.608,3.3-1.476,0,0-.087,2.17,1.649,2.257s3.385-3.211,4.774-5.989a51.205,51.205,0,0,1,4.427-6.423s-1.389,4.427-1.91,6.857-.868,5.295.434,5.555c2,.434,3.819-5.468,4.947-7.725s5.555-.781,8.766-2.777a23.62,23.62,0,0,1,5.034-2.6s2.17-2.17,2.17-6.857S590.965,404.426,589.142,404.6Z" transform="translate(-51.085 -39.098)" fill="#f4c2c9"/>
    <path id="Path_2665" data-name="Path 2665" d="M566.4,432.359s4.166-12.151,5.9-14.495,2.344-2.517,2.864-2.864" transform="translate(-53.08 -40.472)" fill="none" stroke="#e26e85" stroke-linecap="round" stroke-linejoin="round" stroke-width="1.8"/>
    <path id="Path_2666" data-name="Path 2666" d="M566.6,417.455s.694-1.389,1.823-3.472a9.442,9.442,0,0,1,1.91-2.083" transform="translate(-53.106 -40.062)" fill="none" stroke="#e26e85" stroke-linecap="round" stroke-linejoin="round" stroke-width="1.8"/>
    <path id="Path_2667" data-name="Path 2667" d="M578.9,422.7s1.215-2.951,2.43-3.3" transform="translate(-54.73 -41.053)" fill="none" stroke="#e26e85" stroke-linecap="round" stroke-linejoin="round" stroke-width="1.8"/>
    <path id="Path_2668" data-name="Path 2668" d="M610.324,393.642a70.918,70.918,0,0,0,6.683-2.6c3.211-1.476,4.513-2.083,7.03-2.257s10.416-.26,11.544.434,2.6,3.993,3.385,5.642-1.736,8.159-1.736,8.159,1.128,5.729-.26,6.336c-.868.347-1.649.174-2.778-2.864,0,0,.781,2.6-.781,2.777s-3.3-4.34-4.427-6.336a35.45,35.45,0,0,0-3.3-4.513s.955,3.125,1.128,4.166.868,3.732.434,4.774-2-.347-3.559-3.906-2.083-4.774-3.038-4.687c-5.381.521-5.034-.694-7.638-.868l-5.729,1.476C607.2,399.284,606.592,395.812,610.324,393.642Z" transform="translate(-58.467 -36.994)" fill="#f4c2c9"/>
    <path id="Path_2669" data-name="Path 2669" d="M637.547,407.251s-1.736-5.642-2.344-7.378a36.3,36.3,0,0,0-2.6-4.774" transform="translate(-61.821 -37.844)" fill="none" stroke="#e26e85" stroke-linecap="round" stroke-linejoin="round" stroke-width="1.8"/>
    <path id="Path_2670" data-name="Path 2670" d="M641.4,403.542s-1.042-6.076-1.476-7.551A17.889,17.889,0,0,0,638.8,393.3" transform="translate(-62.639 -37.606)" fill="none" stroke="#e26e85" stroke-linecap="round" stroke-linejoin="round" stroke-width="1.8"/>
    <path id="Path_2671" data-name="Path 2671" d="M628.281,399.457s-.521-1.736-.781-2.257" transform="translate(-61.147 -38.121)" fill="none" stroke="#e26e85" stroke-linecap="round" stroke-linejoin="round" stroke-width="1.8"/>
    <g id="Group_139" data-name="Group 139" transform="translate(4.665 84.611)">
      <ellipse id="Ellipse_355" data-name="Ellipse 355" cx="8.093" cy="8.44" rx="8.093" ry="8.44" transform="translate(391.479 154.284)" fill="none" stroke="#22272e" stroke-linecap="round" stroke-linejoin="round" stroke-width="1.8"/>
      <ellipse id="Ellipse_356" data-name="Ellipse 356" cx="4.555" cy="6.659" rx="4.555" ry="6.659" transform="translate(413.41 159.925) rotate(13)" fill="none" stroke="#22272e" stroke-linecap="round" stroke-linejoin="round" stroke-width="1.8"/>
      <path id="Path_2482" data-name="Path 2482" d="M359.761,154.56s-.91-1.26-3.361,0" transform="translate(176.432 -146.295) rotate(30)" fill="none" stroke="#22272e" stroke-linecap="round" stroke-linejoin="round" stroke-width="1.8"/>
      <line id="Line_388" data-name="Line 388" x1="10.329" y1="0.781" transform="translate(380.498 159.925)" fill="none" stroke="#22272e" stroke-linecap="round" stroke-linejoin="round" stroke-width="1.8"/>
    </g>
    <path id="Path_2881" data-name="Path 2881" d="M442.477,268.923a1.328,1.328,0,0,0-.868-1.736h0a1.328,1.328,0,0,0-1.736.868l-.174.434,2.517.955Z" transform="translate(845.757 516.401) rotate(180)" fill="#22272e"/>
  </g>
</svg>
