<svg xmlns="http://www.w3.org/2000/svg" xmlns:xlink="http://www.w3.org/1999/xlink" width="766.17" height="610.121" viewBox="0 0 766.17 610.121">
  <defs>
    <clipPath id="clip-path">
      <path id="Path_935" data-name="Path 935" d="M846.135,614.833l-590.144-16.91a54.554,54.554,0,0,1-52.772-49.141L174.733,267.329A54.679,54.679,0,0,1,228.3,207.18L885.175,198.1a54.713,54.713,0,0,1,55.042,61.4L901.971,566.94A54.588,54.588,0,0,1,846.135,614.833Z" transform="translate(-174.458 -198.096)" fill="none"/>
    </clipPath>
    <clipPath id="clip-path-2">
      <path id="Path_996" data-name="Path 996" d="M563.708,213.935s5.674,1.7,17.7,1.929,25.762,3.745,31.1,10.441,7.036,56.064,6.242,78.421-16.8,55.61-16.8,55.61-38.246,4.313-69.569,2.837-38.813-8.4-40.97-10.554-3.4-7.377-2.156-9.647,7.377-19.861,9.647-36.77-2.5-40.516-.34-61.284,10.214-26.9,10.214-26.9,10.1-3.4,27.578-3.972a267.122,267.122,0,0,1,27.351-.114Z" transform="translate(-488.763 -213.639)" fill="rgba(255,255,255,0)"/>
    </clipPath>
  </defs>
  <g id="DrawKit_Vector_Illustration_Project_Manager_4_" data-name="DrawKit Vector Illustration Project Manager (4)" transform="translate(-174.458 -115.1)">
    <g id="fondo">
      <path id="Path_912" data-name="Path 912" d="M846.135,614.833l-590.144-16.91a54.554,54.554,0,0,1-52.772-49.141L174.733,267.329A54.679,54.679,0,0,1,228.3,207.18L885.175,198.1a54.713,54.713,0,0,1,55.042,61.4L901.971,566.94A54.588,54.588,0,0,1,846.135,614.833Z" transform="translate(0 11.195)" fill="#f1eefc"/>
      <g id="Group_104" data-name="Group 104" transform="translate(174.458 209.291)">
        <g id="Group_94" data-name="Group 94" clip-path="url(#clip-path)">
          <path id="Path_913" data-name="Path 913" d="M693.423,668.427h471.547a17.023,17.023,0,0,0,17.024-17.023V384.023A17.023,17.023,0,0,0,1164.971,367H693.423A17.023,17.023,0,0,0,676.4,384.023V651.4a17.023,17.023,0,0,0,17.023,17.023Z" transform="translate(-106.75 -175.312)" fill="none" stroke="#fff" stroke-linecap="round" stroke-linejoin="round" stroke-width="1.8"/>
          <path id="Path_914" data-name="Path 914" d="M144.323,667.29H619.956a17.023,17.023,0,0,0,17.023-17.023V259.523A17.023,17.023,0,0,0,619.956,242.5H144.323A17.023,17.023,0,0,0,127.3,259.523V650.267a17.023,17.023,0,0,0,17.023,17.023Z" transform="translate(-180.819 -192.106)" fill="none" stroke="#fff" stroke-linecap="round" stroke-linejoin="round" stroke-width="1.8"/>
          <path id="Path_915" data-name="Path 915" d="M714.8,370h23.038a4.9,4.9,0,0,0,4.88-4.313l1.816-16.342a4.914,4.914,0,0,0-4.88-5.447h-26.67a4.925,4.925,0,0,0-4.88,5.447l1.816,16.342A4.9,4.9,0,0,0,714.8,370Z" transform="translate(-102.477 -178.428)" fill="none" stroke="#fff" stroke-linecap="round" stroke-linejoin="round" stroke-width="1.8"/>
          <path id="Path_916" data-name="Path 916" d="M728.55,346.28s9.079-.908,10.895-13.165c0,0-8.171,2.383-10.781,8.171,0,0-1.135-12.938-7.263-14.186,0,0-2.724,9.647,1.589,14.413,0,0-3.291-5.447-11.689-5.334a15.434,15.434,0,0,0,10.441,9.987" transform="translate(-102.042 -180.694)" fill="#d3c5fe"/>
          <path id="Path_917" data-name="Path 917" d="M229.1,350.3h23.038a4.9,4.9,0,0,0,4.88-4.313l1.816-16.342a4.914,4.914,0,0,0-4.88-5.447h-26.67a4.925,4.925,0,0,0-4.88,5.447l1.816,16.342a4.914,4.914,0,0,0,4.88,4.313Z" transform="translate(-167.994 -181.085)" fill="none" stroke="#fff" stroke-linecap="round" stroke-linejoin="round" stroke-width="1.8"/>
          <path id="Path_918" data-name="Path 918" d="M242.85,326.48s9.079-.908,10.895-13.165c0,0-8.171,2.383-10.781,8.171,0,0-1.135-12.938-7.263-14.186,0,0-2.724,9.647,1.589,14.413,0,0-3.291-5.447-11.689-5.334a15.434,15.434,0,0,0,10.441,9.987" transform="translate(-167.559 -183.365)" fill="#d3c5fe"/>
          <path id="Path_919" data-name="Path 919" d="M695.167,421.543H797.534a4.8,4.8,0,0,0,4.767-4.767v-31.21a4.8,4.8,0,0,0-4.766-4.767H695.167a4.8,4.8,0,0,0-4.767,4.767v31.1A4.823,4.823,0,0,0,695.167,421.543Z" transform="translate(-104.861 -173.45)" fill="none" stroke="#fff" stroke-linecap="round" stroke-linejoin="round" stroke-width="1.8"/>
          <path id="Path_920" data-name="Path 920" d="M729.5,391h23.606a1.748,1.748,0,0,0,1.7-1.7h0a1.748,1.748,0,0,0-1.7-1.7H729.5a1.748,1.748,0,0,0-1.7,1.7h0a1.748,1.748,0,0,0,1.7,1.7Z" transform="translate(-99.816 -172.533)" fill="#d3c5fe"/>
          <path id="Path_921" data-name="Path 921" d="M695.167,467.329H797.534a4.8,4.8,0,0,0,4.767-4.767v-31.1a4.8,4.8,0,0,0-4.766-4.767H695.167a4.8,4.8,0,0,0-4.767,4.767v31.1A4.8,4.8,0,0,0,695.167,467.329Z" transform="translate(-104.861 -167.259)" fill="none" stroke="#fff" stroke-linecap="round" stroke-linejoin="round" stroke-width="1.8"/>
          <path id="Path_922" data-name="Path 922" d="M729.5,436.8h23.606a1.748,1.748,0,0,0,1.7-1.7h0a1.748,1.748,0,0,0-1.7-1.7H729.5a1.748,1.748,0,0,0-1.7,1.7h0a1.748,1.748,0,0,0,1.7,1.7Z" transform="translate(-99.816 -166.355)" fill="#d3c5fe"/>
          <path id="Path_923" data-name="Path 923" d="M231.967,499.729H334.334a4.8,4.8,0,0,0,4.767-4.767v-31.1a4.8,4.8,0,0,0-4.767-4.767H231.967a4.8,4.8,0,0,0-4.767,4.767v31.1A4.8,4.8,0,0,0,231.967,499.729Z" transform="translate(-167.343 -162.888)" fill="none" stroke="#fff" stroke-linecap="round" stroke-linejoin="round" stroke-width="1.8"/>
          <path id="Path_924" data-name="Path 924" d="M266.4,469.1h23.606a1.748,1.748,0,0,0,1.7-1.7h0a1.748,1.748,0,0,0-1.7-1.7H266.4a1.748,1.748,0,0,0-1.7,1.7h0a1.612,1.612,0,0,0,1.7,1.7Z" transform="translate(-162.285 -161.998)" fill="#d3c5fe"/>
          <path id="Path_925" data-name="Path 925" d="M347.767,499.729H450.134a4.8,4.8,0,0,0,4.767-4.767v-31.1a4.8,4.8,0,0,0-4.767-4.767H347.767A4.8,4.8,0,0,0,343,463.867v31.1a4.8,4.8,0,0,0,4.767,4.767Z" transform="translate(-151.723 -162.888)" fill="none" stroke="#fff" stroke-linecap="round" stroke-linejoin="round" stroke-width="1.8"/>
          <path id="Path_926" data-name="Path 926" d="M382.2,469.1h23.606a1.748,1.748,0,0,0,1.7-1.7h0a1.748,1.748,0,0,0-1.7-1.7H382.2a1.748,1.748,0,0,0-1.7,1.7h0a1.612,1.612,0,0,0,1.7,1.7Z" transform="translate(-146.664 -161.998)" fill="#d3c5fe"/>
          <path id="Path_927" data-name="Path 927" d="M810.167,421.543H912.534a4.8,4.8,0,0,0,4.767-4.767v-31.21a4.8,4.8,0,0,0-4.766-4.767H810.167a4.8,4.8,0,0,0-4.767,4.767v31.1A4.823,4.823,0,0,0,810.167,421.543Z" transform="translate(-89.349 -173.45)" fill="none" stroke="#fff" stroke-linecap="round" stroke-linejoin="round" stroke-width="1.8"/>
          <path id="Path_928" data-name="Path 928" d="M844.5,391h23.606a1.748,1.748,0,0,0,1.7-1.7h0a1.748,1.748,0,0,0-1.7-1.7H844.5a1.748,1.748,0,0,0-1.7,1.7h0a1.748,1.748,0,0,0,1.7,1.7Z" transform="translate(-84.304 -172.533)" fill="#d3c5fe"/>
          <path id="Path_929" data-name="Path 929" d="M810.167,467.329H912.534a4.8,4.8,0,0,0,4.767-4.767v-31.1a4.8,4.8,0,0,0-4.766-4.767H810.167a4.8,4.8,0,0,0-4.767,4.767v31.1A4.8,4.8,0,0,0,810.167,467.329Z" transform="translate(-89.349 -167.259)" fill="none" stroke="#fff" stroke-linecap="round" stroke-linejoin="round" stroke-width="1.8"/>
          <path id="Path_930" data-name="Path 930" d="M844.5,436.8h23.606a1.748,1.748,0,0,0,1.7-1.7h0a1.748,1.748,0,0,0-1.7-1.7H844.5a1.748,1.748,0,0,0-1.7,1.7h0a1.748,1.748,0,0,0,1.7,1.7Z" transform="translate(-84.304 -166.355)" fill="#d3c5fe"/>
          <path id="Path_931" data-name="Path 931" d="M100.721,359.292H617.1a5.277,5.277,0,0,0,5.22-5.221V263.621A5.277,5.277,0,0,0,617.1,258.4H100.72a5.277,5.277,0,0,0-5.221,5.22v90.451a5.209,5.209,0,0,0,5.221,5.22Z" transform="translate(-185.108 -189.961)" fill="none" stroke="#fff" stroke-linecap="round" stroke-linejoin="round" stroke-width="1.8"/>
          <path id="Path_932" data-name="Path 932" d="M100.721,458.292H617.1a5.277,5.277,0,0,0,5.22-5.221V362.62A5.277,5.277,0,0,0,617.1,357.4H100.72a5.277,5.277,0,0,0-5.221,5.22v90.451a5.277,5.277,0,0,0,5.221,5.22Z" transform="translate(-185.108 -176.607)" fill="none" stroke="#fff" stroke-linecap="round" stroke-linejoin="round" stroke-width="1.8"/>
          <rect id="Rectangle_68" data-name="Rectangle 68" width="11.235" height="57.085" transform="translate(391.279 112.348)" fill="none" stroke="#fff" stroke-linecap="round" stroke-linejoin="round" stroke-width="1.8"/>
          <rect id="Rectangle_69" data-name="Rectangle 69" width="11.689" height="41.537" transform="translate(379.545 127.794)" fill="none" stroke="#fff" stroke-linecap="round" stroke-linejoin="round" stroke-width="1.8"/>
          <rect id="Rectangle_70" data-name="Rectangle 70" width="11.235" height="57.085" transform="translate(52.65 224.407)" fill="none" stroke="#fff" stroke-linecap="round" stroke-linejoin="round" stroke-width="1.8"/>
          <rect id="Rectangle_71" data-name="Rectangle 71" width="11.689" height="41.537" transform="translate(40.916 239.967)" fill="none" stroke="#fff" stroke-linecap="round" stroke-linejoin="round" stroke-width="1.8"/>
          <rect id="Rectangle_72" data-name="Rectangle 72" width="11.235" height="57.085" transform="translate(75.45 224.407)" fill="none" stroke="#fff" stroke-linecap="round" stroke-linejoin="round" stroke-width="1.8"/>
          <rect id="Rectangle_73" data-name="Rectangle 73" width="11.235" height="57.085" transform="translate(86.501 226.61) rotate(-17.52)" fill="none" stroke="#fff" stroke-linecap="round" stroke-linejoin="round" stroke-width="1.8"/>
          <rect id="Rectangle_74" data-name="Rectangle 74" width="11.689" height="41.537" transform="translate(63.829 239.967)" fill="none" stroke="#fff" stroke-linecap="round" stroke-linejoin="round" stroke-width="1.8"/>
          <path id="Path_933" data-name="Path 933" d="M441.1,305.853l-1.248-16.91a1.873,1.873,0,0,1,1.929-2.043h9.76a1.941,1.941,0,0,1,1.929,2.043l-1.248,16.91s10.214,6.582,10.1,12.03c-.113,4.2-2.61,24.287-3.745,33.139a4.9,4.9,0,0,1-4.88,4.313H439.625a4.9,4.9,0,0,1-4.88-4.313c-1.135-8.852-3.632-28.94-3.745-33.139C430.887,312.435,441.1,305.853,441.1,305.853Z" transform="translate(-139.852 -186.117)" fill="#d3c5fe"/>
          <path id="Path_934" data-name="Path 934" d="M396.9,305.853l-1.248-16.91a1.873,1.873,0,0,1,1.929-2.043h9.76a1.941,1.941,0,0,1,1.929,2.043l-1.248,16.91s10.214,6.582,10.1,12.03c-.113,4.2-2.61,24.287-3.745,33.139a4.9,4.9,0,0,1-4.88,4.313H395.425a4.9,4.9,0,0,1-4.88-4.313c-1.135-8.852-3.632-28.94-3.745-33.139C386.687,312.435,396.9,305.853,396.9,305.853Z" transform="translate(-145.814 -186.117)" fill="#d3c5fe"/>
          <line id="Line_142" data-name="Line 142" x1="1058.74" transform="translate(-306.599 388.819)" fill="none" stroke="#fff" stroke-linecap="round" stroke-linejoin="round" stroke-width="1.8"/>
        </g>
        <path id="Path_936" data-name="Path 936" d="M435.784,449.389H341.361a5.572,5.572,0,0,1-5.561-5.561V428.961a5.572,5.572,0,0,1,5.561-5.561h94.423a5.572,5.572,0,0,1,5.561,5.561v14.867a5.572,5.572,0,0,1-5.561,5.561Z" transform="translate(-152.694 -167.704)" fill="none" stroke="#fff" stroke-linecap="round" stroke-linejoin="round" stroke-width="1.8"/>
        <rect id="Rectangle_75" data-name="Rectangle 75" width="68.093" height="23.833" transform="translate(201.718 231.75)" fill="none" stroke="#fff" stroke-linecap="round" stroke-linejoin="round" stroke-width="1.8"/>
        <circle id="Ellipse_159" data-name="Ellipse 159" cx="1.702" cy="1.702" r="1.702" transform="translate(192.072 262.619)" fill="#d3c5fe"/>
      </g>
      <path id="Path_966" data-name="Path 966" d="M480.707,272.384s-7.036,14.64-7.6,23.946,9.306,46.644,25.422,75.13c0,0,15.208-4.994,15.208-9.647s-8.966-59.7-8.4-61.284,6.809-13.278,6.809-18.272S483.09,266.936,480.707,272.384Z" transform="translate(40.282 21.008)" fill="#f4c2c9"/>
      <path id="Path_967" data-name="Path 967" d="M511.479,282.257c0-4.993-28.94-15.321-31.323-9.874,0,0-.908,2.043-2.156,4.993,9.193,7.15,19.066,13.278,30.3,15.321C509.89,289.066,511.479,284.754,511.479,282.257Z" transform="translate(40.945 21.008)" fill="#e26e85"/>
      <path id="Path_968" data-name="Path 968" d="M510.892,217.4s-11.349,3.859-19.974,23.379S473.1,276.641,473.1,276.641s14.186,14.073,32.344,21.222C523.6,305.241,524.284,219.216,510.892,217.4Z" transform="translate(40.284 13.799)" fill="#f3efff"/>
      <path id="Path_969" data-name="Path 969" d="M475.9,264.5s19.407,15.888,37.451,22.811" transform="translate(40.662 20.153)" fill="none" stroke="#333" stroke-linecap="round" stroke-linejoin="round" stroke-width="1.8"/>
      <path id="Path_970" data-name="Path 970" d="M543.645,590.77s-1.021,23.833-.794,26.1-7.944,7.15-18.045,6.809S513.8,620.39,513.8,620.39s-2.27-25.762-2.5-29.394S541.6,585.89,543.645,590.77Z" transform="translate(45.437 63.744)" fill="#f4c2c9"/>
      <path id="Path_971" data-name="Path 971" d="M543.077,604.5c.227-6.809.567-13.732.567-13.732-2.043-4.88-32.571-3.4-32.344.227.113,1.7.681,8.058,1.135,14.413C521.4,609.836,533.2,608.7,543.077,604.5Z" transform="translate(45.437 63.744)" fill="#22272e"/>
      <path id="Path_972" data-name="Path 972" d="M546.036,613.026s.908,6.7,1.248,13.959,1.475,20.542.227,22.811-8.171,4.2-24.4,5.447-31.209.113-33.82-1.929-1.816-5.107.681-7.49,12.37-12.938,16.456-17.25c5.334-5.674,9.193-11.462,9.193-12.143.34-2.724.908-2.724.908-2.724s.681,1.7,1.589,1.589,2.156-5.22,7.6-3.972,7.717,4.994,9.76,4.994S543.086,615.522,546.036,613.026Z" transform="translate(42.251 66.91)" fill="#212023"/>
      <path id="Path_973" data-name="Path 973" d="M577.3,595.07s3.064,24.514,3.632,25.989,6.242,5.561,15.094,5.107,12.257-3.064,12.6-3.632-.227-28.6-.454-30.415S579.343,590.758,577.3,595.07Z" transform="translate(54.34 64.21)" fill="#f4c2c9"/>
      <path id="Path_974" data-name="Path 974" d="M608.523,604.74c-.113-6.242-.34-12.03-.454-12.824-.34-1.816-28.713-1.248-30.869,3.064,0,0,.681,5.447,1.475,11.349A53.227,53.227,0,0,0,608.523,604.74Z" transform="translate(54.327 64.187)" fill="#22272e"/>
      <path id="Path_975" data-name="Path 975" d="M580.132,616.007a28,28,0,0,0-.227,5.334c.114,1.475.227,3.518.227,6.015.113,5.22.567,23.265,1.816,25.875s15.548,4.767,26.33,4.88,18.726-2.724,19.974-5.674.567-7.263-3.178-12.03-12.37-12.143-13.392-15.661a53.864,53.864,0,0,0-3.291-8.739,7.468,7.468,0,0,1-3.064,2.5c-1.475.454-3.632-5.675-8.285-5.9s-6.7,1.589-9.647,5.9a10.328,10.328,0,0,1-7.263-2.5Z" transform="translate(54.686 67.106)" fill="#212023"/>
      <path id="Path_976" data-name="Path 976" d="M492.914,334.321a240.953,240.953,0,0,0-4.086,29.053c-1.362,16.683,3.4,120.072,4.086,128.129s3.291,54.021,6.242,76.378c2.383,18.385.681,55.5,6.242,60.717s22.584,8.058,33.139,5.22,15.435-8.058,16.683-12.37-3.745-37.111-3.4-53.794,0-65.937-.567-77.626c0,0,4.653-59.7,10.214-73.314s13.619-63.781-1.816-78.307C543.985,323.88,494.276,331.937,492.914,334.321Z" transform="translate(42.373 28.98)" fill="#212023"/>
      <path id="Path_977" data-name="Path 977" d="M514.3,341.83s-.114,22.471.794,39.267a96.594,96.594,0,0,0,1.7,15.208c2.837,11.8,8.966,12.711,13.619,15.435s21.336,69.569,28.145,86.933c0,0,5.22,39.948,9.306,63.781s3.4,52.659,6.469,62.533,21,11.8,29.734,11.008,20.428-4.2,20.088-14.413-2.043-39.267-3.518-64.008-4.312-61.625-4.994-70.25c0,0-3.4-40.856-5.22-61.852s-.794-42.445-3.518-78.648C603.957,310.507,514.187,321.629,514.3,341.83Z" transform="translate(45.841 28.053)" fill="#212023"/>
      <path id="Path_978" data-name="Path 978" d="M515,374.2a96.594,96.594,0,0,0,1.7,15.208c2.837,11.8,8.966,12.711,13.619,15.435s21.336,69.569,28.145,86.933" transform="translate(45.936 34.95)" fill="none" stroke="#494555" stroke-linecap="round" stroke-linejoin="round" stroke-width="1.8"/>
      <path id="Path_979" data-name="Path 979" d="M530.78,401.778s-13.278-6.809-19.18-4.313" transform="translate(45.478 38.015)" fill="none" stroke="#494555" stroke-linecap="round" stroke-linejoin="round" stroke-width="1.8"/>
      <ellipse id="Ellipse_161" data-name="Ellipse 161" cx="14.981" cy="16.456" rx="14.981" ry="16.456" transform="translate(540.962 504.141)" fill="none" stroke="#494555" stroke-linecap="round" stroke-linejoin="round" stroke-width="1.8"/>
      <ellipse id="Ellipse_162" data-name="Ellipse 162" cx="15.435" cy="16.456" rx="15.435" ry="16.456" transform="translate(618.816 503.119)" fill="none" stroke="#494555" stroke-linecap="round" stroke-linejoin="round" stroke-width="1.8"/>
      <path id="Path_980" data-name="Path 980" d="M516.416,605.2a10.848,10.848,0,0,1,0-3.4" transform="translate(46.109 65.652)" fill="none" stroke="#63737a" stroke-linecap="round" stroke-linejoin="round" stroke-width="1.8"/>
      <path id="Path_981" data-name="Path 981" d="M524.7,606.68V601.8" transform="translate(47.245 65.652)" fill="none" stroke="#63737a" stroke-linecap="round" stroke-linejoin="round" stroke-width="1.8"/>
      <path id="Path_982" data-name="Path 982" d="M534.8,604.586s.114-2.837,0-4.086" transform="translate(48.607 65.476)" fill="none" stroke="#63737a" stroke-linecap="round" stroke-linejoin="round" stroke-width="1.8"/>
      <path id="Path_983" data-name="Path 983" d="M582.867,605.872s-.568-3.064-.568-3.972" transform="translate(55.015 65.665)" fill="none" stroke="#63737a" stroke-linecap="round" stroke-linejoin="round" stroke-width="1.8"/>
      <path id="Path_984" data-name="Path 984" d="M592.8,606.38a34.162,34.162,0,0,0,0-4.88" transform="translate(56.431 65.611)" fill="none" stroke="#63737a" stroke-linecap="round" stroke-linejoin="round" stroke-width="1.8"/>
      <path id="Path_985" data-name="Path 985" d="M601.4,604.659a20.626,20.626,0,0,0,0-3.859" transform="translate(57.591 65.517)" fill="none" stroke="#63737a" stroke-linecap="round" stroke-linejoin="round" stroke-width="1.8"/>
      <path id="Path_986" data-name="Path 986" d="M507,625.289s8.625-6.923,25.535,2.61" transform="translate(44.857 68.493)" fill="none" stroke="#fff" stroke-linecap="round" stroke-linejoin="round" stroke-width="1.8"/>
      <path id="Path_987" data-name="Path 987" d="M501.3,633.092s10.668-8.512,26.557,1.816" transform="translate(44.088 69.428)" fill="none" stroke="#fff" stroke-linecap="round" stroke-linejoin="round" stroke-width="1.8"/>
      <path id="Path_988" data-name="Path 988" d="M613.087,629.564s-10.327-4.54-24.287,2.837" transform="translate(55.891 69.211)" fill="none" stroke="#fff" stroke-linecap="round" stroke-linejoin="round" stroke-width="1.8"/>
      <path id="Path_989" data-name="Path 989" d="M617.429,636.372s-11.916-5.22-26.329,4.2" transform="translate(56.202 70.12)" fill="none" stroke="#fff" stroke-linecap="round" stroke-linejoin="round" stroke-width="1.8"/>
      <path id="Path_990" data-name="Path 990" d="M563.708,213.935s5.674,1.7,17.7,1.929,25.762,3.745,31.1,10.441,7.036,56.064,6.242,78.421-16.8,55.61-16.8,55.61-38.246,4.313-69.569,2.837-38.813-8.4-40.97-10.554-3.4-7.377-2.156-9.647,7.377-19.861,9.647-36.77-2.5-40.516-.34-61.284,10.214-26.9,10.214-26.9,10.1-3.4,27.578-3.972a267.122,267.122,0,0,1,27.351-.114Z" transform="translate(42.397 13.292)" fill="#9e80fb"/>
      <g id="Group_95" data-name="Group 95" transform="translate(531.16 226.931)" clip-path="url(#clip-path-2)">
        <path id="Path_991" data-name="Path 991" d="M517.448,209.9s-14.64,22.471-9.987,69.8-15.775,71.725-6.469,93.515" transform="translate(-487.445 -214.144)" fill="none" stroke="#42307b" stroke-linecap="round" stroke-linejoin="round" stroke-width="1.8"/>
        <path id="Path_992" data-name="Path 992" d="M587.908,213.6s-17.818,2.951-22.244,33.025c-2.872,19.518,1.043,43.291,3.584,63.98,1.331,10.833,2.28,20.927,1.523,28.854-2.156,22.584-8.171,35.863-8.171,35.863" transform="translate(-478.802 -213.645)" fill="none" stroke="#42307b" stroke-linecap="round" stroke-linejoin="round" stroke-width="1.8"/>
        <path id="Path_993" data-name="Path 993" d="M586.773,366.71s6.015-56.631,0-87.954,7.6-58.56,22.925-54.815" transform="translate(-475.738 -212.296)" fill="none" stroke="#42307b" stroke-linecap="round" stroke-linejoin="round" stroke-width="1.8"/>
        <path id="Path_994" data-name="Path 994" d="M540.2,371.049s4.994-36.77,3.291-69.682C542.81,289,535.66,228.28,562.1,209.1" transform="translate(-481.824 -214.252)" fill="none" stroke="#42307b" stroke-linecap="round" stroke-linejoin="round" stroke-width="1.8"/>
        <path id="Path_995" data-name="Path 995" d="M515.2,369.637s7.831-46.3,7.377-73.541-2.724-84.89,11.008-94.2" transform="translate(-485.196 -215.223)" fill="none" stroke="#42307b" stroke-linecap="round" stroke-linejoin="round" stroke-width="1.8"/>
      </g>
      <circle id="Ellipse_163" data-name="Ellipse 163" cx="7.377" cy="7.377" r="7.377" transform="translate(597.026 272.282)" fill="#f5ea5c"/>
      <path id="Path_997" data-name="Path 997" d="M532.943,210.223c-3.064.113-5.447,1.929-7.6,4.086a11.621,11.621,0,0,0-3.178,5.561c-4.312,20.882,2.27,46.077,10.668,45.85,10.555-.34,24.741-19.52,35.863-41.31,4.54-8.966-4.2-15.208-9.306-15.208C555.414,209.088,539.3,209.882,532.943,210.223Z" transform="translate(46.719 12.692)" fill="#f3efff"/>
      <path id="Path_998" data-name="Path 998" d="M576.661,171.367a39.959,39.959,0,0,1-5.334,18.272c-5.334,9.079-11.8,13.846-13.959,17.931s-1.589-6.582,0-11.689S568.376,163.536,576.661,171.367Z" transform="translate(51.461 7.4)" fill="#22272e"/>
      <path id="Path_999" data-name="Path 999" d="M529.707,203.856s-1.248,11.008-2.043,15.208-2.61,15.208,11.462,15.888c12.6.681,19.407-9.079,21.9-13.846a8.478,8.478,0,0,0,1.021-4.653c-.34-4.994-1.021-17.25-.681-27.237C561.824,176.5,529.707,194.89,529.707,203.856Z" transform="translate(47.572 9.412)" fill="#f4c2c9"/>
      <path id="Path_1000" data-name="Path 1000" d="M554.651,202.3c-6.7,5.334-16.569,7.831-25.876,6.469-.34,2.951-.794,6.128-1.135,7.944q-.17.851-.34,2.043C538.762,219.323,551.814,213.649,554.651,202.3Z" transform="translate(47.595 11.763)" fill="#e26e85"/>
      <path id="Path_1001" data-name="Path 1001" d="M517.916,165.736s-3.064,4.426-2.61,7.831,6.923,14.867,10.214,14.527,6.7-14.413,2.837-19.066S519.164,163.579,517.916,165.736Z" transform="translate(45.971 6.676)" fill="#22272e"/>
      <path id="Path_1002" data-name="Path 1002" d="M520.133,173.821A93.868,93.868,0,0,1,519,190.844c-1.475,9.079-2.5,22.7,11.008,26.443s29.394-1.362,34.387-19.974,8.625-37.451-8.625-42.9S518.09,156,520.133,173.821Z" transform="translate(46.364 5.06)" fill="#f4c2c9"/>
      <path id="Path_1003" data-name="Path 1003" d="M525.521,179.3a7.23,7.23,0,0,1-.227,4.086,5.755,5.755,0,0,1-1.021,1.816,4.938,4.938,0,0,1-.681.794c-.113.114-.227.34-.34.454a1.577,1.577,0,0,0,0,1.021,4.255,4.255,0,0,0,.794,1.362,11.123,11.123,0,0,0,2.724,2.383,5.459,5.459,0,0,1-3.859-1.248,4.732,4.732,0,0,1-1.475-1.816,3.007,3.007,0,0,1,0-2.61,2.474,2.474,0,0,1,.794-1.021c.227-.227.454-.34.567-.567a10.642,10.642,0,0,0,1.021-1.362,15.018,15.018,0,0,0,1.7-3.291Z" transform="translate(46.764 8.66)" fill="#22272e"/>
      <path id="Path_1004" data-name="Path 1004" d="M564.693,189.4a21.258,21.258,0,0,1-2.5-7.831c-.681-5.22-6.242-4.88-8.852-14.527s-8.966,2.27-19.066,6.582-18.045-2.61-22.13-10.328,2.837-14.527,7.49-17.7,9.533,1.929,18.612-.34,23.719-5.107,30.756,5.107,14.3,12.711,13.846,23.833-13.505,23.492-14.3,23.606S564.693,189.4,564.693,189.4Z" transform="translate(45.384 3.776)" fill="#212023"/>
      <path id="Path_1005" data-name="Path 1005" d="M537.237,174.976c-.34-.908-.681-2.61.567-3.518s4.086-.567,6.809,1.135c2.383,1.475,3.064,3.859,1.475,3.632s-2.837-.908-4.767-1.021S537.578,175.771,537.237,174.976Z" transform="translate(48.893 7.536)" fill="#22272e"/>
      <path id="Path_1006" data-name="Path 1006" d="M525.913,173.862a3.847,3.847,0,0,0-.341-3.291c-.681-.908-2.5-.794-4.2.454-1.475,1.135-1.929,3.291-.908,3.178a11.5,11.5,0,0,1,2.951-.454C524.665,173.862,525.686,174.543,525.913,173.862Z" transform="translate(46.599 7.402)" fill="#22272e"/>
      <path id="Path_1008" data-name="Path 1008" d="M522.576,181.4h0a1.657,1.657,0,0,0,1.816-1.475l.113-.908a1.657,1.657,0,0,0-1.475-1.816h0a1.657,1.657,0,0,0-1.816,1.475l-.113.908A1.657,1.657,0,0,0,522.576,181.4Z" transform="translate(46.758 8.376)" fill="#22272e"/>
      <path id="Path_1009" data-name="Path 1009" d="M538.479,182.4h0a1.657,1.657,0,0,0,1.816-1.475l.113-.908a1.657,1.657,0,0,0-1.475-1.816h0a1.657,1.657,0,0,0-1.816,1.475l-.113.908a1.532,1.532,0,0,0,1.475,1.816Z" transform="translate(48.901 8.511)" fill="#22272e"/>
      <path id="Path_1010" data-name="Path 1010" d="M557.2,185.523s3.064-6.809,8.4-6.015,2.724,15.208-7.15,15.094" transform="translate(51.629 8.679)" fill="#f4c2c9"/>
      <path id="Path_1011" data-name="Path 1011" d="M564.88,184.256a4.958,4.958,0,0,0-.908-.794c-.34-.114-.227.113-.454.227,0,.113-.227,1.021-.34,1.816a7.1,7.1,0,0,1-.794,2.5,3.223,3.223,0,0,1-.908,1.248,1.43,1.43,0,0,1-1.475.227,1.316,1.316,0,0,0,.681-.908c.113-.34.113-.681.227-1.021a21.779,21.779,0,0,1,.34-2.5l.34-1.362.34-.681c.113-.113.113-.227.34-.34a1.567,1.567,0,0,0,.454-.34,2.27,2.27,0,0,1,1.021-.227,1.793,1.793,0,0,1,.908.567,2.054,2.054,0,0,1,.227,1.589Z" transform="translate(52.006 9.038)" fill="#22272e"/>
      <path id="Path_1012" data-name="Path 1012" d="M529.4,197a11.814,11.814,0,0,0,6.128.794" transform="translate(47.879 11.048)" fill="none" stroke="#fff" stroke-linecap="round" stroke-linejoin="round" stroke-width="1.8"/>
      <ellipse id="Ellipse_164" data-name="Ellipse 164" cx="10.328" cy="6.809" rx="10.328" ry="6.809" transform="translate(557.234 195.481) rotate(-84.55)" fill="none" stroke="#22272e" stroke-linecap="round" stroke-linejoin="round" stroke-width="1.8"/>
      <ellipse id="Ellipse_165" data-name="Ellipse 165" cx="10.328" cy="8.739" rx="10.328" ry="8.739" transform="translate(578.628 197.321) rotate(-84.55)" fill="none" stroke="#22272e" stroke-linecap="round" stroke-linejoin="round" stroke-width="1.8"/>
      <path id="Path_1013" data-name="Path 1013" d="M524.3,179.67s1.929-3.632,8.058.681" transform="translate(47.191 8.517)" fill="none" stroke="#22272e" stroke-linecap="round" stroke-linejoin="round" stroke-width="1.8"/>
      <line id="Line_167" data-name="Line 167" x2="12.824" y2="2.724" transform="translate(596.912 188.754)" fill="none" stroke="#22272e" stroke-linecap="round" stroke-linejoin="round" stroke-width="1.8"/>
      <path id="Path_1014" data-name="Path 1014" d="M592.806,293.892l6.015,12.143s-6.355,8.625-13.165,24.968-11.8,36.544-16.456,42.331c0,0,4.54,10.895,15.661,15.661,0,0,21.676-31.777,31.55-45.623s19.293-31.55,18.612-40.4c-1.021-13.051-10.895-32.344-11.8-37.565S593.033,278.8,592.806,293.892Z" transform="translate(53.247 20.154)" fill="#f4c2c9"/>
      <path id="Path_1015" data-name="Path 1015" d="M620.3,265.4c-.794-5.107-30.075,13.392-30.3,28.486l.908,1.7a107.441,107.441,0,0,1,34.274-16.91C622.8,272.78,620.642,267.673,620.3,265.4Z" transform="translate(56.053 20.158)" fill="#e26e85"/>
      <path id="Path_1016" data-name="Path 1016" d="M574.79,350.039c1.589,2.724,7.036,9.987,19.747,12.938a.567.567,0,0,1,.34.908l-5.788,7.831c-.113.227-.454.227-.681.227-14.186-4.313-17.931-11.462-18.5-12.824a.341.341,0,0,1,0-.454l3.859-8.512C574,349.585,574.563,349.585,574.79,350.039Z" transform="translate(53.332 31.647)" fill="#22272e"/>
      <ellipse id="Ellipse_166" data-name="Ellipse 166" cx="5.428" cy="5.202" rx="5.428" ry="5.202" transform="matrix(0.522, -0.853, 0.853, 0.522, 622.877, 397.721)" fill="#fff"/>
      <path id="Path_1017" data-name="Path 1017" d="M595.485,224.013a7.49,7.49,0,0,1,7.15,2.724c2.61,3.291,6.923,9.647,12.257,20.542,8.966,18.272,15.208,30.3,15.208,30.3s-31.1,16.8-37.905,21.79c0,0-12.6-21.222-16.683-30.075C571.539,260.9,572.674,228.212,595.485,224.013Z" transform="translate(53.859 14.677)" fill="#f3efff"/>
      <path id="Path_1018" data-name="Path 1018" d="M586.6,287.217A218.52,218.52,0,0,1,624.846,265.2" transform="translate(55.595 20.247)" fill="none" stroke="#333" stroke-linecap="round" stroke-linejoin="round" stroke-width="1.8"/>
      <path id="Path_1019" data-name="Path 1019" d="M565.3,353.8a41.8,41.8,0,0,0,27.237,26.783" transform="translate(52.721 32.199)" fill="none" stroke="#494555" stroke-linecap="round" stroke-linejoin="round" stroke-width="1.8"/>
      <path id="Path_1020" data-name="Path 1020" d="M595.3,301.734a17.024,17.024,0,0,1,9.306-5.334" transform="translate(56.768 24.456)" fill="none" stroke="#e26e85" stroke-linecap="round" stroke-linejoin="round" stroke-width="1.8"/>
    </g>
    <g id="laptop">
      <path id="Path_937" data-name="Path 937" d="M439.547,427.253l47.892-17.818a4.8,4.8,0,0,0,3.064-4.426h0L395.4,398.2l14.64,26.329,24.741,3.291A9.726,9.726,0,0,0,439.547,427.253Z" transform="translate(29.803 38.188)" fill="#5d98ff"/>
      <path id="Path_938" data-name="Path 938" d="M329.128,416.9l-8.625-67.3a3.041,3.041,0,0,1,3.178-3.4l115.078,8.171a3.4,3.4,0,0,1,3.178,3.178l6.809,74.108a3.019,3.019,0,0,1-3.4,3.291L332.078,419.968A3.609,3.609,0,0,1,329.128,416.9Z" transform="translate(19.697 31.173)" fill="#212023"/>
      <path id="Path_939" data-name="Path 939" d="M486.052,404.3a4.687,4.687,0,0,1-3.064,4.426L435.1,426.544a8.387,8.387,0,0,1-3.745.567,11.973,11.973,0,0,1-2.951-3.518Z" transform="translate(34.255 39.011)" fill="#22272e"/>
      <ellipse id="Ellipse_160" data-name="Ellipse 160" cx="6.809" cy="7.944" rx="6.809" ry="7.944" transform="translate(388.883 417.028) rotate(-36.44)" fill="#494555"/>
    </g>
    <g id="cuadrito">
      <path id="Path_940" data-name="Path 940" d="M616.156,143.472H581.429l-3.518,2.27a1.691,1.691,0,0,1-2.61-1.475V119.64a4.54,4.54,0,0,1,4.54-4.54h36.43a4.54,4.54,0,0,1,4.54,4.54v19.18a4.744,4.744,0,0,1-4.653,4.653Z" transform="translate(54.07)" fill="#f5ea5c"/>
      <line id="Line_143" data-name="Line 143" x2="12.143" transform="translate(651.614 126.449)" fill="none" stroke="#22272e" stroke-linecap="round" stroke-linejoin="round" stroke-width="1.8"/>
      <line id="Line_144" data-name="Line 144" x2="7.377" transform="translate(651.614 132.691)" fill="none" stroke="#22272e" stroke-linecap="round" stroke-linejoin="round" stroke-width="1.8"/>
      <rect id="Rectangle_76" data-name="Rectangle 76" width="6.242" height="6.242" transform="translate(639.13 126.449)" fill="none" stroke="#22272e" stroke-linecap="round" stroke-linejoin="round" stroke-width="1.8"/>
    </g>
    <g id="panel1">
      <path id="Path_941" data-name="Path 941" d="M453.673,320.887l-191.8,29.053a7.4,7.4,0,0,1-8.512-6.809L241.9,170.4a7.865,7.865,0,0,1,8.4-8.4l192.137,12.257a7.422,7.422,0,0,1,6.923,6.7l11.008,131.534A8.012,8.012,0,0,1,453.673,320.887Z" transform="translate(9.095 6.324)" fill="#69686b"/>
      <path id="Path_942" data-name="Path 942" d="M458.395,320.782l-192.7,29.167a7.4,7.4,0,0,1-8.512-6.809L245.6,169.614a7.944,7.944,0,0,1,8.512-8.512l192.932,12.257a7.434,7.434,0,0,1,6.923,6.809l11.122,132.1A7.729,7.729,0,0,1,458.395,320.782Z" transform="translate(9.594 6.202)" fill="#212023"/>
      <path id="Path_943" data-name="Path 943" d="M329.617,255.254l-54.248,2.951a3.155,3.155,0,0,1-3.291-2.951L268.9,209.4a3.223,3.223,0,0,1,3.178-3.4l54.248.341a3.132,3.132,0,0,1,3.178,2.951l3.178,42.558a3.2,3.2,0,0,1-3.064,3.4Z" transform="translate(12.739 12.262)" fill="#9e80fb"/>
      <path id="Path_944" data-name="Path 944" d="M379.817,237.51l-45.4,1.589a3.155,3.155,0,0,1-3.291-2.951L329.2,209.7a3.223,3.223,0,0,1,3.178-3.4l45.4.341a3.291,3.291,0,0,1,3.178,2.951l1.929,24.514a3.132,3.132,0,0,1-3.064,3.4Z" transform="translate(20.873 12.302)" fill="#89b2fb"/>
      <path id="Path_945" data-name="Path 945" d="M424.267,235.74,386.021,237.1a3.155,3.155,0,0,1-3.291-2.951L380.8,210.2a3.223,3.223,0,0,1,3.178-3.4l38.246.227a3.291,3.291,0,0,1,3.178,2.951l1.816,22.357a3.1,3.1,0,0,1-2.951,3.4Z" transform="translate(27.833 12.37)" fill="#f5ea5c"/>
      <path id="Path_946" data-name="Path 946" d="M332.509,292.607l-54.248,5.9a3.144,3.144,0,0,1-3.518-2.951L272.7,265.937a3.257,3.257,0,0,1,2.951-3.4l54.361-3.632a3.178,3.178,0,0,1,3.4,2.951L335.46,289.2a3.4,3.4,0,0,1-2.951,3.4Z" transform="translate(13.252 19.396)" fill="none" stroke="#63737a" stroke-linecap="round" stroke-linejoin="round" stroke-width="1.8"/>
      <path id="Path_947" data-name="Path 947" d="M384.533,293.792l-45.282,5.334a3.144,3.144,0,0,1-3.518-2.951L332.1,247.261a3.189,3.189,0,0,1,2.951-3.4l45.4-2.156a3.155,3.155,0,0,1,3.291,2.951l3.632,45.736a3.234,3.234,0,0,1-2.837,3.4Z" transform="translate(21.264 17.077)" fill="#f5ea5c"/>
      <path id="Path_948" data-name="Path 948" d="M374.022,249.2l-32.571,1.929A1.26,1.26,0,0,0,340.2,252.6l1.475,20.2a1.316,1.316,0,0,0,1.475,1.248l32.571-2.837a1.317,1.317,0,0,0,1.248-1.475L375.5,250.448A1.566,1.566,0,0,0,374.022,249.2Z" transform="translate(22.355 18.089)" fill="#89b2fb"/>
      <path id="Path_949" data-name="Path 949" d="M428.429,282.853l-38.246,4.2a3.144,3.144,0,0,1-3.518-2.951L383.6,244.721a3.189,3.189,0,0,1,2.951-3.4L424.8,239.5a3.155,3.155,0,0,1,3.291,2.951l3.064,37a3.064,3.064,0,0,1-2.724,3.4Z" transform="translate(28.211 16.78)" fill="#89b2fb"/>
      <line id="Line_145" data-name="Line 145" x2="0.681" y2="8.398" transform="translate(318.07 293.278)" fill="none" stroke="#63737a" stroke-linecap="round" stroke-linejoin="round" stroke-width="1.8"/>
      <line id="Line_146" data-name="Line 146" y1="0.681" x2="7.944" transform="translate(314.438 297.137)" fill="none" stroke="#63737a" stroke-linecap="round" stroke-linejoin="round" stroke-width="1.8"/>
      <path id="Path_950" data-name="Path 950" d="M349.782,280.761c-.227-2.27-1.929-4.086-3.972-3.859a4.142,4.142,0,0,0-3.4,4.653,3.927,3.927,0,0,0,4.086,3.859A4.4,4.4,0,0,0,349.782,280.761Z" transform="translate(22.649 21.823)" fill="#282828"/>
      <line id="Line_147" data-name="Line 147" y1="2.156" x2="21.222" transform="translate(379.013 299.747)" fill="none" stroke="#282828" stroke-linecap="round" stroke-linejoin="round" stroke-width="1.8"/>
      <path id="Path_951" data-name="Path 951" d="M397.07,250.945a3.825,3.825,0,0,0-3.518-3.745c-1.816.113-3.064,1.929-2.951,4.086s1.7,3.859,3.518,3.745A3.494,3.494,0,0,0,397.07,250.945Z" transform="translate(29.155 17.819)" fill="#9e80fb"/>
      <line id="Line_148" data-name="Line 148" y1="1.135" x2="18.272" transform="translate(432.013 267.289)" fill="none" stroke="#282828" stroke-linecap="round" stroke-linejoin="round" stroke-width="1.8"/>
      <path id="Path_952" data-name="Path 952" d="M397.97,261.632c-.227-2.156-1.7-3.745-3.518-3.632s-3.064,2.043-2.951,4.2,1.816,3.859,3.518,3.632a3.666,3.666,0,0,0,2.951-4.2Z" transform="translate(29.276 19.275)" fill="#9e80fb"/>
      <line id="Line_149" data-name="Line 149" y1="1.475" x2="18.385" transform="translate(432.921 278.978)" fill="none" stroke="#282828" stroke-linecap="round" stroke-linejoin="round" stroke-width="1.8"/>
      <path id="Path_953" data-name="Path 953" d="M398.87,272.332c-.227-2.156-1.7-3.745-3.518-3.632s-3.064,2.043-2.951,4.2a3.629,3.629,0,0,0,3.518,3.632,3.756,3.756,0,0,0,2.951-4.2Z" transform="translate(29.398 20.719)" fill="#9e80fb"/>
      <line id="Line_150" data-name="Line 150" y1="1.816" x2="18.272" transform="translate(433.942 290.668)" fill="none" stroke="#282828" stroke-linecap="round" stroke-linejoin="round" stroke-width="1.8"/>
      <path id="Path_954" data-name="Path 954" d="M286.706,223.414l-7.377.113a1.453,1.453,0,0,1-1.362-1.248l-.567-7.717a1.316,1.316,0,0,1,1.362-1.362h7.377a1.453,1.453,0,0,1,1.362,1.248l.567,7.6a1.566,1.566,0,0,1-1.362,1.362Z" transform="translate(13.886 13.233)" fill="#89b2fb"/>
      <line id="Line_151" data-name="Line 151" y1="0.113" x2="25.535" transform="translate(308.536 226.319)" fill="none" stroke="#282828" stroke-linecap="round" stroke-linejoin="round" stroke-width="1.8"/>
      <line id="Line_152" data-name="Line 152" y1="0.227" x2="25.535" transform="translate(308.99 232.788)" fill="none" stroke="#282828" stroke-linecap="round" stroke-linejoin="round" stroke-width="1.8"/>
      <path id="Path_955" data-name="Path 955" d="M394.35,221.639l-5.788.113a.976.976,0,0,1-.794-.681l-.567-7.377a.772.772,0,0,1,.794-.794h5.788a.976.976,0,0,1,.794.681l.567,7.263a.851.851,0,0,1-.794.794Z" transform="translate(28.697 13.192)" fill="#282828"/>
      <line id="Line_153" data-name="Line 153" x2="18.953" transform="translate(428.494 225.979)" fill="none" stroke="#282828" stroke-linecap="round" stroke-linejoin="round" stroke-width="1.8"/>
      <line id="Line_154" data-name="Line 154" y1="0.227" x2="18.839" transform="translate(429.062 231.54)" fill="none" stroke="#282828" stroke-linecap="round" stroke-linejoin="round" stroke-width="1.8"/>
      <line id="Line_155" data-name="Line 155" y1="0.794" x2="31.55" transform="translate(417.032 240.392)" fill="none" stroke="#282828" stroke-linecap="round" stroke-linejoin="round" stroke-width="1.8"/>
      <path id="Path_956" data-name="Path 956" d="M287.806,238.928l-7.377.227a1.362,1.362,0,0,1-1.362-1.248l-.567-7.717a1.282,1.282,0,0,1,1.248-1.362l7.377-.227a1.453,1.453,0,0,1,1.362,1.248l.567,7.6A1.4,1.4,0,0,1,287.806,238.928Z" transform="translate(14.034 15.31)" fill="#89b2fb"/>
      <line id="Line_156" data-name="Line 156" y1="0.681" x2="25.535" transform="translate(309.785 243.116)" fill="none" stroke="#282828" stroke-linecap="round" stroke-linejoin="round" stroke-width="1.8"/>
      <line id="Line_157" data-name="Line 157" y1="0.794" x2="25.535" transform="translate(310.239 249.698)" fill="none" stroke="#282828" stroke-linecap="round" stroke-linejoin="round" stroke-width="1.8"/>
      <path id="Path_957" data-name="Path 957" d="M307.984,190.73,269.738,189.6a2.451,2.451,0,0,1-2.383-2.27l-.454-6.015a2.417,2.417,0,0,1,2.5-2.61l38.246,1.589a2.451,2.451,0,0,1,2.383,2.27l.454,5.561a2.474,2.474,0,0,1-2.5,2.61Z" transform="translate(12.469 8.579)" fill="#9e80fb"/>
      <line id="Line_158" data-name="Line 158" y1="0.113" x2="36.09" transform="translate(359.153 226.092)" fill="none" stroke="#282828" stroke-linecap="round" stroke-linejoin="round" stroke-width="1.8"/>
      <line id="Line_159" data-name="Line 159" y1="0.454" x2="36.09" transform="translate(359.607 232.107)" fill="none" stroke="#282828" stroke-linecap="round" stroke-linejoin="round" stroke-width="1.8"/>
      <line id="Line_160" data-name="Line 160" y1="0.454" x2="19.407" transform="translate(360.287 242.094)" fill="none" stroke="#282828" stroke-linecap="round" stroke-linejoin="round" stroke-width="1.8"/>
      <path id="Path_958" data-name="Path 958" d="M418.71,189.192a3.4,3.4,0,0,0-2.837-3.291c-1.362-.114-2.5,1.362-2.27,3.064a3.234,3.234,0,0,0,2.837,3.291C417.8,192.37,418.824,190.894,418.71,189.192Z" transform="translate(32.255 9.55)" fill="#63737a"/>
      <path id="Path_959" data-name="Path 959" d="M409.822,188.892a3.337,3.337,0,0,0-2.837-3.291c-1.475-.113-2.5,1.362-2.383,3.178a3.325,3.325,0,0,0,2.951,3.291C408.914,192.07,409.935,190.594,409.822,188.892Z" transform="translate(31.043 9.509)" fill="#63737a"/>
      <path id="Path_960" data-name="Path 960" d="M400.648,188.505a3.552,3.552,0,0,0-2.951-3.4c-1.475-.113-2.61,1.362-2.5,3.178a3.552,3.552,0,0,0,2.951,3.4C399.741,191.8,400.762,190.321,400.648,188.505Z" transform="translate(29.775 9.442)" fill="#63737a"/>
    </g>
    <g id="cuadro1">
      <path id="Path_961" data-name="Path 961" d="M465.688,209.428,415.3,208.52a3.859,3.859,0,0,1-3.859-3.632l-4.54-55.5a3.1,3.1,0,0,1,3.291-3.291l50.616,5.334a3.893,3.893,0,0,1,3.518,3.632l4.426,50.957a3.075,3.075,0,0,1-3.064,3.4Z" transform="translate(31.354 4.181)" fill="#827904"/>
      <path id="Path_962" data-name="Path 962" d="M468.088,208.628,417.7,207.72a3.859,3.859,0,0,1-3.859-3.632l-4.54-55.5a3.1,3.1,0,0,1,3.291-3.291l50.616,5.334a3.893,3.893,0,0,1,3.518,3.632l4.426,50.957a3.144,3.144,0,0,1-3.064,3.4Z" transform="translate(31.677 4.073)" fill="#f5ea5c"/>
      <line id="Line_161" data-name="Line 161" x2="26.67" y2="2.497" transform="translate(462.995 159.701)" fill="none" stroke="#63737a" stroke-linecap="round" stroke-linejoin="round" stroke-width="1.8"/>
      <line id="Line_162" data-name="Line 162" x2="26.67" y2="2.27" transform="translate(463.449 165.149)" fill="none" stroke="#63737a" stroke-linecap="round" stroke-linejoin="round" stroke-width="1.8"/>
      <line id="Line_163" data-name="Line 163" x2="26.783" y2="1.816" transform="translate(464.47 177.633)" fill="none" stroke="#63737a" stroke-linecap="round" stroke-linejoin="round" stroke-width="1.8"/>
      <line id="Line_164" data-name="Line 164" x2="26.67" y2="1.589" transform="translate(464.924 182.967)" fill="none" stroke="#63737a" stroke-linecap="round" stroke-linejoin="round" stroke-width="1.8"/>
      <line id="Line_165" data-name="Line 165" x2="26.67" y2="1.135" transform="translate(466.059 195.564)" fill="none" stroke="#63737a" stroke-linecap="round" stroke-linejoin="round" stroke-width="1.8"/>
      <line id="Line_166" data-name="Line 166" x2="26.67" y2="0.908" transform="translate(466.513 200.898)" fill="none" stroke="#63737a" stroke-linecap="round" stroke-linejoin="round" stroke-width="1.8"/>
      <path id="Path_963" data-name="Path 963" d="M420.6,157.208l1.362,1.7,1.929-2.61" transform="translate(33.203 5.558)" fill="none" stroke="#6dafa7" stroke-linecap="round" stroke-linejoin="round" stroke-width="1.8"/>
      <path id="Path_964" data-name="Path 964" d="M421.9,173.221l1.362,1.589,2.043-2.61" transform="translate(33.378 7.702)" fill="none" stroke="#6dafa7" stroke-linecap="round" stroke-linejoin="round" stroke-width="1.8"/>
      <path id="Path_965" data-name="Path 965" d="M423.2,188.935l1.475,1.589L426.6,187.8" transform="translate(33.553 9.807)" fill="none" stroke="#6dafa7" stroke-linecap="round" stroke-linejoin="round" stroke-width="1.8"/>
    </g>
    <g id="panel2">
      <path id="Path_1021" data-name="Path 1021" d="M756.063,342.766,655.625,330.4a5.969,5.969,0,0,1-5.22-6.582l10.668-99.643a8.545,8.545,0,0,1,7.263-7.49l103.956-14.073a6.026,6.026,0,0,1,6.809,6.7L763.667,336.978a6.809,6.809,0,0,1-7.6,5.788Z" transform="translate(64.196 11.796)" fill="#69686b"/>
      <path id="Path_1022" data-name="Path 1022" d="M753.063,342.479,652.625,330a5.969,5.969,0,0,1-5.22-6.582l10.668-99.644a8.546,8.546,0,0,1,7.263-7.49l103.956-14.073a6.026,6.026,0,0,1,6.809,6.7L760.667,336.578A6.866,6.866,0,0,1,753.063,342.479Z" transform="translate(63.792 11.742)" fill="#212023"/>
      <path id="Path_1023" data-name="Path 1023" d="M746.82,247.263l-78.648,3.972a2.122,2.122,0,0,1-2.27-2.383l1.929-17.591a2.179,2.179,0,0,1,1.929-1.929L749.09,221.5a2.19,2.19,0,0,1,2.383,2.5l-2.61,21.563C748.863,246.355,747.955,247.15,746.82,247.263Z" transform="translate(66.289 14.351)" fill="#89b2fb"/>
      <line id="Line_168" data-name="Line 168" y1="4.199" x2="52.092" transform="translate(754.549 245.613)" fill="none" stroke="#22272e" stroke-linecap="round" stroke-linejoin="round" stroke-width="1.8"/>
      <line id="Line_169" data-name="Line 169" y1="1.929" x2="28.032" transform="translate(753.868 254.578)" fill="none" stroke="#22272e" stroke-linecap="round" stroke-linejoin="round" stroke-width="1.8"/>
      <ellipse id="Ellipse_167" data-name="Ellipse 167" cx="3.859" cy="3.178" rx="3.859" ry="3.178" transform="translate(738.08 255.716) rotate(-61.66)" fill="#22272e"/>
      <path id="Path_1024" data-name="Path 1024" d="M742.8,278.949l-77.74-1.362A2.27,2.27,0,0,1,662.9,275.2l1.929-17.477a2.111,2.111,0,0,1,2.156-1.929l78.307-2.5a2.27,2.27,0,0,1,2.27,2.5l-2.5,21.336A2.338,2.338,0,0,1,742.8,278.949Z" transform="translate(65.886 18.642)" fill="#f5ea5c"/>
      <line id="Line_170" data-name="Line 170" y1="0.681" x2="51.524" transform="translate(751.031 281.135)" fill="none" stroke="#22272e" stroke-linecap="round" stroke-linejoin="round" stroke-width="1.8"/>
      <line id="Line_171" data-name="Line 171" x2="27.805" transform="translate(750.236 288.398)" fill="none" stroke="#22272e" stroke-linecap="round" stroke-linejoin="round" stroke-width="1.8"/>
      <ellipse id="Ellipse_168" data-name="Ellipse 168" cx="3.859" cy="3.064" rx="3.859" ry="3.064" transform="translate(734.956 287.517) rotate(-64.21)" fill="#22272e"/>
      <path id="Path_1025" data-name="Path 1025" d="M738.875,310.659l-76.832-6.582A2.27,2.27,0,0,1,660,301.694l1.929-17.364a2.134,2.134,0,0,1,2.27-1.929l77.4,2.837a2.27,2.27,0,0,1,2.156,2.5l-2.5,21.109a2.361,2.361,0,0,1-2.383,1.816Z" transform="translate(65.495 22.567)" fill="#89b2fb"/>
      <line id="Line_172" data-name="Line 172" x2="50.843" y2="2.724" transform="translate(747.512 313.593)" fill="none" stroke="#22272e" stroke-linecap="round" stroke-linejoin="round" stroke-width="1.8"/>
      <line id="Line_173" data-name="Line 173" x2="27.464" y2="1.929" transform="translate(746.718 320.061)" fill="none" stroke="#22272e" stroke-linecap="round" stroke-linejoin="round" stroke-width="1.8"/>
      <ellipse id="Ellipse_169" data-name="Ellipse 169" cx="3.859" cy="3.064" rx="3.859" ry="3.064" transform="translate(731.733 318.177) rotate(-66.81)" fill="#22272e"/>
    </g>
  </g>
</svg>
