<svg id="figma" xmlns="http://www.w3.org/2000/svg" width="32.143" height="48.214" viewBox="0 0 32.143 48.214">
  <path id="Path_2846" data-name="Path 2846" d="M8.036,97.991a8.039,8.039,0,0,0,8.036-8.036V81.92H8.036a8.036,8.036,0,1,0,0,16.071Z" transform="translate(0 -49.778)" fill="#0acf83"/>
  <path id="Path_2847" data-name="Path 2847" d="M0,49A8.041,8.041,0,0,1,8.036,40.96h8.036V57.031H8.036A8.039,8.039,0,0,1,0,49Z" transform="translate(0 -24.889)" fill="#a259ff"/>
  <path id="Path_2848" data-name="Path 2848" d="M0,8.036A8.041,8.041,0,0,1,8.036,0h8.036V16.071H8.036A8.039,8.039,0,0,1,0,8.036Z" fill="#f24e1e"/>
  <path id="Path_2849" data-name="Path 2849" d="M40.96,0H49a8.036,8.036,0,0,1,0,16.071H40.96V0Z" transform="translate(-24.889)" fill="#ff7262"/>
  <path id="Path_2850" data-name="Path 2850" d="M57.031,49A8.036,8.036,0,1,1,49,40.96,8.036,8.036,0,0,1,57.031,49Z" transform="translate(-24.889 -24.889)" fill="#1abcfe"/>
</svg>
