<svg id="html" xmlns="http://www.w3.org/2000/svg" width="49.589" height="56.239" viewBox="0 0 49.589 56.239">
  <path id="Path_2865" data-name="Path 2865" d="M49.589,0,45.071,50.609,24.765,56.239,4.513,50.618,0,0Z" fill="#e44d26" fill-rule="evenodd"/>
  <path id="Path_2866" data-name="Path 2866" d="M54.17,56.839,70.582,52.29,74.44,9.04H54.17Z" transform="translate(-29.378 -4.903)" fill="#f16529" fill-rule="evenodd"/>
  <path id="Path_2867" data-name="Path 2867" d="M26.947,28.816H35.73V22.61H20.16l.146,1.666L21.83,41.384h13.89V35.173H27.515l-.568-6.357Zm1.4,15.671H22.114l.87,9.748L35.7,57.764l.027-.009V51.3l-.027.009-6.915-1.867-.444-4.952Z" transform="translate(-10.933 -12.262)" fill="#ebebeb" fill-rule="evenodd"/>
  <path id="Path_2868" data-name="Path 2868" d="M54.13,41.378h7.643l-.719,8.05L54.13,51.3v6.458l12.728-3.529.092-1.048,1.46-16.343.151-1.666H54.13v6.211Zm0-12.581v.014H69.123l.124-1.4.284-3.149.146-1.666H54.13v6.2Z" transform="translate(-29.356 -12.257)" fill="#fff" fill-rule="evenodd"/>
</svg>
