<svg id="ICONPC" xmlns="http://www.w3.org/2000/svg" width="183.909" height="99.562" viewBox="0 0 183.909 99.562">
  <path id="Path_2827" data-name="Path 2827" d="M60.082,257.59,2.619,235.718A4.144,4.144,0,0,1,0,231.78H0l92.167-13.42s11.376,19.091,10.208,19.544S60.082,257.59,60.082,257.59Z" transform="translate(0.002 -158.707)" fill="#212023"/>
  <path id="Path_2828" data-name="Path 2828" d="M0,233.37l61.54,21.58,35.292-17.062s-7.726-17.354-8.61-17.219S0,233.37,0,233.37Z" transform="translate(0.001 -160.151)" fill="#c7b5ff"/>
  <path id="Path_2829" data-name="Path 2829" d="M157.164,154.237l20.124-85.456a9.639,9.639,0,0,1,8.9-7.292L278.5,59a3.555,3.555,0,0,1,3.5,4.522l-18.814,65.631a9.467,9.467,0,0,1-6.854,6.584L161.54,158.467C158.77,159.051,156.434,156.865,157.164,154.237Z" transform="translate(-98.248 -59)" fill="#212023"/>
  <ellipse id="Ellipse_369" data-name="Ellipse 369" cx="8.748" cy="5.54" rx="8.748" ry="5.54" transform="translate(124.231 51.148) rotate(-73.62)" fill="#f5ea5c"/>
</svg>
