<svg id="ICONRESEARCH" xmlns="http://www.w3.org/2000/svg" width="167.426" height="104.269" viewBox="0 0 167.426 104.269">
  <path id="Path_1438" data-name="Path 1438" d="M289.254,112.1s-1.445,1.445,1.239,12.4a61.35,61.35,0,0,0,8.786,19.324,19.043,19.043,0,0,0,5.478-17.982C302.47,114.462,289.254,112.1,289.254,112.1Z" transform="translate(-190.111 -87.327)" fill="#22272e"/>
  <path id="Path_1439" data-name="Path 1439" d="M220.746,162.948s-2.054.62-6.923,5.684-11.983,7.645-20.461,11.47-12.61-13.952-10.439-22.94c2.054-8.991,11.367-15.192,11.367-15.192l18.071,2.479s6-7.132,8.371-2.482C223.02,146.62,222.814,157.056,220.746,162.948Z" transform="translate(-120.066 -105.933)" fill="#f4c2c9"/>
  <path id="Path_1440" data-name="Path 1440" d="M85.612,138.346,24.021,152.5a4.985,4.985,0,0,1-6-3.732L.565,73.139a4.982,4.982,0,0,1,3.718-6L65.874,52.986a4.982,4.982,0,0,1,5.992,3.722l17.362,75.629a4.848,4.848,0,0,1-3.616,6.009Z" transform="translate(-0.432 -48.366)" fill="#212023"/>
  <path id="Path_1441" data-name="Path 1441" d="M90.769,107.372l-40.1,9.2a2.4,2.4,0,0,1-2.893-1.863h0a2.4,2.4,0,0,1,1.859-2.893l40.1-9.2a2.4,2.4,0,0,1,2.893,1.859h0A2.612,2.612,0,0,1,90.769,107.372Z" transform="translate(-31.527 -81.051)" fill="#f5ea5c"/>
  <line id="Line_215" data-name="Line 215" y1="10.333" x2="44.849" transform="translate(19.043 35.829)" fill="none" stroke="#494555" stroke-linecap="round" stroke-linejoin="round" stroke-width="1"/>
  <line id="Line_216" data-name="Line 216" y1="10.337" x2="44.849" transform="translate(20.799 43.371)" fill="none" stroke="#494555" stroke-linecap="round" stroke-linejoin="round" stroke-width="1"/>
  <path id="Path_1442" data-name="Path 1442" d="M94.571,242.545,78.038,246.37a2.4,2.4,0,0,1-2.893-1.859L71.32,227.984a2.4,2.4,0,0,1,1.863-2.893l16.534-3.821a2.4,2.4,0,0,1,2.893,1.859l3.824,16.534A2.619,2.619,0,0,1,94.571,242.545Z" transform="translate(-47.008 -159.078)" fill="#9e80fb"/>
  <line id="Line_217" data-name="Line 217" y1="3.927" x2="16.842" transform="translate(51.699 56.084)" fill="none" stroke="#494555" stroke-linecap="round" stroke-linejoin="round" stroke-width="1"/>
  <line id="Line_218" data-name="Line 218" y1="3.824" x2="16.948" transform="translate(53.558 64.349)" fill="none" stroke="#494555" stroke-linecap="round" stroke-linejoin="round" stroke-width="1"/>
  <line id="Line_219" data-name="Line 219" y1="2.376" x2="10.23" transform="translate(55.417 74.066)" fill="none" stroke="#494555" stroke-linecap="round" stroke-linejoin="round" stroke-width="1"/>
  <path id="Path_1443" data-name="Path 1443" d="M88.295,63.315,66.386,68.4a2.184,2.184,0,0,1-2.582-2.6l.205-1.027a2.236,2.236,0,0,1,1.654-1.654l20.978-4.862a2.147,2.147,0,0,1,2.171.722l.62.829A2.15,2.15,0,0,1,88.295,63.315Z" transform="translate(-42.074 -51.874)" fill="#89b2fb"/>
  <path id="Path_1444" data-name="Path 1444" d="M212.25,125.292s-2.585,1.342-7.532,0-5.786-2.585-10.956-3.927-12.3.1-13.538,2.273,2.054,3.513,6.505,4.03,6.505,8.991,13.641,12.192C212.25,145.133,222.789,129.01,212.25,125.292Z" transform="translate(-118.493 -93.079)" fill="#f4c2c9"/>
  <path id="Path_1445" data-name="Path 1445" d="M180.194,129c-1.239,2.171,2.054,3.513,6.505,4.03s6.505,8.991,13.641,12.192a11.343,11.343,0,0,0,7.026.829" transform="translate(-118.473 -98.441)" fill="none" stroke="#e26e85" stroke-linecap="round" stroke-linejoin="round" stroke-width="1"/>
  <path id="Path_1446" data-name="Path 1446" d="M282.124,119.94s-5.478,3.516-7.854,4.756a27.458,27.458,0,0,1,6.505,12.709c1.856,8.162.414,12.093.414,12.093s6.1-.623,9.094-2.79c0,0,2.893-4.756.517-14.055S282.124,119.94,282.124,119.94Z" transform="translate(-180.513 -92.483)" fill="#fff"/>
  <path id="Path_1447" data-name="Path 1447" d="M357.364,54.6A20.82,20.82,0,0,0,325.433,43.54a230.5,230.5,0,0,1-19.636,12.5L290,64.621s8.991,8.885,10.337,18.7-.312,13.011-.312,13.011,24.7-6.1,46.5-16.742A21.179,21.179,0,0,0,357.377,54.6Z" transform="translate(-190.857 -39.745)" fill="#89b2fb"/>
  <path id="Path_1448" data-name="Path 1448" d="M308.439,180.626a1.239,1.239,0,1,0-1.239,1.243,1.195,1.195,0,0,0,1.239-1.243Z" transform="translate(-201.352 -131.578)" fill="#22272e"/>
</svg>
