<svg id="ICONAIM" xmlns="http://www.w3.org/2000/svg" width="125.372" height="124.126" viewBox="0 0 125.372 124.126">
  <path id="Path_1417" data-name="Path 1417" d="M202.137,154.835c-27.135,26.3-60.851,31.492-73.068,13.392-10.808-15.989-.588-44.413,21.5-64.971C172.3,83.05,200.962,74.71,216.474,85.4,233.973,97.371,228.8,128.983,202.137,154.835Z" transform="translate(-101.302 -54.781)" fill="#3e1f9c"/>
  <path id="Path_1418" data-name="Path 1418" d="M190.2,142.523c-27.135,26.314-60.851,31.492-73.068,13.392-10.808-15.976-.588-44.4,21.5-64.964,21.733-20.2,50.393-28.544,65.906-17.856C222.15,85.2,216.865,116.8,190.2,142.523Z" transform="translate(-93.238 -46.472)" fill="#9e80fb"/>
  <path id="Path_1419" data-name="Path 1419" d="M215.741,164.855c-16.327,15.626-36.768,19.5-44.991,9.045-7.519-9.633-1.526-27.839,12.8-41.232,14.214-13.275,32.657-18.327,42.173-10.808C235.948,129.85,231.837,149.349,215.741,164.855Z" transform="translate(-130.178 -80.199)" fill="#89b2fb"/>
  <path id="Path_1420" data-name="Path 1420" d="M242.714,189.676c-6.461,6.107-14.684,7.87-18.207,3.993-3.409-3.76-1.175-11.4,4.932-17.152s13.98-7.636,17.739-4.221C251.055,175.7,249.175,183.566,242.714,189.676Z" transform="translate(-167.605 -115.474)" fill="#f5ea5c"/>
  <path id="Path_1421" data-name="Path 1421" d="M92.388,40.225h0a6.139,6.139,0,0,1-8.694-.351L62.782,13.206a3.425,3.425,0,0,1,.354-4.581h0a3.415,3.415,0,0,1,4.581,0l24.9,22.9a5.935,5.935,0,0,1-.234,8.7Z" transform="translate(-58.981 -5.495)" fill="#22272e"/>
  <path id="Path_1422" data-name="Path 1422" d="M61.181,40.1l-6.694.932a2.151,2.151,0,0,0-1.175,3.76h0a29.492,29.492,0,0,0,14.567,6.954l3.406.588a.461.461,0,0,0,.471-.7L63.294,40.92a2.451,2.451,0,0,0-2.114-.821Z" transform="translate(-52.561 -27.336)" fill="#89b2fb"/>
  <path id="Path_1423" data-name="Path 1423" d="M94.125,9.116l1.523-6.578a2.182,2.182,0,0,1,3.9-.825h0a28.9,28.9,0,0,1,5.74,15.038l.237,3.406a.448.448,0,0,1-.708.354l-9.983-9.165A2.185,2.185,0,0,1,94.125,9.116Z" transform="translate(-80.571 -0.817)" fill="#89b2fb"/>
  <line id="Line_198" data-name="Line 198" x2="6.698" y2="7.165" transform="translate(32.465 33.674)" fill="none" stroke="#22272e" stroke-linecap="round" stroke-linejoin="round" stroke-width="6.51"/>
</svg>
