<svg xmlns="http://www.w3.org/2000/svg" xmlns:xlink="http://www.w3.org/1999/xlink" width="111.906" height="136.148" viewBox="0 0 111.906 136.148">
  <defs>
    <clipPath id="clip-path">
      <path id="Path_1480" data-name="Path 1480" d="M142.2,167.926,96.182,165.1a5.7,5.7,0,0,1-5.3-6.735l17.532-98.245a7.693,7.693,0,0,1,6.77-6.271l46.231-4.472a5.758,5.758,0,0,1,6.222,6.685L150.18,161.551a7.622,7.622,0,0,1-7.985,6.375Z" transform="translate(-90.79 -49.348)" fill="none"/>
    </clipPath>
  </defs>
  <g id="ICONPHONE" transform="translate(0 0)">
    <path id="Path_1477" data-name="Path 1477" d="M149.271,168.8l-46.01-2.833a5.7,5.7,0,0,1-5.3-6.735L115.5,60.985a7.693,7.693,0,0,1,6.77-6.271l46.216-4.472a5.755,5.755,0,0,1,6.232,6.667l-17.46,105.475A7.579,7.579,0,0,1,149.271,168.8Z" transform="translate(-94.811 -32.666)" fill="#3e1f9c"/>
    <path id="Path_1478" data-name="Path 1478" d="M142.2,167.926,96.182,165.1a5.7,5.7,0,0,1-5.3-6.735l17.532-98.245a7.693,7.693,0,0,1,6.77-6.271l46.231-4.472a5.758,5.758,0,0,1,6.222,6.685L150.18,161.551a7.622,7.622,0,0,1-7.985,6.375Z" transform="translate(-90.253 -32.108)" fill="#9e80fb"/>
    <g id="Group_111" data-name="Group 111" transform="translate(0.537 17.24)" clip-path="url(#clip-path)">
      <path id="Path_1479" data-name="Path 1479" d="M231.839,154.844,161,156.077a2.925,2.925,0,0,1-2.929-3.442l5.192-29.576a3.774,3.774,0,0,1,3.392-3.086l69.916-4.679a3.72,3.72,0,0,1,3.92,4.319l-5.149,32.145A3.467,3.467,0,0,1,231.839,154.844Z" transform="translate(-134.064 -91.79)" fill="#3e1f9c"/>
    </g>
    <g id="Group_112" data-name="Group 112" transform="translate(0.537 17.24)" clip-path="url(#clip-path)">
      <path id="Path_1481" data-name="Path 1481" d="M210.2,286.905l-70.843-3.082a2.975,2.975,0,0,1-2.776-3.446l5.345-30.288a3.741,3.741,0,0,1,3.649-3.082l70.02-.567a3.738,3.738,0,0,1,3.7,4.319l-5.245,33.057A3.731,3.731,0,0,1,210.2,286.905Z" transform="translate(-120.24 -176.209)" fill="#3e1f9c"/>
    </g>
    <line id="Line_242" data-name="Line 242" y1="4.732" x2="59.429" transform="translate(17.085 29.192)" fill="none" stroke="#3e1f9c" stroke-linecap="round" stroke-linejoin="round" stroke-width="2.6"/>
    <path id="Path_1483" data-name="Path 1483" d="M211.65,72.851l-5.088.463c-.463.053-.713-.306-.67-.823h0a1.208,1.208,0,0,1,.976-.976l5.092-.463c.463-.05.77.31.666.823h0A1.261,1.261,0,0,1,211.65,72.851Z" transform="translate(-164.337 -46.075)" fill="#22272e"/>
    <path id="Path_1484" data-name="Path 1484" d="M230.34,71.99h0c-.463.05-.77-.31-.666-.823h0a1.2,1.2,0,0,1,.976-.976h0c.463-.053.77.306.666.823h0A1.09,1.09,0,0,1,230.34,71.99Z" transform="translate(-179.635 -45.52)" fill="#22272e"/>
    <path id="Path_1485" data-name="Path 1485" d="M354.817,57.929l-19.6,1.489a1.04,1.04,0,0,1-1.133-1.233l1.953-11.877a1.582,1.582,0,0,1,1.425-1.336l19.381-2.056a1.265,1.265,0,0,1,1.39,1.425l-1.9,12.237a1.81,1.81,0,0,1-1.514,1.351Z" transform="translate(-246.842 -27.964)" fill="none" stroke="#89b2fb" stroke-linecap="round" stroke-linejoin="round" stroke-width="1"/>
    <path id="Path_1486" data-name="Path 1486" d="M341.09,45.759l8.52,5.5a1.39,1.39,0,0,0,1.539,0l11.107-7.608" transform="translate(-251.363 -28.441)" fill="none" stroke="#89b2fb" stroke-linecap="round" stroke-linejoin="round" stroke-width="1"/>
    <path id="Path_1487" data-name="Path 1487" d="M108.888,119.046l-16.092.877-2.366,1.539a.738.738,0,0,1-1.13-.77l2.519-13.983a2.494,2.494,0,0,1,2.263-2.056l16.748-1.286a1.671,1.671,0,0,1,1.8,1.953l-2.159,12.237A1.739,1.739,0,0,1,108.888,119.046Z" transform="translate(-89.283 -66.874)" fill="#89b2fb"/>
    <line id="Line_243" data-name="Line 243" y1="0.976" x2="13.573" transform="translate(5.672 40.915)" fill="none" stroke="#22272e" stroke-linecap="round" stroke-linejoin="round" stroke-width="1"/>
    <line id="Line_244" data-name="Line 244" y1="0.923" x2="13.573" transform="translate(5.055 44.411)" fill="none" stroke="#22272e" stroke-linecap="round" stroke-linejoin="round" stroke-width="1"/>
    <line id="Line_245" data-name="Line 245" y1="0.413" x2="7.095" transform="translate(4.439 48.316)" fill="none" stroke="#22272e" stroke-linecap="round" stroke-linejoin="round" stroke-width="1"/>
    <path id="Path_1488" data-name="Path 1488" d="M221.16,146.07l-70.839,1.247a2.929,2.929,0,0,1-2.933-3.442L152.58,114.3a3.774,3.774,0,0,1,3.4-3.086l69.916-4.679a3.72,3.72,0,0,1,3.92,4.319L225.083,140.4l-.414,2.585A3.5,3.5,0,0,1,221.16,146.07Z" transform="translate(-126.654 -68.912)" fill="#2b2a2d"/>
    <path id="Path_1489" data-name="Path 1489" d="M194.645,148.143a4.82,4.82,0,0,1-4.112,4.009c-1.9.089-3.136-1.539-2.776-3.649a4.824,4.824,0,0,1,4.112-4.009C193.772,144.4,195.005,146.037,194.645,148.143Z" transform="translate(-152.628 -93.348)" fill="#f5ea5c"/>
    <path id="Path_1490" data-name="Path 1490" d="M184.832,174.786l-8.431.257a1.8,1.8,0,0,1-1.849-2.11l.153-.926c.666-3.8,3.959-7.041,7.4-7.127h0c3.446-.153,5.758,2.879,5.092,6.735l-.207,1.336A2.305,2.305,0,0,1,184.832,174.786Z" transform="translate(-144.151 -106.469)" fill="#f5ea5c"/>
    <path id="Path_1491" data-name="Path 1491" d="M270.428,146.456,236.858,148a1.069,1.069,0,0,1-1.13-1.286l.356-2.263a1.689,1.689,0,0,1,1.543-1.386l33.62-1.75a1.069,1.069,0,0,1,1.13,1.286l-.41,2.469A1.6,1.6,0,0,1,270.428,146.456Z" transform="translate(-183.53 -91.301)" fill="#89b2fb"/>
    <path id="Path_1492" data-name="Path 1492" d="M232.916,177.1l.513,1.6,1.6.257-1.39,1.386-.1,1.8-1.336-.72-1.646.823.517-1.8-.926-1.283,1.7-.413Z" transform="translate(-179.948 -114.338)" fill="#9e80fb"/>
    <path id="Path_1493" data-name="Path 1493" d="M254.556,176.38l.567,1.593,1.593.26-1.386,1.386-.053,1.8-1.44-.72-1.643.823.513-1.8-.926-1.336,1.7-.36Z" transform="translate(-193.877 -113.874)" fill="#9e80fb"/>
    <path id="Path_1494" data-name="Path 1494" d="M276.589,175.52l.567,1.593,1.643.306-1.44,1.39-.05,1.849-1.44-.77-1.7.873.513-1.849-.976-1.336,1.8-.413Z" transform="translate(-207.993 -113.321)" fill="#9e80fb"/>
    <path id="Path_1495" data-name="Path 1495" d="M299.149,174.65l.567,1.646,1.7.257-1.44,1.44-.05,1.849-1.493-.77-1.746.873.563-1.9-1.026-1.283,1.8-.413Z" transform="translate(-222.481 -112.761)" fill="#9e80fb"/>
    <path id="Path_1496" data-name="Path 1496" d="M322.283,173.78l.567,1.646,1.746.31-1.489,1.386-.053,1.9-1.543-.77-1.746.873.567-1.9-1.03-1.336,1.8-.41Z" transform="translate(-237.337 -112.201)" fill="#9e80fb"/>
    <path id="Path_1497" data-name="Path 1497" d="M199.474,278.042l-70.789-3.136a2.968,2.968,0,0,1-2.776-3.446l5.345-30.288a3.745,3.745,0,0,1,3.649-3.086l70.02-.567a3.734,3.734,0,0,1,3.7,4.319l-5.242,33.068A3.784,3.784,0,0,1,199.474,278.042Z" transform="translate(-112.833 -153.228)" fill="#2b2a2d"/>
    <path id="Path_1498" data-name="Path 1498" d="M173.352,270.369a4.453,4.453,0,0,1-4.162,3.855c-1.953-.064-3.136-1.782-2.776-3.959a4.5,4.5,0,0,1,4.112-3.856C172.429,266.41,173.762,268.209,173.352,270.369Z" transform="translate(-138.888 -171.824)" fill="#f5ea5c"/>
    <path id="Path_1499" data-name="Path 1499" d="M163.39,297.725l-8.431-.257a1.86,1.86,0,0,1-1.75-2.11l.207-1.069c.67-3.92,3.959-6.995,7.4-6.941h0c3.442.05,5.755,3.289,5.035,7.248l-.2,1.286A2.234,2.234,0,0,1,163.39,297.725Z" transform="translate(-130.419 -185.301)" fill="#f5ea5c"/>
    <path id="Path_1500" data-name="Path 1500" d="M249.058,276.528l-33.574-.463a1.108,1.108,0,0,1-1.069-1.283l.41-2.366a1.653,1.653,0,0,1,1.646-1.386l33.62.257a1.108,1.108,0,0,1,1.069,1.283l-.41,2.573A1.782,1.782,0,0,1,249.058,276.528Z" transform="translate(-169.817 -174.797)" fill="#89b2fb"/>
    <path id="Path_1501" data-name="Path 1501" d="M211.656,302.62l.513,1.646,1.593.36-1.386,1.336-.05,1.849-1.39-.873-1.646.77.513-1.849-.873-1.336,1.646-.31Z" transform="translate(-166.296 -195.131)" fill="#9e80fb"/>
    <path id="Path_1502" data-name="Path 1502" d="M233.256,303.05l.517,1.646,1.643.41-1.44,1.34-.05,1.849-1.44-.823-1.646.773.517-1.853-.926-1.44,1.75-.257Z" transform="translate(-180.135 -195.408)" fill="#9e80fb"/>
    <path id="Path_1503" data-name="Path 1503" d="M255.379,303.63l.513,1.646,1.7.41-1.44,1.336-.1,1.9-1.44-.873-1.7.77.563-1.849-.976-1.44,1.75-.257Z" transform="translate(-194.34 -195.781)" fill="#9e80fb"/>
    <path id="Path_1504" data-name="Path 1504" d="M277.939,304.06l.567,1.7,1.7.413-1.49,1.39-.053,1.9-1.49-.873-1.75.77.567-1.9-.976-1.44,1.8-.31Z" transform="translate(-208.829 -196.058)" fill="#63737a"/>
    <path id="Path_1505" data-name="Path 1505" d="M300.932,304.64l.616,1.7,1.7.413-1.489,1.386-.053,1.953-1.49-.923-1.8.823.563-1.956-1.026-1.386,1.849-.31Z" transform="translate(-223.595 -196.431)" fill="#63737a"/>
    <path id="Path_1506" data-name="Path 1506" d="M322.474,17.454a2.056,2.056,0,1,0,.539,1.5,2.074,2.074,0,0,0-.539-1.5Z" transform="translate(-237.054 -11.139)" fill="#22272e"/>
    <path id="Path_1507" data-name="Path 1507" d="M310.23,2.45l-.356-.41a3.26,3.26,0,0,0-4.632-.207h0a3.257,3.257,0,0,0-.2,4.632l.356.413a3.92,3.92,0,0,1,.873,1.643c.1.463.257,1.03.41,1.543a1.539,1.539,0,0,0,2.519.773l2.313-2.109,2.316-2.106a1.525,1.525,0,0,0-.517-2.573c-.513-.2-1.026-.356-1.49-.513A5.837,5.837,0,0,1,310.23,2.45Z" transform="translate(-227.597 -0.967)" fill="#89b2fb"/>
  </g>
</svg>
