<svg id="Layer_x0020_1_BN" data-name="Layer_x0020_1 BN" xmlns="http://www.w3.org/2000/svg" width="56.843" height="55.422" viewBox="0 0 56.843 55.422">
  <g id="adobe-experience-design-1.svg">
    <path id="Path_2851" data-name="Path 2851" d="M55.56,55.56h52.106v50.685H55.56Z" transform="translate(-53.191 -53.191)" fill="#a5a5a5"/>
    <path id="Path_2852" data-name="Path 2852" d="M0,0V55.422H56.843V0ZM2.369,2.369H54.475V53.054H2.369Z" fill="#e9e9e9"/>
    <path id="Path_2853" data-name="Path 2853" d="M281.721,318.477a3.252,3.252,0,0,0-1.374-.237c-2.984,0-4.974,2.3-4.974,6.111,0,4.358,2.037,6.111,4.69,6.111a4.471,4.471,0,0,0,1.634-.26V318.476h.024ZM271.11,324.54c0-5.518,3.553-9.829,9.379-9.829a10.514,10.514,0,0,1,1.232.047V308.6a.238.238,0,0,1,.237-.237h3.814c.189,0,.237.071.237.189V330.2a16.845,16.845,0,0,0,.119,2.321c0,.166,0,.189-.142.26a14.109,14.109,0,0,1-6.063,1.374c-5.14,0-8.811-3.174-8.811-9.616Zm-8.076-3.837,6.632,12.861c.119.189.047.379-.142.379H265.4a.465.465,0,0,1-.5-.308q-2.274-4.689-4.642-9.734h-.047c-1.421,3.174-2.984,6.632-4.5,9.758a.455.455,0,0,1-.426.26h-3.932c-.237,0-.26-.189-.142-.332l6.49-12.482L251.428,308.7a.21.21,0,0,1,.166-.355h4.074c.237,0,.355.047.426.26,1.492,3.15,3.008,6.253,4.429,9.426h.047c1.374-3.126,2.89-6.276,4.334-9.379.119-.189.189-.308.426-.308h3.813c.189,0,.261.142.142.355L263.034,320.7Z" transform="translate(-240.439 -295.195)" fill="#e9e9e9"/>
  </g>
</svg>
