<svg xmlns="http://www.w3.org/2000/svg" width="61.119" height="56.752" viewBox="0 0 61.119 56.752">
  <path id="linkedin_1_footer" data-name="linkedin (1) footer" d="M21.819,40.317H33.9v6.191h.175c1.682-3.017,5.794-6.191,11.927-6.191,12.752,0,15.111,7.936,15.111,18.26v21.03H48.513V60.964c0-4.444-.093-10.165-6.549-10.165-6.558,0-7.563,4.838-7.563,9.841V79.606H21.819V40.317ZM13.088,29.4a6.549,6.549,0,1,1-6.549-6.549A6.551,6.551,0,0,1,13.088,29.4ZM-.011,40.317h13.1v39.29H-.011V40.317Z" transform="translate(0.011 -22.854)" fill-rule="evenodd"/>
</svg>
