<svg xmlns="http://www.w3.org/2000/svg" xmlns:xlink="http://www.w3.org/1999/xlink" width="85.662" height="92.533" viewBox="0 0 85.662 92.533">
  <defs>
    <linearGradient id="linear-gradient" x1="-0.061" x2="0.859" y2="0.864" gradientUnits="objectBoundingBox">
      <stop offset="0" stop-color="#4981e3"/>
      <stop offset="1" stop-color="#9170f6"/>
    </linearGradient>
  </defs>
  <g id="logonav" transform="translate(-204.762 -42.234)">
    <g id="Group_131MAINLOGO" data-name="Group 131MAINLOGO" transform="translate(151.793 -30.425)">
      <path id="Path_4" data-name="Path 4" d="M201.283,142.711V72.658h16.172v53.907l39.178.016v16.13Z" transform="translate(-148.314)" fill="url(#linear-gradient)"/>
      <path id="Path_5" data-name="Path 5" d="M307.6,226.181l18.006.263s3.183-7.179,14-6.831c9.993.321,16.439,8.268,16.439,19.252-.368,10.249-5.288,19.687-19.5,19.157-11.233-.247-13.015-8.51-13.015-8.51l-16.82.15s6.182,22.179,29.835,22.585c24.818.427,35.913-15.4,35.876-34.368-.034-17.613-12.73-32.447-31.919-33.146C312.025,203.695,307.6,226.181,307.6,226.181Z" transform="translate(-233.79 -107.064)" fill="url(#linear-gradient)"/>
    </g>
  </g>
</svg>
