<svg xmlns="http://www.w3.org/2000/svg" width="88.429" height="31.913" viewBox="0 0 88.429 31.913">
  <path id="miro-logo-vector_BN" data-name="miro-logo-vector BN" d="M-48.891,179.939c6.515,0,10.82,4.525,10.82,11.365s-4.319,11.409-10.82,11.409c-6.766,0-11.277-4.57-11.277-11.409S-55.642,179.939-48.891,179.939Zm-34.744.457v21.846l-4.864-1V181.354Zm19.487-.516v5.13l-2.8.516c-2.4.457-3.965,1.71-3.965,4.5v12.22l-4.864-1V189.285c0-5.94,3.479-7.695,8.83-8.933Zm-51.725.059a7.117,7.117,0,0,1,5.572,2.978A7.813,7.813,0,0,1-104.035,180c3.42-.044,7.68,2.108,7.68,8.564v13.679l-4.864-1V188.562a3.628,3.628,0,0,0-3.877-3.715,3.628,3.628,0,0,0-3.877,3.715v13.679l-4.864-1V188.562a3.628,3.628,0,0,0-3.877-3.715,3.649,3.649,0,0,0-3.921,3.715v13.679l-4.864-1V181.354l4.864-.958v2.255A7.375,7.375,0,0,1-115.872,179.939Zm66.981,4.614c-3.774,0-6.309,2.683-6.309,6.751s2.535,6.8,6.309,6.8c3.523,0,5.852-2.727,5.852-6.8S-45.368,184.553-48.891,184.553ZM-85.963,170.8a2.857,2.857,0,0,1,2.948,3.1,2.857,2.857,0,0,1-2.948,3.1,2.909,2.909,0,0,1-3.066-3.1A2.909,2.909,0,0,1-85.963,170.8Z" transform="translate(126.5 -170.8)" fill="#a6a6a6"/>
</svg>
