<svg xmlns="http://www.w3.org/2000/svg" width="68.848" height="51.608" viewBox="0 0 68.848 51.608">
  <g id="sass" transform="translate(0.002 0.001)">
    <path id="Path_2869" data-name="Path 2869" d="M59.265,29.633a14.2,14.2,0,0,0-6.241,1.451,13.053,13.053,0,0,1-1.4-3.227,8.925,8.925,0,0,1-.123-2.717,21.614,21.614,0,0,1,.818-2.93c-.011-.123-.146-.712-1.535-.728s-2.583.269-2.717.633a15.482,15.482,0,0,0-.577,2.056c-.241,1.266-2.768,5.743-4.208,8.1a8.165,8.165,0,0,1-.952-2.364,8.925,8.925,0,0,1-.123-2.717,21.614,21.614,0,0,1,.818-2.93c-.011-.123-.146-.712-1.535-.728s-2.583.269-2.717.633-.28,1.221-.577,2.056c-.28.835-3.642,8.309-4.516,10.259-.443,1-.835,1.787-1.115,2.325s-.011.039-.039.1c-.241.459-.375.712-.375.712v.011c-.19.336-.392.661-.482.661a4.487,4.487,0,0,1,.028-2.14c.5-2.594,1.709-6.645,1.692-6.791,0-.067.23-.779-.779-1.143a1.223,1.223,0,0,0-1.412.241c-.078,0-.146.213-.146.213S32.137,26.1,28.965,26.1c-1.989,0-4.734,2.163-6.09,4.14l-4.628,2.527c-.74.4-1.507.835-2.23,1.221l-.146-.162C12.023,29.739,4.907,26.837,5.2,21.324c.106-2.006.807-7.289,13.665-13.688C29.4,2.392,37.829,3.832,39.3,7.031c2.084,4.572-4.5,13.071-15.452,14.293-4.168.471-6.359-1.143-6.914-1.748-.577-.633-.661-.661-.874-.538-.347.19-.134.751,0,1.087a6.5,6.5,0,0,0,3.956,3.1c2.006.661,6.9,1.02,12.814-1.266,6.628-2.566,11.805-9.7,10.287-15.654C41.566.252,31.509-1.743,22,1.636,16.342,3.653,10.207,6.8,5.8,10.931.554,15.822-.281,20.1.066,21.873c1.221,6.337,9.951,10.46,13.447,13.514-.174.1-.336.19-.482.269-1.748.863-8.4,4.342-10.074,8.029-1.883,4.168.3,7.172,1.748,7.575,4.493,1.249,9.093-1,11.581-4.7s2.179-8.5,1.037-10.69l-.039-.078,1.373-.807c.885-.527,1.759-1.008,2.527-1.423a16.745,16.745,0,0,0-.9,4.572c-.19,2.364.779,5.435,2.056,6.645a2.267,2.267,0,0,0,1.653.538c1.479,0,2.151-1.221,2.891-2.689.913-1.787,1.72-3.86,1.72-3.86s-1.008,5.608,1.748,5.608c1.009,0,2.017-1.305,2.476-1.978v.011a1.333,1.333,0,0,0,.078-.134c.056-.084.112-.168.162-.258v-.028c.4-.7,1.305-2.3,2.65-4.947,1.737-3.418,3.4-7.693,3.4-7.693a24.611,24.611,0,0,0,.661,2.768,26.553,26.553,0,0,0,1.44,3.227c-.4.566-.644.885-.644.885l.011.011c-.325.431-.684.885-1.065,1.345a38.78,38.78,0,0,0-3.227,4.045,1.1,1.1,0,0,0,.3,1.479,2.673,2.673,0,0,0,1.692.269A7.575,7.575,0,0,0,40.81,42.8a8.723,8.723,0,0,0,2.179-1.143,4.862,4.862,0,0,0,2.084-4.292,8.533,8.533,0,0,0-.8-3.026c.123-.174.241-.347.364-.538a56.731,56.731,0,0,0,3.765-6.522,24.611,24.611,0,0,0,.661,2.768,20.041,20.041,0,0,0,1.221,2.768,11.946,11.946,0,0,0-3.67,4.746c-.8,2.286-.174,3.322,1,3.563a3.6,3.6,0,0,0,1.843-.375,8.229,8.229,0,0,0,2.325-1.2c1.345-1,2.633-2.381,2.566-4.247a8.136,8.136,0,0,0-.577-2.516,13.081,13.081,0,0,1,6.667-.768c5.984.7,7.166,4.437,6.942,5.995a4.033,4.033,0,0,1-1.894,2.689c-.415.258-.549.347-.51.538.056.28.241.269.605.213A4.65,4.65,0,0,0,68.84,37.3c.162-3.675-3.35-7.709-9.575-7.67ZM13.115,45.192c-1.978,2.163-4.762,2.986-5.945,2.286-1.277-.74-.779-3.928,1.653-6.225a31.555,31.555,0,0,1,4.667-3.485c.28-.174.712-.431,1.221-.74a.718.718,0,0,1,.134-.078c.1-.056.2-.123.308-.19a8.575,8.575,0,0,1-2.039,8.432ZM27.57,35.364c-.684,1.681-2.14,6-3.014,5.754-.751-.2-1.21-3.468-.146-6.7a14.932,14.932,0,0,1,2.353-4.314c1.087-1.21,2.275-1.614,2.566-1.115.353.639-1.328,5.317-1.759,6.37Zm11.928,5.7c-.3.146-.566.258-.684.174-.1-.056.123-.258.123-.258s1.49-1.6,2.084-2.342c.336-.431.74-.93,1.171-1.49v.162c-.006,1.939-1.86,3.233-2.695,3.754Zm9.2-2.1c-.213-.162-.19-.661.538-2.219a8.312,8.312,0,0,1,2.045-2.633,3.389,3.389,0,0,1,.2,1.154,3.788,3.788,0,0,1-2.785,3.7Z" transform="translate(0 0)" fill="#cf649a" fill-rule="evenodd"/>
  </g>
</svg>
