<svg xmlns="http://www.w3.org/2000/svg" width="31.237" height="48.367" viewBox="0 0 31.237 48.367">
  <defs>
    <style>
      .cls-1 {
        fill: #805df3;
      }
    </style>
  </defs>
  <g id="scroll-down_1_" data-name="scroll-down (1)" transform="translate(31.237 48.367) rotate(180)">
    <path id="Path_1" data-name="Path 1" class="cls-1" d="M19.759,47.875a15.682,15.682,0,0,0,11.478-15.06v-17.2A15.619,15.619,0,0,0,0,15.618V32.811A15.679,15.679,0,0,0,12.808,48.178a19.185,19.185,0,0,0,6.951-.3ZM15.441,36.236a2.982,2.982,0,0,0,2.972-2.972V30.2a2.972,2.972,0,1,0-5.944,0v3.062a2.979,2.979,0,0,0,2.972,2.972Zm8.6,5A11.93,11.93,0,0,1,3.688,32.815v-17.2a11.93,11.93,0,0,1,23.861,0V32.811a11.89,11.89,0,0,1-3.507,8.427Z" transform="translate(0 0)"/>
  </g>
</svg>
