<svg xmlns="http://www.w3.org/2000/svg" width="37.015" height="30.068" viewBox="0 0 37.015 30.068">
  <path id="twitter" d="M37,63.6A14.939,14.939,0,0,1,32.647,64.8a7.639,7.639,0,0,0,3.34-4.2,15.291,15.291,0,0,1-4.821,1.843,7.6,7.6,0,0,0-13.132,5.2,7.7,7.7,0,0,0,.194,1.728A21.559,21.559,0,0,1,2.58,61.428,7.6,7.6,0,0,0,4.927,71.561a7.634,7.634,0,0,1-3.441-.946v.095a7.591,7.591,0,0,0,6.091,7.444,7.638,7.638,0,0,1-2,.268,7.964,7.964,0,0,1-1.433-.136,7.616,7.616,0,0,0,7.091,5.275A15.227,15.227,0,0,1,1.8,86.814,15.151,15.151,0,0,1-.011,86.7a21.474,21.474,0,0,0,11.643,3.412c13.962,0,21.6-11.571,21.6-21.6,0-.333-.008-.656-.021-.983A15.223,15.223,0,0,0,37,63.606l0,0Z" transform="translate(0.011 -60.048)" fill-rule="evenodd"/>
</svg>
