<svg xmlns="http://www.w3.org/2000/svg" width="54.864" height="54.545" viewBox="0 0 54.864 54.545">
  <g id="visual-studio-code_BN" data-name="visual-studio-code BN" transform="translate(0.159 -0.658)">
    <path id="Path_2856" data-name="Path 2856" d="M52.763,6.439,41.465,1a3.415,3.415,0,0,0-3.9.662L.586,35.38a2.287,2.287,0,0,0,0,3.38l3.02,2.746a2.285,2.285,0,0,0,2.917.131L51.062,7.85A2.269,2.269,0,0,1,54.7,9.658V9.527A3.425,3.425,0,0,0,52.763,6.439Z" transform="translate(0 -0.002)" fill="#727272"/>
    <g id="Group_133" data-name="Group 133" transform="translate(-0.159 13.767)">
      <path id="Path_2857" data-name="Path 2857" d="M52.763,97.523l-11.3,5.44a3.415,3.415,0,0,1-3.9-.662L.586,68.582a2.284,2.284,0,0,1,0-3.377l3.02-2.746a2.285,2.285,0,0,1,2.917-.131L51.062,96.112A2.269,2.269,0,0,0,54.7,94.3v.131A3.425,3.425,0,0,1,52.763,97.523Z" transform="translate(0.159 -61.864)" fill="#ababab"/>
    </g>
    <g id="Group_134" data-name="Group 134" transform="translate(37.569 0.658)">
      <path id="Path_2858" data-name="Path 2858" d="M179.9,54.865A3.415,3.415,0,0,1,176,54.2a2.008,2.008,0,0,0,3.427-1.42V3.079A2.008,2.008,0,0,0,176,1.659a3.421,3.421,0,0,1,3.9-.664l11.3,5.431a3.429,3.429,0,0,1,1.943,3.088V46.345a3.426,3.426,0,0,1-1.943,3.088Z" transform="translate(-176 -0.658)" fill="#aeaeae"/>
    </g>
    <g id="Group_135" data-name="Group 135" transform="translate(-0.159 0.659)" opacity="0.25">
      <path id="Path_2859" data-name="Path 2859" d="M38.722,54.975a3.412,3.412,0,0,0,2.72-.1l11.289-5.431a3.425,3.425,0,0,0,1.94-3.088V9.521a3.427,3.427,0,0,0-1.94-3.088L41.442,1a3.413,3.413,0,0,0-3.487.315,3.491,3.491,0,0,0-.409.349L15.936,21.38,6.523,14.233a2.279,2.279,0,0,0-2.915.131L.588,17.109a2.287,2.287,0,0,0,0,3.38l8.164,7.447L.586,35.382a2.287,2.287,0,0,0,0,3.38l3.02,2.746a2.282,2.282,0,0,0,2.915.131l9.413-7.145,21.61,19.714A3.414,3.414,0,0,0,38.722,54.975ZM40.97,15.49l-16.4,12.445,16.4,12.448Z" transform="translate(0.159 -0.664)" fill="#a5a5a5" fill-rule="evenodd"/>
    </g>
  </g>
</svg>
